<?xml version="1.0" encoding="utf-8"?>
<!-- Generator: Adobe Illustrator 25.4.1, SVG Export Plug-In . SVG Version: 6.00 Build 0)  -->
<!DOCTYPE svg PUBLIC "-//W3C//DTD SVG 1.1//EN" "http://www.w3.org/Graphics/SVG/1.1/DTD/svg11.dtd" [
	<!ENTITY ns_extend "http://ns.adobe.com/Extensibility/1.0/">
	<!ENTITY ns_ai "http://ns.adobe.com/AdobeIllustrator/10.0/">
	<!ENTITY ns_graphs "http://ns.adobe.com/Graphs/1.0/">
	<!ENTITY ns_vars "http://ns.adobe.com/Variables/1.0/">
	<!ENTITY ns_imrep "http://ns.adobe.com/ImageReplacement/1.0/">
	<!ENTITY ns_sfw "http://ns.adobe.com/SaveForWeb/1.0/">
	<!ENTITY ns_custom "http://ns.adobe.com/GenericCustomNamespace/1.0/">
	<!ENTITY ns_adobe_xpath "http://ns.adobe.com/XPath/1.0/">
]>
<svg version="1.1" id="Layer_1" xmlns:x="&ns_extend;" xmlns:i="&ns_ai;" xmlns:graph="&ns_graphs;"
	 xmlns="http://www.w3.org/2000/svg" xmlns:xlink="http://www.w3.org/1999/xlink" x="0px" y="0px" viewBox="0 0 49.7 60"
	 style="enable-background:new 0 0 49.7 60;" xml:space="preserve">
<style type="text/css">
	.st0{fill:#3A4A9F;}
</style>
<metadata>
	<sfw  xmlns="&ns_sfw;">
		<slices></slices>
		<sliceSourceBounds  bottomLeftOrigin="true" height="60" width="49.8" x="0" y="0"></sliceSourceBounds>
	</sfw>
</metadata>
<g id="apple" transform="translate(-43.827 0)">
	<g id="Group_20730" transform="translate(43.827 0)">
		<path id="Path_14234" class="st0" d="M46.7,23.8c-6-8.5-13.4-6.7-18.2-5.4c-0.5,0.1-1,0.3-1.5,0.4c0.6-5.2,3.4-9.3,8.5-12.4
			l-2-3.3c-2.5,1.5-4.7,3.4-6.6,5.7c-0.6-1.9-1.6-3.6-2.9-5C21.4,1.2,17.7-0.1,12.7,0h-1.9v1.9c-0.1,4.9,1.2,8.7,3.7,11.2
			c2.4,2.2,5.5,3.5,8.7,3.6c-0.1,0.6-0.2,1.3-0.3,2c-0.5-0.1-1.1-0.3-1.7-0.4C16.3,17.1,9,15.2,3,23.7c-2.9,4.1-3.7,9.6-2.5,16
			C2,47.3,6.4,55.1,10.7,57.9c5.3,3.4,9.7,1.8,12.4,0.8c0.6-0.2,1.2-0.4,1.8-0.5c0.6,0.1,1.2,0.3,1.8,0.5c1.8,0.8,3.8,1.2,5.8,1.2
			c2.4,0,4.7-0.7,6.7-2.1c4.3-2.8,8.7-10.6,10.2-18.2C50.4,33.4,49.5,27.9,46.7,23.8z"/>
	</g>
</g>
</svg>
