<?xml version="1.0" encoding="utf-8"?>
<!-- Generator: Adobe Illustrator 25.4.1, SVG Export Plug-In . SVG Version: 6.00 Build 0)  -->
<!DOCTYPE svg PUBLIC "-//W3C//DTD SVG 1.1//EN" "http://www.w3.org/Graphics/SVG/1.1/DTD/svg11.dtd" [
	<!ENTITY ns_extend "http://ns.adobe.com/Extensibility/1.0/">
	<!ENTITY ns_ai "http://ns.adobe.com/AdobeIllustrator/10.0/">
	<!ENTITY ns_graphs "http://ns.adobe.com/Graphs/1.0/">
	<!ENTITY ns_vars "http://ns.adobe.com/Variables/1.0/">
	<!ENTITY ns_imrep "http://ns.adobe.com/ImageReplacement/1.0/">
	<!ENTITY ns_sfw "http://ns.adobe.com/SaveForWeb/1.0/">
	<!ENTITY ns_custom "http://ns.adobe.com/GenericCustomNamespace/1.0/">
	<!ENTITY ns_adobe_xpath "http://ns.adobe.com/XPath/1.0/">
]>
<svg version="1.1" id="Layer_1" xmlns:x="&ns_extend;" xmlns:i="&ns_ai;" xmlns:graph="&ns_graphs;"
	 xmlns="http://www.w3.org/2000/svg" xmlns:xlink="http://www.w3.org/1999/xlink" x="0px" y="0px" viewBox="0 0 43 62"
	 style="enable-background:new 0 0 43 62;" xml:space="preserve">
<style type="text/css">
	.st0{fill:#3A4A9F;}
</style>
<metadata>
	<sfw  xmlns="&ns_sfw;">
		<slices></slices>
		<sliceSourceBounds  bottomLeftOrigin="true" height="62" width="43" x="0" y="0"></sliceSourceBounds>
	</sfw>
</metadata>
<path class="st0" d="M40,0c-1.7,0-3,1.3-3,3v1h-6c-1.1,0-2,0.9-2,2v16c0,1.1,0.9,2,2,2h6v35c0,1.7,1.3,3,3,3s3-1.3,3-3V3
	C43,1.3,41.7,0,40,0z"/>
<g id="Group_20669" transform="translate(0 1)">
	<path id="Path_14217" class="st0" d="M6,11h10c1.1,0,2,0.9,2,2l4,46c0,1.1-0.9,2-2,2H2c-1.1,0-2-0.9-2-2l4-46C4,11.9,4.9,11,6,11z"
		/>
	<path id="Rectangle_592" class="st0" d="M7-1h8c1.1,0,2,0.9,2,2v6c0,1.1-0.9,2-2,2H7C5.9,9,5,8.1,5,7V1C5-0.1,5.9-1,7-1z"/>
</g>
</svg>
