<?xml version="1.0" encoding="utf-8"?>
<!-- Generator: Adobe Illustrator 25.4.1, SVG Export Plug-In . SVG Version: 6.00 Build 0)  -->
<!DOCTYPE svg PUBLIC "-//W3C//DTD SVG 1.1//EN" "http://www.w3.org/Graphics/SVG/1.1/DTD/svg11.dtd" [
	<!ENTITY ns_extend "http://ns.adobe.com/Extensibility/1.0/">
	<!ENTITY ns_ai "http://ns.adobe.com/AdobeIllustrator/10.0/">
	<!ENTITY ns_graphs "http://ns.adobe.com/Graphs/1.0/">
	<!ENTITY ns_vars "http://ns.adobe.com/Variables/1.0/">
	<!ENTITY ns_imrep "http://ns.adobe.com/ImageReplacement/1.0/">
	<!ENTITY ns_sfw "http://ns.adobe.com/SaveForWeb/1.0/">
	<!ENTITY ns_custom "http://ns.adobe.com/GenericCustomNamespace/1.0/">
	<!ENTITY ns_adobe_xpath "http://ns.adobe.com/XPath/1.0/">
]>
<svg version="1.1" id="Layer_1" xmlns:x="&ns_extend;" xmlns:i="&ns_ai;" xmlns:graph="&ns_graphs;"
	 xmlns="http://www.w3.org/2000/svg" xmlns:xlink="http://www.w3.org/1999/xlink" x="0px" y="0px" viewBox="0 0 60 58"
	 style="enable-background:new 0 0 60 58;" xml:space="preserve">
<style type="text/css">
	.st0{fill:#3A4A9F;}
</style>
<metadata>
	<sfw  xmlns="&ns_sfw;">
		<slices></slices>
		<sliceSourceBounds  bottomLeftOrigin="true" height="58" width="60" x="0" y="0"></sliceSourceBounds>
	</sfw>
</metadata>
<g id="Group_20944" transform="translate(-570.317 -571.151)">
	<path id="Path_14323" class="st0" d="M583.3,599.2h34v-10l0,0v-16c0-1.1-0.9-2-2-2h-30c-1.1,0-2,0.9-2,2v16l0,0V599.2z"/>
	<path id="Path_14324" class="st0" d="M628.3,589.2h-7v20h-4v-6h-34v6h-4v-20h-7c-1.1,0-2,0.9-2,2v26c0,1.1,0.9,2,2,2h7v7
		c0,1.7,1.3,3,3,3h2c1.7,0,3-1.3,3-3v-7h26v7c0,1.7,1.3,3,3,3h2c1.7,0,3-1.3,3-3v-7h7c1.1,0,2-0.9,2-2v-26
		C630.3,590,629.4,589.2,628.3,589.2z"/>
</g>
</svg>
