<?xml version="1.0" encoding="utf-8"?>
<!-- Generator: Adobe Illustrator 25.4.1, SVG Export Plug-In . SVG Version: 6.00 Build 0)  -->
<!DOCTYPE svg PUBLIC "-//W3C//DTD SVG 1.1//EN" "http://www.w3.org/Graphics/SVG/1.1/DTD/svg11.dtd" [
	<!ENTITY ns_extend "http://ns.adobe.com/Extensibility/1.0/">
	<!ENTITY ns_ai "http://ns.adobe.com/AdobeIllustrator/10.0/">
	<!ENTITY ns_graphs "http://ns.adobe.com/Graphs/1.0/">
	<!ENTITY ns_vars "http://ns.adobe.com/Variables/1.0/">
	<!ENTITY ns_imrep "http://ns.adobe.com/ImageReplacement/1.0/">
	<!ENTITY ns_sfw "http://ns.adobe.com/SaveForWeb/1.0/">
	<!ENTITY ns_custom "http://ns.adobe.com/GenericCustomNamespace/1.0/">
	<!ENTITY ns_adobe_xpath "http://ns.adobe.com/XPath/1.0/">
]>
<svg version="1.1" id="Layer_1" xmlns:x="&ns_extend;" xmlns:i="&ns_ai;" xmlns:graph="&ns_graphs;"
	 xmlns="http://www.w3.org/2000/svg" xmlns:xlink="http://www.w3.org/1999/xlink" x="0px" y="0px" viewBox="0 0 77 53.5"
	 style="enable-background:new 0 0 77 53.5;" xml:space="preserve">
<style type="text/css">
	.st0{fill:#3A4A9F;}
</style>
<metadata>
	<sfw  xmlns="&ns_sfw;">
		<slices></slices>
		<sliceSourceBounds  bottomLeftOrigin="true" height="53.5" width="77" x="0" y="0"></sliceSourceBounds>
	</sfw>
</metadata>
<g id="Group_20662" transform="translate(-563.317 -573.401)">
	<g id="Group_20941">
		<path id="Path_14312" class="st0" d="M630.3,573.4h-30c-5.5,0-10,4.5-10,10v5h10c5.5,0,10,4.5,10,10v8.3h6.4
			c0,1.7-0.2,3.3-0.6,4.9c-0.3,1.5-0.9,2.9-1.6,4.2c3.7-0.3,7.2-2.1,9.7-4.9c1.2-1.3,2.1-2.7,2.7-4.3h3.4c5.5,0,10-4.5,10-10v-13.3
			C640.3,577.9,635.8,573.4,630.3,573.4z"/>
	</g>
	<path id="Path_14313" class="st0" d="M600.3,591.4h-30c-3.9,0-7,3.1-7,7v13.3c0,3.9,3.1,7,7,7h2.8c0.6,1.2,1.4,2.3,2.3,3.3
		c2.5,2.8,6,4.5,9.7,4.9c-0.7-1.3-1.3-2.8-1.6-4.2c-0.3-1.3-0.5-2.6-0.5-3.9h17.4c3.9,0,7-3.1,7-7v-13.3
		C607.3,594.5,604.2,591.4,600.3,591.4z"/>
</g>
</svg>
