<?xml version="1.0" encoding="utf-8"?>
<!-- Generator: Adobe Illustrator 25.4.1, SVG Export Plug-In . SVG Version: 6.00 Build 0)  -->
<!DOCTYPE svg PUBLIC "-//W3C//DTD SVG 1.1//EN" "http://www.w3.org/Graphics/SVG/1.1/DTD/svg11.dtd" [
	<!ENTITY ns_extend "http://ns.adobe.com/Extensibility/1.0/">
	<!ENTITY ns_ai "http://ns.adobe.com/AdobeIllustrator/10.0/">
	<!ENTITY ns_graphs "http://ns.adobe.com/Graphs/1.0/">
	<!ENTITY ns_vars "http://ns.adobe.com/Variables/1.0/">
	<!ENTITY ns_imrep "http://ns.adobe.com/ImageReplacement/1.0/">
	<!ENTITY ns_sfw "http://ns.adobe.com/SaveForWeb/1.0/">
	<!ENTITY ns_custom "http://ns.adobe.com/GenericCustomNamespace/1.0/">
	<!ENTITY ns_adobe_xpath "http://ns.adobe.com/XPath/1.0/">
]>
<svg version="1.1" id="Layer_1" xmlns:x="&ns_extend;" xmlns:i="&ns_ai;" xmlns:graph="&ns_graphs;"
	 xmlns="http://www.w3.org/2000/svg" xmlns:xlink="http://www.w3.org/1999/xlink" x="0px" y="0px" viewBox="0 0 67.3 57.6"
	 style="enable-background:new 0 0 67.3 57.6;" xml:space="preserve">
<style type="text/css">
	.st0{fill:#3A4A9F;}
</style>
<metadata>
	<sfw  xmlns="&ns_sfw;">
		<slices></slices>
		<sliceSourceBounds  bottomLeftOrigin="true" height="57.8" width="67.4" x="-0.1" y="-0.2"></sliceSourceBounds>
	</sfw>
</metadata>
<g id="Group_20684" transform="translate(-566.691 -571.343)">
	<g id="Group_20681">
		<g id="Group_20680">
			<path id="Path_14218" class="st0" d="M622,571.3c-6.6,0-12,5.4-12,12s5.4,12,12,12s12-5.4,12-12S628.6,571.3,622,571.3z
				 M628.7,580.2l-7.7,7.6c-0.5,0.5-1.2,0.5-1.7,0l-4.1-3.7c-0.5-0.4-0.5-1.2-0.1-1.7s1.2-0.5,1.7-0.1l0,0l0,0l3.2,2.9l6.9-6.9
				c0.5-0.5,1.2-0.5,1.7,0C629.1,579,629.1,579.7,628.7,580.2L628.7,580.2z"/>
		</g>
	</g>
	<path id="Path_14314" class="st0" d="M627,629c0-6.1-3.7-11.5-9.3-13.7c3.9-3.1,4.5-8.7,1.4-12.5c-3.1-3.9-8.7-4.5-12.5-1.4
		s-4.5,8.7-1.4,12.5c0.4,0.5,0.9,1,1.4,1.4c-1.3,0.5-2.6,1.3-3.7,2.2c-2.2-3.1-5.3-5.5-8.8-6.9c5.2-4.1,6.1-11.7,1.9-16.9
		c-4.1-5.2-11.7-6.1-16.9-1.9s-6.1,11.7-1.9,16.9c0.6,0.7,1.2,1.4,1.9,1.9c-7.6,3-12.5,10.4-12.5,18.5L627,629L627,629z"/>
</g>
</svg>
