<?xml version="1.0" encoding="utf-8"?>
<!-- Generator: Adobe Illustrator 25.4.1, SVG Export Plug-In . SVG Version: 6.00 Build 0)  -->
<!DOCTYPE svg PUBLIC "-//W3C//DTD SVG 1.1//EN" "http://www.w3.org/Graphics/SVG/1.1/DTD/svg11.dtd" [
	<!ENTITY ns_extend "http://ns.adobe.com/Extensibility/1.0/">
	<!ENTITY ns_ai "http://ns.adobe.com/AdobeIllustrator/10.0/">
	<!ENTITY ns_graphs "http://ns.adobe.com/Graphs/1.0/">
	<!ENTITY ns_vars "http://ns.adobe.com/Variables/1.0/">
	<!ENTITY ns_imrep "http://ns.adobe.com/ImageReplacement/1.0/">
	<!ENTITY ns_sfw "http://ns.adobe.com/SaveForWeb/1.0/">
	<!ENTITY ns_custom "http://ns.adobe.com/GenericCustomNamespace/1.0/">
	<!ENTITY ns_adobe_xpath "http://ns.adobe.com/XPath/1.0/">
]>
<svg version="1.1" id="Group_20731" xmlns:x="&ns_extend;" xmlns:i="&ns_ai;" xmlns:graph="&ns_graphs;"
	 xmlns="http://www.w3.org/2000/svg" xmlns:xlink="http://www.w3.org/1999/xlink" x="0px" y="0px" viewBox="0 0 45.7 50"
	 style="enable-background:new 0 0 45.7 50;" xml:space="preserve">
<style type="text/css">
	.st0{fill:#3A4A9F;}
</style>
<metadata>
	<sfw  xmlns="&ns_sfw;">
		<slices></slices>
		<sliceSourceBounds  bottomLeftOrigin="true" height="50.1" width="45.7" x="0" y="-0.1"></sliceSourceBounds>
	</sfw>
</metadata>
<g id="Group_20687" transform="translate(0 0)">
	<path id="Path_14221" class="st0" d="M44.8,8.8c-1.1-3.7-4-6.7-7.7-8c-4.8-1.5-10-0.8-14.2,1.9C18.6,0,13.4-0.7,8.6,0.8
		c-3.7,1.3-6.5,4.3-7.7,8C-0.9,14.3,0,20.3,3.3,25c2.2,3.2,3.6,6.8,4.2,10.6c0,0.2,0.1,0.4,0.1,0.7c0.3,3.2,1.1,6.3,2.2,9.3
		c1.1,2.7,2.6,4.2,4.4,4.4c1.9,0.2,3.4-1.4,4.6-4.6c1-2.8,1.6-5.7,1.9-8.6c0.1-1.5,0.6-3,1.4-4.3c0.3-0.4,0.9-0.5,1.3-0.2
		c0.1,0.1,0.2,0.1,0.2,0.2c0.8,1.3,1.3,2.8,1.4,4.3c0.3,2.9,0.9,5.8,1.9,8.6c1.1,3.1,2.6,4.7,4.3,4.7c0.1,0,0.2,0,0.3,0
		c1.8-0.2,3.3-1.7,4.4-4.4c1.1-3,1.9-6.1,2.2-9.3c0-0.2,0.1-0.4,0.1-0.6c0.6-3.8,2-7.5,4.2-10.7C45.7,20.3,46.5,14.3,44.8,8.8z"/>
</g>
</svg>
