<?xml version="1.0" encoding="utf-8"?>
<!-- Generator: Adobe Illustrator 25.4.1, SVG Export Plug-In . SVG Version: 6.00 Build 0)  -->
<!DOCTYPE svg PUBLIC "-//W3C//DTD SVG 1.1//EN" "http://www.w3.org/Graphics/SVG/1.1/DTD/svg11.dtd" [
	<!ENTITY ns_extend "http://ns.adobe.com/Extensibility/1.0/">
	<!ENTITY ns_ai "http://ns.adobe.com/AdobeIllustrator/10.0/">
	<!ENTITY ns_graphs "http://ns.adobe.com/Graphs/1.0/">
	<!ENTITY ns_vars "http://ns.adobe.com/Variables/1.0/">
	<!ENTITY ns_imrep "http://ns.adobe.com/ImageReplacement/1.0/">
	<!ENTITY ns_sfw "http://ns.adobe.com/SaveForWeb/1.0/">
	<!ENTITY ns_custom "http://ns.adobe.com/GenericCustomNamespace/1.0/">
	<!ENTITY ns_adobe_xpath "http://ns.adobe.com/XPath/1.0/">
]>
<svg version="1.1" id="Layer_1" xmlns:x="&ns_extend;" xmlns:i="&ns_ai;" xmlns:graph="&ns_graphs;"
	 xmlns="http://www.w3.org/2000/svg" xmlns:xlink="http://www.w3.org/1999/xlink" x="0px" y="0px" viewBox="0 0 53.8 66"
	 style="enable-background:new 0 0 53.8 66;" xml:space="preserve">
<style type="text/css">
	.st0{fill:#3A4A9F;}
</style>
<metadata>
	<sfw  xmlns="&ns_sfw;">
		<slices></slices>
		<sliceSourceBounds  bottomLeftOrigin="true" height="65.9" width="53.8" x="0" y="0.1"></sliceSourceBounds>
	</sfw>
</metadata>
<g id="Group_20690" transform="translate(-4.424)">
	<path id="Path_14223" class="st0" d="M23.8,17.9C23.8,9.7,31.3,0,31.3,0s7.6,9.7,7.6,17.9s-7.6,11.9-7.6,11.9S23.8,26.2,23.8,17.9z
		 M14.3,39.4c6.6,4.9,14,1,14,1s1.6-8.2-5-13.2S4.4,22.6,4.4,22.6S7.7,34.5,14.3,39.4z M35.7,41c2.4,0.9,7.8,2.1,12.7-1.6
		c6.6-4.9,9.8-16.8,9.8-16.8S46,22.4,39.4,27.3c-3.3,2.6-5.2,6.5-5.1,10.7l0,0v11.3H6.9c0,9.2,11,16.6,24.4,16.6s24.4-7.4,24.4-16.6
		h-20V41z"/>
</g>
</svg>
