<?xml version="1.0" encoding="utf-8"?>
<!-- Generator: Adobe Illustrator 25.4.1, SVG Export Plug-In . SVG Version: 6.00 Build 0)  -->
<!DOCTYPE svg PUBLIC "-//W3C//DTD SVG 1.1//EN" "http://www.w3.org/Graphics/SVG/1.1/DTD/svg11.dtd" [
	<!ENTITY ns_extend "http://ns.adobe.com/Extensibility/1.0/">
	<!ENTITY ns_ai "http://ns.adobe.com/AdobeIllustrator/10.0/">
	<!ENTITY ns_graphs "http://ns.adobe.com/Graphs/1.0/">
	<!ENTITY ns_vars "http://ns.adobe.com/Variables/1.0/">
	<!ENTITY ns_imrep "http://ns.adobe.com/ImageReplacement/1.0/">
	<!ENTITY ns_sfw "http://ns.adobe.com/SaveForWeb/1.0/">
	<!ENTITY ns_custom "http://ns.adobe.com/GenericCustomNamespace/1.0/">
	<!ENTITY ns_adobe_xpath "http://ns.adobe.com/XPath/1.0/">
]>
<svg version="1.1" id="Layer_1" xmlns:x="&ns_extend;" xmlns:i="&ns_ai;" xmlns:graph="&ns_graphs;"
	 xmlns="http://www.w3.org/2000/svg" xmlns:xlink="http://www.w3.org/1999/xlink" x="0px" y="0px" viewBox="0 0 60 51"
	 style="enable-background:new 0 0 60 51;" xml:space="preserve">
<style type="text/css">
	.st0{fill:#3A4A9F;}
</style>
<metadata>
	<sfw  xmlns="&ns_sfw;">
		<slices></slices>
		<sliceSourceBounds  bottomLeftOrigin="true" height="51" width="60" x="0" y="0"></sliceSourceBounds>
	</sfw>
</metadata>
<path id="Path_14319" class="st0" d="M50,0H10C4.5,0,0,4.5,0,10v20c0,5.5,4.5,10,10,10h21.7c0,2-0.2,4-0.7,5.9
	c-0.4,1.8-1.1,3.5-1.9,5.1l0,0c4.5-0.4,8.6-2.5,11.6-5.8c1.4-1.5,2.5-3.3,3.3-5.2h6c5.5,0,10-4.5,10-10V10C60,4.5,55.5,0,50,0z
	 M21.1,21.7c1.2-1.2,2.6-2.1,4.2-2.8c-3.3-2.6-3.8-7.3-1.2-10.6s7.3-3.8,10.6-1.2s3.8,7.3,1.2,10.6c-0.4,0.5-0.8,0.9-1.2,1.2
	c4.7,1.9,7.9,6.5,7.9,11.6H17.5C17.5,27.2,18.8,24.1,21.1,21.7L21.1,21.7z"/>
</svg>
