<?xml version="1.0" encoding="utf-8"?>
<!-- Generator: Adobe Illustrator 25.4.1, SVG Export Plug-In . SVG Version: 6.00 Build 0)  -->
<!DOCTYPE svg PUBLIC "-//W3C//DTD SVG 1.1//EN" "http://www.w3.org/Graphics/SVG/1.1/DTD/svg11.dtd" [
	<!ENTITY ns_extend "http://ns.adobe.com/Extensibility/1.0/">
	<!ENTITY ns_ai "http://ns.adobe.com/AdobeIllustrator/10.0/">
	<!ENTITY ns_graphs "http://ns.adobe.com/Graphs/1.0/">
	<!ENTITY ns_vars "http://ns.adobe.com/Variables/1.0/">
	<!ENTITY ns_imrep "http://ns.adobe.com/ImageReplacement/1.0/">
	<!ENTITY ns_sfw "http://ns.adobe.com/SaveForWeb/1.0/">
	<!ENTITY ns_custom "http://ns.adobe.com/GenericCustomNamespace/1.0/">
	<!ENTITY ns_adobe_xpath "http://ns.adobe.com/XPath/1.0/">
]>
<svg version="1.1" id="Layer_1" xmlns:x="&ns_extend;" xmlns:i="&ns_ai;" xmlns:graph="&ns_graphs;"
	 xmlns="http://www.w3.org/2000/svg" xmlns:xlink="http://www.w3.org/1999/xlink" x="0px" y="0px" viewBox="0 0 65.3 65"
	 style="enable-background:new 0 0 65.3 65;" xml:space="preserve">
<style type="text/css">
	.st0{fill:#3A4A9F;}
</style>
<metadata>
	<sfw  xmlns="&ns_sfw;">
		<slices></slices>
		<sliceSourceBounds  bottomLeftOrigin="true" height="65" width="65.2" x="0" y="0"></sliceSourceBounds>
	</sfw>
</metadata>
<path id="Path_14320" class="st0" d="M60.3,0H35c-2.8,0-5,2.2-5,5v10.9c-7.8-2.8-16.4,1.3-19.1,9.1c-2.2,6.1-0.2,12.8,4.9,16.8
	C6.3,45.6,0,54.8,0,65h50c0-6.6-2.6-13-7.3-17.6c-2.4-2.4-5.3-4.3-8.4-5.5c5.5-4.3,7.3-12,4.2-18.3h10.1c0,1.2-0.1,2.3-0.4,3.5
	c-0.2,1-0.6,2-1.1,3l0,0c2.6-0.2,5.1-1.5,6.8-3.4c0.8-0.9,1.5-1.9,1.9-3h4.4c2.8,0,5-2.2,5-5V5C65.3,2.2,63.1,0,60.3,0z M53.1,12
	c-0.6,0.9-1,1.9-1.2,3v0.2c-0.1,0.9-0.3,1.8-0.6,2.6C51,18.5,50.6,19,50.1,19H50c-0.5,0-0.9-0.4-1.2-1.3c-0.3-0.8-0.4-1.6-0.5-2.4
	c0-0.4-0.2-0.8-0.4-1.2c0,0,0,0-0.1-0.1s-0.3-0.1-0.4,0.1c-0.2,0.4-0.4,0.8-0.4,1.2c-0.1,0.8-0.3,1.6-0.5,2.4
	c-0.3,0.9-0.8,1.4-1.3,1.3c-0.5,0-0.9-0.5-1.2-1.2c-0.3-0.8-0.5-1.7-0.6-2.6c0-0.1,0-0.1,0-0.2c-0.2-1.1-0.6-2.1-1.2-3
	c-0.9-1.3-1.2-3-0.7-4.5c0.3-1,1.1-1.9,2.2-2.3c2.6,0.7,5.4,0.7,8,0c1,0.4,1.8,1.2,2.2,2.3C54.3,9,54,10.7,53.1,12L53.1,12z"/>
</svg>
