<?xml version="1.0" encoding="utf-8"?>
<!-- Generator: Adobe Illustrator 25.4.1, SVG Export Plug-In . SVG Version: 6.00 Build 0)  -->
<!DOCTYPE svg PUBLIC "-//W3C//DTD SVG 1.1//EN" "http://www.w3.org/Graphics/SVG/1.1/DTD/svg11.dtd" [
	<!ENTITY ns_extend "http://ns.adobe.com/Extensibility/1.0/">
	<!ENTITY ns_ai "http://ns.adobe.com/AdobeIllustrator/10.0/">
	<!ENTITY ns_graphs "http://ns.adobe.com/Graphs/1.0/">
	<!ENTITY ns_vars "http://ns.adobe.com/Variables/1.0/">
	<!ENTITY ns_imrep "http://ns.adobe.com/ImageReplacement/1.0/">
	<!ENTITY ns_sfw "http://ns.adobe.com/SaveForWeb/1.0/">
	<!ENTITY ns_custom "http://ns.adobe.com/GenericCustomNamespace/1.0/">
	<!ENTITY ns_adobe_xpath "http://ns.adobe.com/XPath/1.0/">
]>
<svg version="1.1" id="Layer_1" xmlns:x="&ns_extend;" xmlns:i="&ns_ai;" xmlns:graph="&ns_graphs;"
	 xmlns="http://www.w3.org/2000/svg" xmlns:xlink="http://www.w3.org/1999/xlink" x="0px" y="0px" viewBox="0 0 63.9 61"
	 style="enable-background:new 0 0 63.9 61;" xml:space="preserve">
<style type="text/css">
	.st0{fill:#3A4A9F;}
</style>
<metadata>
	<sfw  xmlns="&ns_sfw;">
		<slices></slices>
		<sliceSourceBounds  bottomLeftOrigin="true" height="61.1" width="64" x="-0.1" y="0"></sliceSourceBounds>
	</sfw>
</metadata>
<g id="Group_20664" transform="translate(-568.362 -569.651)">
	<circle id="Ellipse_627" class="st0" cx="606.4" cy="625.7" r="5"/>
	<path id="Path_14317" class="st0" d="M632.3,589.7c0-11-8.9-20-20-20c-3.8,0-7.6,1.1-10.8,3.1c-6.5-5.1-15.9-3.9-21,2.6
		c-1.2,1.6-2.1,3.3-2.6,5.3c-7.7,3-11.6,11.7-8.6,19.4c2.7,7,10.1,10.9,17.4,9.2c5.6,5.6,14.7,5.9,20.6,0.5c0.1,4.4,3.7,7.9,8.1,7.9
		c4.4-0.1,7.9-3.7,7.9-8.1c0-1-0.2-2-0.6-2.9C628.7,603,632.3,596.6,632.3,589.7z"/>
</g>
</svg>
