<?xml version="1.0" encoding="utf-8"?>
<!-- Generator: Adobe Illustrator 25.4.1, SVG Export Plug-In . SVG Version: 6.00 Build 0)  -->
<!DOCTYPE svg PUBLIC "-//W3C//DTD SVG 1.1//EN" "http://www.w3.org/Graphics/SVG/1.1/DTD/svg11.dtd" [
	<!ENTITY ns_extend "http://ns.adobe.com/Extensibility/1.0/">
	<!ENTITY ns_ai "http://ns.adobe.com/AdobeIllustrator/10.0/">
	<!ENTITY ns_graphs "http://ns.adobe.com/Graphs/1.0/">
	<!ENTITY ns_vars "http://ns.adobe.com/Variables/1.0/">
	<!ENTITY ns_imrep "http://ns.adobe.com/ImageReplacement/1.0/">
	<!ENTITY ns_sfw "http://ns.adobe.com/SaveForWeb/1.0/">
	<!ENTITY ns_custom "http://ns.adobe.com/GenericCustomNamespace/1.0/">
	<!ENTITY ns_adobe_xpath "http://ns.adobe.com/XPath/1.0/">
]>
<svg version="1.1" id="Layer_1" xmlns:x="&ns_extend;" xmlns:i="&ns_ai;" xmlns:graph="&ns_graphs;"
	 xmlns="http://www.w3.org/2000/svg" xmlns:xlink="http://www.w3.org/1999/xlink" x="0px" y="0px" viewBox="0 0 56.7 54"
	 style="enable-background:new 0 0 56.7 54;" xml:space="preserve">
<style type="text/css">
	.st0{fill:#3A4A9F;}
</style>
<metadata>
	<sfw  xmlns="&ns_sfw;">
		<slices></slices>
		<sliceSourceBounds  bottomLeftOrigin="true" height="54" width="56.7" x="0" y="0"></sliceSourceBounds>
	</sfw>
</metadata>
<g id="Group_20945" transform="translate(-570.32 -572.023)">
	<path id="Path_14325" class="st0" d="M607.6,581.4l0.6,9c0.1,2,1.2,3.8,3,4.9c6,3.7,5.7,3.7,6.1,3.7s0.2,0,6.1-3.7
		c1.7-1.1,2.8-2.9,3-4.9l0.7-9c0-0.4-0.2-0.7-0.5-0.8c-5.8-3-12.7-3-18.4,0C607.8,580.7,607.6,581,607.6,581.4z M614.1,586.6
		l2.3,2.3l4.1-4.1l1.2,1.2l-4.8,4.7c-0.3,0.3-0.9,0.3-1.2,0l-2.9-2.9L614.1,586.6z"/>
	<path id="Path_14326" class="st0" d="M614.2,600.7c-0.8-0.5-2.2-1.4-4.5-2.9l0,0c-2.5-1.6-4.1-4.3-4.3-7.2l0,0l-0.6-9
		c-0.1-1.6,0.7-3.1,2.1-3.8c2.5-1.3,5.2-2.1,7.9-2.4c-1.3-1.1-2.8-2-4.4-2.6c-5.2-1.6-10.8-0.8-15.4,2.1c-4.6-2.9-10.2-3.7-15.4-2.1
		c-4,1.4-7.1,4.6-8.3,8.7c-1.9,5.9-0.9,12.4,2.6,17.5c2.4,3.4,3.9,7.4,4.5,11.5l0.1,0.7c0.4,3.4,1.2,6.8,2.4,10.1
		c1.2,2.9,2.8,4.5,4.8,4.7s3.7-1.5,5-5c1-3,1.7-6.2,2-9.3c0.1-1.6,0.6-3.2,1.5-4.6c0.3-0.4,0.9-0.6,1.4-0.2l0,0
		c0.1,0.1,0.2,0.1,0.2,0.2c0.9,1.4,1.4,3,1.5,4.6c0.3,3.2,1,6.3,2,9.3c1.2,3.3,2.8,5,4.7,5c0.1,0,0.2,0,0.3,0
		c1.9-0.2,3.5-1.8,4.8-4.7c1.2-3.2,2-6.6,2.4-10.1c0-0.2,0.1-0.5,0.1-0.7c0.5-3.3,1.6-6.5,3.2-9.4L614.2,600.7z"/>
</g>
</svg>
