<?xml version="1.0" encoding="utf-8"?>
<!-- Generator: Adobe Illustrator 25.4.1, SVG Export Plug-In . SVG Version: 6.00 Build 0)  -->
<!DOCTYPE svg PUBLIC "-//W3C//DTD SVG 1.1//EN" "http://www.w3.org/Graphics/SVG/1.1/DTD/svg11.dtd" [
	<!ENTITY ns_extend "http://ns.adobe.com/Extensibility/1.0/">
	<!ENTITY ns_ai "http://ns.adobe.com/AdobeIllustrator/10.0/">
	<!ENTITY ns_graphs "http://ns.adobe.com/Graphs/1.0/">
	<!ENTITY ns_vars "http://ns.adobe.com/Variables/1.0/">
	<!ENTITY ns_imrep "http://ns.adobe.com/ImageReplacement/1.0/">
	<!ENTITY ns_sfw "http://ns.adobe.com/SaveForWeb/1.0/">
	<!ENTITY ns_custom "http://ns.adobe.com/GenericCustomNamespace/1.0/">
	<!ENTITY ns_adobe_xpath "http://ns.adobe.com/XPath/1.0/">
]>
<svg version="1.1" id="Layer_1" xmlns:x="&ns_extend;" xmlns:i="&ns_ai;" xmlns:graph="&ns_graphs;"
	 xmlns="http://www.w3.org/2000/svg" xmlns:xlink="http://www.w3.org/1999/xlink" x="0px" y="0px" viewBox="0 0 48 62"
	 style="enable-background:new 0 0 48 62;" xml:space="preserve">
<style type="text/css">
	.st0{fill:#3A4A9F;}
</style>
<metadata>
	<sfw  xmlns="&ns_sfw;">
		<slices></slices>
		<sliceSourceBounds  bottomLeftOrigin="true" height="62" width="48" x="0" y="0"></sliceSourceBounds>
	</sfw>
</metadata>
<path id="Path_14338" class="st0" d="M48,30L38,15L48,0H15c-1.7,0-3,1.3-3,3v53H3c-1.7,0-3,1.3-3,3s1.3,3,3,3h24c1.7,0,3-1.3,3-3
	s-1.3-3-3-3h-9V30H48z M21.3,11.5c0.3-1.1,1.1-1.9,2.2-2.3c2.6,0.7,5.4,0.7,8,0c1,0.4,1.8,1.2,2.2,2.3c0.5,1.5,0.2,3.2-0.7,4.5
	c-0.6,0.9-1,1.9-1.2,3c0,0.1,0,0.1,0,0.2c-0.1,0.9-0.3,1.8-0.6,2.6C30.9,22.6,30.5,23,30,23h-0.1c-0.5,0-0.9-0.4-1.2-1.3
	c-0.3-0.8-0.4-1.6-0.5-2.4c0-0.4-0.2-0.8-0.4-1.2c0,0,0,0-0.1-0.1s-0.3-0.1-0.4,0.1l0,0c-0.2,0.4-0.4,0.8-0.4,1.2
	c-0.1,0.8-0.3,1.6-0.5,2.4c-0.3,0.9-0.8,1.4-1.3,1.3c-0.5,0-0.9-0.5-1.2-1.2c-0.3-0.8-0.5-1.7-0.6-2.6c0-0.1,0-0.1,0-0.2
	c-0.2-1.1-0.6-2.1-1.2-3C21,14.7,20.8,13,21.3,11.5L21.3,11.5z"/>
</svg>
