<?xml version="1.0" encoding="utf-8"?>
<!-- Generator: Adobe Illustrator 25.4.1, SVG Export Plug-In . SVG Version: 6.00 Build 0)  -->
<!DOCTYPE svg PUBLIC "-//W3C//DTD SVG 1.1//EN" "http://www.w3.org/Graphics/SVG/1.1/DTD/svg11.dtd" [
	<!ENTITY ns_extend "http://ns.adobe.com/Extensibility/1.0/">
	<!ENTITY ns_ai "http://ns.adobe.com/AdobeIllustrator/10.0/">
	<!ENTITY ns_graphs "http://ns.adobe.com/Graphs/1.0/">
	<!ENTITY ns_vars "http://ns.adobe.com/Variables/1.0/">
	<!ENTITY ns_imrep "http://ns.adobe.com/ImageReplacement/1.0/">
	<!ENTITY ns_sfw "http://ns.adobe.com/SaveForWeb/1.0/">
	<!ENTITY ns_custom "http://ns.adobe.com/GenericCustomNamespace/1.0/">
	<!ENTITY ns_adobe_xpath "http://ns.adobe.com/XPath/1.0/">
]>
<svg version="1.1" id="Layer_1" xmlns:x="&ns_extend;" xmlns:i="&ns_ai;" xmlns:graph="&ns_graphs;"
	 xmlns="http://www.w3.org/2000/svg" xmlns:xlink="http://www.w3.org/1999/xlink" x="0px" y="0px" viewBox="0 0 72.8 80"
	 style="enable-background:new 0 0 72.8 80;" xml:space="preserve">
<style type="text/css">
	.st0{fill:#3A4A9F;}
</style>
<metadata>
	<sfw  xmlns="&ns_sfw;">
		<slices></slices>
		<sliceSourceBounds  bottomLeftOrigin="true" height="80" width="72.8" x="-0.1" y="0.1"></sliceSourceBounds>
	</sfw>
</metadata>
<g id="Group_20947" transform="translate(-563.754 -559.284)">
	<path id="Path_14330" class="st0" d="M636.5,579.7c-0.2-2.2-0.6-4.3-1.3-6.4c-2.2-6.4-6.7-11.1-12.3-12.9c-7.7-2.4-16-1.2-22.8,3.1
		c-6.8-4.3-15.1-5.5-22.8-3.1c-5.6,1.8-10.1,6.5-12.3,12.9c-0.7,2.1-1.1,4.2-1.3,6.4H636.5z"/>
	<path id="Path_14331" class="st0" d="M564.6,589.7c0.9,3.4,2.4,6.6,4.4,9.5c3.5,5.1,5.8,10.9,6.7,17c0,0.3,0.1,0.7,0.1,1
		c0.5,5.1,1.7,10.1,3.5,14.9c1.8,4.4,4.2,6.7,7,7c3,0.3,5.5-2.2,7.4-7.4c1.5-4.5,2.5-9.1,3-13.8c0.2-2.4,0.9-4.8,2.2-6.9
		c0.5-0.7,1.4-0.8,2-0.3l0,0c0.1,0.1,0.2,0.2,0.3,0.3c1.3,2.1,2,4.4,2.2,6.9c0.5,4.7,1.5,9.3,3,13.8c1.8,5,4.1,7.5,6.9,7.5
		c0.2,0,0.3,0,0.5,0c2.8-0.3,5.2-2.6,7-7c1.8-4.8,3-9.8,3.5-14.9c0-0.3,0.1-0.7,0.1-1c0.9-6.1,3.2-12,6.7-17.1
		c2-2.9,3.5-6.1,4.4-9.5H564.6z"/>
</g>
</svg>
