<?xml version="1.0" encoding="utf-8"?>
<!-- Generator: Adobe Illustrator 25.4.1, SVG Export Plug-In . SVG Version: 6.00 Build 0)  -->
<!DOCTYPE svg PUBLIC "-//W3C//DTD SVG 1.1//EN" "http://www.w3.org/Graphics/SVG/1.1/DTD/svg11.dtd" [
	<!ENTITY ns_extend "http://ns.adobe.com/Extensibility/1.0/">
	<!ENTITY ns_ai "http://ns.adobe.com/AdobeIllustrator/10.0/">
	<!ENTITY ns_graphs "http://ns.adobe.com/Graphs/1.0/">
	<!ENTITY ns_vars "http://ns.adobe.com/Variables/1.0/">
	<!ENTITY ns_imrep "http://ns.adobe.com/ImageReplacement/1.0/">
	<!ENTITY ns_sfw "http://ns.adobe.com/SaveForWeb/1.0/">
	<!ENTITY ns_custom "http://ns.adobe.com/GenericCustomNamespace/1.0/">
	<!ENTITY ns_adobe_xpath "http://ns.adobe.com/XPath/1.0/">
]>
<svg version="1.1" id="Layer_1" xmlns:x="&ns_extend;" xmlns:i="&ns_ai;" xmlns:graph="&ns_graphs;"
	 xmlns="http://www.w3.org/2000/svg" xmlns:xlink="http://www.w3.org/1999/xlink" x="0px" y="0px" viewBox="0 0 80 97.3"
	 style="enable-background:new 0 0 80 97.3;" xml:space="preserve">
<style type="text/css">
	.st0{fill:#3A4A9F;}
</style>
<metadata>
	<sfw  xmlns="&ns_sfw;">
		<slices></slices>
		<sliceSourceBounds  bottomLeftOrigin="true" height="97.3" width="80" x="0" y="0"></sliceSourceBounds>
	</sfw>
</metadata>
<path id="Path_14327" class="st0" d="M70,0H10C4.5,0,0,4.5,0,10v30c0,17,10.7,32.1,26.7,37.7V84l0,0c0,7.4,6,13.3,13.3,13.3l0,0l0,0
	c7.4,0,13.3-6,13.3-13.3l0,0v-6.3C69.3,72.1,80,57,80,40V10C80,4.5,75.5,0,70,0z M70.2,38.1c0,16.7-13.5,30.2-30.2,30.2
	S9.8,54.8,9.8,38.1V19.2c0-4.1,3.4-7.5,7.5-7.5s7.5,3.4,7.5,7.5v18.9c0,8.4,6.8,15.2,15.2,15.2s15.2-6.8,15.2-15.2V19.2
	c0-4.1,3.4-7.5,7.5-7.5s7.5,3.4,7.5,7.5V38.1z"/>
</svg>
