<?xml version="1.0" encoding="utf-8"?>
<!-- Generator: Adobe Illustrator 25.4.1, SVG Export Plug-In . SVG Version: 6.00 Build 0)  -->
<!DOCTYPE svg PUBLIC "-//W3C//DTD SVG 1.1//EN" "http://www.w3.org/Graphics/SVG/1.1/DTD/svg11.dtd" [
	<!ENTITY ns_extend "http://ns.adobe.com/Extensibility/1.0/">
	<!ENTITY ns_ai "http://ns.adobe.com/AdobeIllustrator/10.0/">
	<!ENTITY ns_graphs "http://ns.adobe.com/Graphs/1.0/">
	<!ENTITY ns_vars "http://ns.adobe.com/Variables/1.0/">
	<!ENTITY ns_imrep "http://ns.adobe.com/ImageReplacement/1.0/">
	<!ENTITY ns_sfw "http://ns.adobe.com/SaveForWeb/1.0/">
	<!ENTITY ns_custom "http://ns.adobe.com/GenericCustomNamespace/1.0/">
	<!ENTITY ns_adobe_xpath "http://ns.adobe.com/XPath/1.0/">
]>
<svg version="1.1" id="Layer_1" xmlns:x="&ns_extend;" xmlns:i="&ns_ai;" xmlns:graph="&ns_graphs;"
	 xmlns="http://www.w3.org/2000/svg" xmlns:xlink="http://www.w3.org/1999/xlink" x="0px" y="0px" viewBox="0 0 53 53"
	 style="enable-background:new 0 0 53 53;" xml:space="preserve">
<style type="text/css">
	.st0{fill:#3A4A9F;}
</style>
<metadata>
	<sfw  xmlns="&ns_sfw;">
		<slices></slices>
		<sliceSourceBounds  bottomLeftOrigin="true" height="53" width="53" x="0" y="0"></sliceSourceBounds>
	</sfw>
</metadata>
<path class="st0" d="M38,27H26V15c0-1.1-0.9-2-2-2h-8c-1.1,0-2,0.9-2,2v12H2c-1.1,0-2,0.9-2,2v8c0,1.1,0.9,2,2,2h12v12
	c0,1.1,0.9,2,2,2h8c1.1,0,2-0.9,2-2V39h12c1.1,0,2-0.9,2-2v-8C40,27.9,39.1,27,38,27z"/>
<path class="st0" d="M52,7h-6V1c0-0.6-0.4-1-1-1h-4c-0.6,0-1,0.4-1,1v6h-6c-0.6,0-1,0.4-1,1v4c0,0.6,0.4,1,1,1h6v6c0,0.6,0.4,1,1,1
	h4c0.6,0,1-0.4,1-1v-6h6c0.6,0,1-0.4,1-1V8C53,7.4,52.6,7,52,7z"/>
</svg>
