<?xml version="1.0" encoding="utf-8"?>
<!-- Generator: Adobe Illustrator 25.4.1, SVG Export Plug-In . SVG Version: 6.00 Build 0)  -->
<!DOCTYPE svg PUBLIC "-//W3C//DTD SVG 1.1//EN" "http://www.w3.org/Graphics/SVG/1.1/DTD/svg11.dtd" [
	<!ENTITY ns_extend "http://ns.adobe.com/Extensibility/1.0/">
	<!ENTITY ns_ai "http://ns.adobe.com/AdobeIllustrator/10.0/">
	<!ENTITY ns_graphs "http://ns.adobe.com/Graphs/1.0/">
	<!ENTITY ns_vars "http://ns.adobe.com/Variables/1.0/">
	<!ENTITY ns_imrep "http://ns.adobe.com/ImageReplacement/1.0/">
	<!ENTITY ns_sfw "http://ns.adobe.com/SaveForWeb/1.0/">
	<!ENTITY ns_custom "http://ns.adobe.com/GenericCustomNamespace/1.0/">
	<!ENTITY ns_adobe_xpath "http://ns.adobe.com/XPath/1.0/">
]>
<svg version="1.1" id="Layer_1" xmlns:x="&ns_extend;" xmlns:i="&ns_ai;" xmlns:graph="&ns_graphs;"
	 xmlns="http://www.w3.org/2000/svg" xmlns:xlink="http://www.w3.org/1999/xlink" x="0px" y="0px" viewBox="0 0 80 44.4"
	 style="enable-background:new 0 0 80 44.4;" xml:space="preserve">
<style type="text/css">
	.st0{fill:#3A4A9F;}
</style>
<metadata>
	<sfw  xmlns="&ns_sfw;">
		<slices></slices>
		<sliceSourceBounds  bottomLeftOrigin="true" height="44.4" width="80" x="0" y="0"></sliceSourceBounds>
	</sfw>
</metadata>
<path id="Path_14318" class="st0" d="M73.5,28.7c-2.1-2.1-4.7-3.8-7.5-4.9c5.8-4.6,6.8-12.9,2.2-18.7S55.3-1.7,49.5,2.8
	s-6.8,12.9-2.2,18.7c0.7,0.8,1.4,1.6,2.2,2.2c-3.8,1.5-7.1,4-9.5,7.3c-2.4-3.3-5.7-5.8-9.5-7.3c5.8-4.6,6.8-12.9,2.2-18.7
	S19.8-1.7,14,2.8s-6.8,12.9-2.2,18.7c0.7,0.8,1.4,1.6,2.2,2.2C5.5,27.2,0,35.3,0,44.4h80C80,38.5,77.7,32.9,73.5,28.7z"/>
</svg>
