<?xml version="1.0" encoding="utf-8"?>
<!-- Generator: Adobe Illustrator 25.4.1, SVG Export Plug-In . SVG Version: 6.00 Build 0)  -->
<!DOCTYPE svg PUBLIC "-//W3C//DTD SVG 1.1//EN" "http://www.w3.org/Graphics/SVG/1.1/DTD/svg11.dtd" [
	<!ENTITY ns_extend "http://ns.adobe.com/Extensibility/1.0/">
	<!ENTITY ns_ai "http://ns.adobe.com/AdobeIllustrator/10.0/">
	<!ENTITY ns_graphs "http://ns.adobe.com/Graphs/1.0/">
	<!ENTITY ns_vars "http://ns.adobe.com/Variables/1.0/">
	<!ENTITY ns_imrep "http://ns.adobe.com/ImageReplacement/1.0/">
	<!ENTITY ns_sfw "http://ns.adobe.com/SaveForWeb/1.0/">
	<!ENTITY ns_custom "http://ns.adobe.com/GenericCustomNamespace/1.0/">
	<!ENTITY ns_adobe_xpath "http://ns.adobe.com/XPath/1.0/">
]>
<svg version="1.1" id="Layer_1" xmlns:x="&ns_extend;" xmlns:i="&ns_ai;" xmlns:graph="&ns_graphs;"
	 xmlns="http://www.w3.org/2000/svg" xmlns:xlink="http://www.w3.org/1999/xlink" x="0px" y="0px" viewBox="0 0 51.5 59.9"
	 style="enable-background:new 0 0 51.5 59.9;" xml:space="preserve">
<style type="text/css">
	.st0{fill:#000064;}
</style>
<metadata>
	<sfw  xmlns="&ns_sfw;">
		<slices></slices>
		<sliceSourceBounds  bottomLeftOrigin="true" height="59.9" width="48.9" x="1.6" y="0"></sliceSourceBounds>
	</sfw>
</metadata>
<g>
	<g id="Group_20733" transform="translate(-479.141 -20.073)">
		<path id="Path_14235" class="st0" d="M497.6,45.1c5,0.8,10,0.8,15,0v-3.6c0-5.1,2.8-6.9,2.8-11.1c0-5.7-4.6-10.3-10.3-10.3
			s-10.3,4.6-10.3,10.3c0,4.3,2.8,6.1,2.8,11.1L497.6,45.1L497.6,45.1z"/>
		<path id="Path_14236" class="st0" d="M525.6,46.3c-4.8,0.3-9.3,3.4-20.4,3.4s-15.6-3.1-20.4-3.4s-4.4,3.7-3.5,4.8
			c1.2,1.4,3.3,3.4,9.5,4.6c0.2,0-3.1,0.9-3.1,4.4v3.3c0,10.2,7.8,16.6,17.5,16.6l0,0c0,0,0,0,0.1,0c9.6,0,17.5-6.4,17.5-16.6v-3.3
			c0-3.4-3.3-4.3-3.1-4.4c6.2-1.2,8.3-3.2,9.5-4.6C530,50,530.3,46,525.6,46.3z M518.4,63.4c0,8.5-6.6,12.3-13.2,12.3h-0.1l0,0
			c-6.6,0-13.2-3.8-13.2-12.3v-1.9c0-0.8,0.6-1.4,1.4-1.4h4.1v2.6c0,1.6,1.4,3,7.6,3l0,0l0,0c6.2,0,7.6-1.3,7.6-3v-2.6h4.1
			c0.8,0,1.4,0.6,1.4,1.4L518.4,63.4z"/>
	</g>
</g>
</svg>
