<?xml version="1.0" encoding="utf-8"?>
<!-- Generator: Adobe Illustrator 25.4.1, SVG Export Plug-In . SVG Version: 6.00 Build 0)  -->
<!DOCTYPE svg PUBLIC "-//W3C//DTD SVG 1.1//EN" "http://www.w3.org/Graphics/SVG/1.1/DTD/svg11.dtd" [
	<!ENTITY ns_extend "http://ns.adobe.com/Extensibility/1.0/">
	<!ENTITY ns_ai "http://ns.adobe.com/AdobeIllustrator/10.0/">
	<!ENTITY ns_graphs "http://ns.adobe.com/Graphs/1.0/">
	<!ENTITY ns_vars "http://ns.adobe.com/Variables/1.0/">
	<!ENTITY ns_imrep "http://ns.adobe.com/ImageReplacement/1.0/">
	<!ENTITY ns_sfw "http://ns.adobe.com/SaveForWeb/1.0/">
	<!ENTITY ns_custom "http://ns.adobe.com/GenericCustomNamespace/1.0/">
	<!ENTITY ns_adobe_xpath "http://ns.adobe.com/XPath/1.0/">
]>
<svg version="1.1" id="Layer_1" xmlns:x="&ns_extend;" xmlns:i="&ns_ai;" xmlns:graph="&ns_graphs;"
	 xmlns="http://www.w3.org/2000/svg" xmlns:xlink="http://www.w3.org/1999/xlink" x="0px" y="0px" viewBox="0 0 56 66.3"
	 style="enable-background:new 0 0 56 66.3;" xml:space="preserve">
<style type="text/css">
	.st0{fill:none;}
	.st1{fill:#FFFFFF;}
	.st2{fill:#000064;}
</style>
<metadata>
	<sfw  xmlns="&ns_sfw;">
		<slices></slices>
		<sliceSourceBounds  bottomLeftOrigin="true" height="66.3" width="56" x="0" y="0"></sliceSourceBounds>
	</sfw>
</metadata>
<g id="Group_20745">
	<circle class="st0" cx="28" cy="28" r="28"/>
	<path class="st1" d="M56,28C56,12.5,43.5,0,28,0S0,12.5,0,28c0,10,5.3,19.3,14,24.3l0,0c0,7.7,6.3,14,14,14s14-6.3,14-14l0,0
		C50.7,47.2,56,38,56,28z M39.5,44.3C35.1,38,26.4,36.4,20,40.8c-1.4,1-2.6,2.1-3.5,3.5c-9-6.4-11.2-18.8-4.9-27.9
		s18.8-11.2,27.9-4.9s11.2,18.8,4.9,27.9C43.1,41.3,41.4,43,39.5,44.3z"/>
	<path class="st2" d="M0,38.3c0,15.5,12.6,28,28,28c15.5,0,28-12.6,28-28c0-10-5.3-19.2-14-24.2l0,0c0-7.7-6.3-14-14-14
		S14,6.3,14,14l0,0C5.3,19,0,28.3,0,38.3z M16.5,22c4.4,6.4,13.1,7.9,19.5,3.5c1.4-1,2.6-2.1,3.5-3.5c9,6.4,11.2,18.8,4.9,27.9
		s-18.8,11.2-27.9,4.9S5.3,35.9,11.6,26.9C12.9,25,14.6,23.3,16.5,22z"/>
</g>
</svg>
