<svg id="Layer_1" data-name="Layer 1" xmlns="http://www.w3.org/2000/svg" viewBox="0 0 110 110"><defs><style>.cls-1{fill:#fff;}</style></defs><g id="Group_20640" data-name="Group 20640"><g id="Group_20752" data-name="Group 20752"><path d="M30,58a10,10,0,0,0,0,20H90V75H30a7,7,0,0,1,0-14H90V58Z"/><path class="cls-1" d="M23,68a7,7,0,0,0,7,7A7,7,0,0,1,23,68Z"/><path class="cls-1" d="M30,61a7,7,0,0,0-7,7A7,7,0,0,1,30,61Z"/><path d="M26,68a4,4,0,0,0,4,4H87V64H30A4,4,0,0,0,26,68Z"/><path d="M78,33H28v3H78a7,7,0,0,1,0,14H28v3H78a10,10,0,0,0,0-20Z"/><path class="cls-1" d="M78,50a7,7,0,0,0,7-7A7,7,0,0,1,78,50Z"/><path class="cls-1" d="M85,43a7,7,0,0,0-7-7A7,7,0,0,1,85,43Z"/><path d="M78,47a4,4,0,0,0,0-8H31v8Z"/></g></g></svg>