<?xml version="1.0" encoding="utf-8"?>
<svg id="Layer_1" data-name="Layer 1" xmlns="http://www.w3.org/2000/svg" viewBox="0 0 110 110"><defs><style>.cls-1{fill:#969696;}</style></defs><path class="cls-1" d="M86.71,44.82l-45.84-20A10,10,0,0,0,27.71,30L18.12,52a10,10,0,0,0,5.17,13.16l45.84,20A10,10,0,0,0,82.29,80l9.59-22A10,10,0,0,0,86.71,44.82Zm-47,17.7L26.89,56.93a3,3,0,0,1,2.4-5.5L42.12,57a3,3,0,1,1-2.4,5.5Zm18.67-2.77-27.51-12a3,3,0,1,1,2.4-5.5l27.5,12a3,3,0,0,1-2.39,5.5ZM68.66,76.22a7,7,0,1,1,9.21-3.62A7,7,0,0,1,68.66,76.22Z"/><path d="M80,33H30A10,10,0,0,0,20,43V67A10,10,0,0,0,30,77H80A10,10,0,0,0,90,67V43A10,10,0,0,0,80,33ZM44,68H30a3,3,0,0,1,0-6H44a3,3,0,0,1,0,6ZM60,58H30a3,3,0,0,1,0-6H60a3,3,0,0,1,0,6ZM76,69a7,7,0,1,1,7-7A7,7,0,0,1,76,69Z"/></svg>