<?xml version="1.0" encoding="utf-8"?>
<svg id="Layer_1" data-name="Layer 1" xmlns="http://www.w3.org/2000/svg" viewBox="0 0 110 110"><defs><style>.cls-1{fill:#968c96;}.cls-2{fill:#c8c8c8;}</style></defs><g id="Group_20914" data-name="Group 20914"><path id="Path_14300" data-name="Path 14300" class="cls-1" d="M74.55,56.16c4.59-3.86,4.2-16.95-.84-13.46-7,4.85-14.19,10.1-18.83,12.82a123.11,123.11,0,0,1-21.53,9.77c-1.71.59-2.05.61-2,.9s.54.34,2,.25c10.19-.59,22.24-2.35,32.62-5.86,4.7-1.6,6.24-2.45,8.6-4.43"/><path id="Path_14301" data-name="Path 14301" d="M77,72.89C84.73,69.62,88.07,57,81.52,59.4a193.36,193.36,0,0,1-27.36,7.33,132.69,132.69,0,0,1-27.22,1.73c-1,0-1.8-.2-1.92.16s.55.61,1.64,1.11C35,73.55,49.06,76,64.19,75.26,71.11,74.93,74.38,74,77,72.89"/><path id="Path_14302" data-name="Path 14302" class="cls-2" d="M65.52,42.07c3.17-6.36-2.58-16-4.67-12.2-3.18,5.8-9.23,13.81-11.53,16.87a118,118,0,0,1-11.26,13c-.91.88-1.5,1.34-1.34,1.56s.62,0,1.58-.4A104.63,104.63,0,0,0,59.91,48.32c3.67-2.9,4.48-4,5.61-6.24"/></g></svg>