<?xml version="1.0" encoding="utf-8"?>
<svg id="Layer_1" data-name="Layer 1" xmlns="http://www.w3.org/2000/svg" viewBox="0 0 110 110"><defs><style>.cls-1{fill:#969696;}</style></defs><g id="Group_20733" data-name="Group 20733"><path id="Path_14235" data-name="Path 14235" d="M47.51,50.09a48.24,48.24,0,0,0,15,0V46.44c0-5.06,2.81-6.88,2.81-11.14a10.3,10.3,0,0,0-20.6,0c0,4.26,2.82,6.08,2.81,11.14Z"/><path id="Path_14236" data-name="Path 14236" d="M75.42,51.33c-4.78.32-9.3,3.44-20.42,3.44s-15.64-3.12-20.42-3.43-4.42,3.66-3.5,4.77c1.19,1.44,3.25,3.42,9.48,4.63.19,0-3.07.94-3.07,4.36v3.35C37.49,78.64,45.31,85,55,85h.1c9.65,0,17.47-6.36,17.47-16.55V65.1c0-3.43-3.27-4.33-3.07-4.36,6.22-1.21,8.29-3.19,9.47-4.63C79.84,55,80.2,51,75.42,51.33Zm-7.2,17.12c0,8.46-6.61,12.25-13.17,12.25H55c-6.55,0-13.17-3.79-13.17-12.25V66.54a1.46,1.46,0,0,1,1.44-1.44h4.13v2.55c0,1.64,1.44,3,7.6,3h.1c6.16,0,7.6-1.32,7.6-3V65.1h4.13a1.44,1.44,0,0,1,1.43,1.43Z"/></g><g id="Group_20733-2" data-name="Group 20733"><path id="Path_14235-2" data-name="Path 14235" class="cls-1" d="M51.55,46.73A47.73,47.73,0,0,0,64,55.13l2-3c2.84-4.19,6.18-4.12,8.58-7.66A10.3,10.3,0,0,0,57.51,32.91c-2.39,3.53-1.07,6.62-3.91,10.81Z"/><path id="Path_14236-2" data-name="Path 14236" class="cls-1" d="M74,63.4C69.83,61,64.34,61,55.13,54.81s-11.21-11.35-15-14.29-5.71.56-5.57,2c.17,1.86.78,4.65,5.26,9.14.14.14-3.07-.94-5,1.89L33,56.33c-5.71,8.43-2.8,18.09,5.2,23.49l0,0,.05,0c8,5.4,18,4.51,23.74-3.93l1.87-2.77c1.92-2.84-.28-5.41-.1-5.33,5.84,2.49,8.66,2,10.45,1.48C75.58,68.91,78.11,65.82,74,63.4ZM58.42,73.54c-4.75,7-12.35,6.45-17.78,2.78l0,0,0,0c-5.43-3.67-8.78-10.51-4-17.53l1.07-1.58a1.44,1.44,0,0,1,2-.38L43,59.08,41.58,61.2c-.92,1.35-.46,3.25,4.64,6.7l0,0,0,0c5.1,3.45,7,3.16,8,1.81l1.43-2.12L59.1,70a1.43,1.43,0,0,1,.38,2Z"/></g></svg>