<?xml version="1.0" encoding="utf-8"?>
<svg id="Layer_1" data-name="Layer 1" xmlns="http://www.w3.org/2000/svg" viewBox="0 0 110 110"><defs><style>.cls-1{fill:#969696;}</style></defs><g id="Group_20731" data-name="Group 20731"><g id="Group_20687" data-name="Group 20687"><path id="Path_14221" data-name="Path 14221" d="M76.93,39.83a12.34,12.34,0,0,0-7.68-8A17.1,17.1,0,0,0,55,33.72a17.1,17.1,0,0,0-14.25-1.93,12.35,12.35,0,0,0-7.69,8A18.35,18.35,0,0,0,35.49,56a25.35,25.35,0,0,1,4.19,10.64l.09.66A37.15,37.15,0,0,0,42,76.61c1.15,2.73,2.63,4.2,4.41,4.38s3.44-1.38,4.64-4.65a38.17,38.17,0,0,0,1.86-8.64,9.35,9.35,0,0,1,1.37-4.29.92.92,0,0,1,1.28-.22.77.77,0,0,1,.22.22,9.22,9.22,0,0,1,1.36,4.29A38.74,38.74,0,0,0,59,76.34C60.11,79.43,61.57,81,63.32,81h.3c1.77-.18,3.26-1.65,4.4-4.38a36.5,36.5,0,0,0,2.2-9.31q0-.33.09-.63A25.35,25.35,0,0,1,74.51,56,18.35,18.35,0,0,0,76.93,39.83Z"/></g></g><g id="Group_20731-2" data-name="Group 20731"><g id="Group_20687-2" data-name="Group 20687"><path id="Path_14221-2" data-name="Path 14221" class="cls-1" d="M82.19,54.11A12.35,12.35,0,0,0,80,43.2a17.16,17.16,0,0,0-13.07-6,17.11,17.11,0,0,0-11-9.26,12.32,12.32,0,0,0-10.8,2.67,18.35,18.35,0,0,0-6.61,14.95,25.37,25.37,0,0,1-2.17,11.23l-.27.6a36.72,36.72,0,0,0-3.14,9c-.49,2.92,0,5,1.37,6.06S38,73.16,40.74,71A38.1,38.1,0,0,0,47,64.75a9.23,9.23,0,0,1,3.46-2.89.9.9,0,0,1,1.19.5.78.78,0,0,1,.07.3A9.27,9.27,0,0,1,50.52,67a38.66,38.66,0,0,0-3.06,8.28c-.7,3.23-.3,5.33,1.17,6.27l.26.15c1.6.8,3.64.35,6.07-1.34a37.35,37.35,0,0,0,6.85-6.68c.13-.17.27-.33.41-.49a25.42,25.42,0,0,1,9.26-6.76A18.32,18.32,0,0,0,82.19,54.11Z"/></g></g></svg>