<svg id="Layer_1" data-name="Layer 1" xmlns="http://www.w3.org/2000/svg" viewBox="0 0 110 110"><path d="M76.86,38.84a12.26,12.26,0,0,0-7.63-8,17,17,0,0,0-14.16,1.92,17,17,0,0,0-14.16-1.92,12.28,12.28,0,0,0-7.63,8,18.23,18.23,0,0,0,2.41,16.06,25.15,25.15,0,0,1,4.16,10.57l.09.65a36.79,36.79,0,0,0,2.19,9.25c1.14,2.71,2.61,4.17,4.38,4.35s3.42-1.37,4.61-4.62a36.92,36.92,0,0,0,1.55-6.3,9.94,9.94,0,1,1,4.79,0A38.25,38.25,0,0,0,59,75.11c1.13,3.08,2.58,4.63,4.32,4.63h.29c1.77-.18,3.24-1.64,4.38-4.35a36.79,36.79,0,0,0,2.19-9.25c0-.21,0-.42.08-.63a25.4,25.4,0,0,1,4.18-10.61A18.24,18.24,0,0,0,76.86,38.84Z"/></svg>