<svg id="Layer_1" data-name="Layer 1" xmlns="http://www.w3.org/2000/svg" viewBox="0 0 110 110"><g id="Group_20692" data-name="Group 20692"><path d="M72.11,43.32H37.89a2.76,2.76,0,0,0-2.76,2.76L40.65,82a2.76,2.76,0,0,0,2.76,2.76H66.59A2.75,2.75,0,0,0,69.35,82l5.52-35.87A2.75,2.75,0,0,0,72.11,43.32ZM64.94,78.09a1.66,1.66,0,0,1-1.66,1.65H46.72a1.65,1.65,0,0,1-1.65-1.65L42.86,62.63A1.65,1.65,0,0,1,44.52,61h21a1.65,1.65,0,0,1,1.65,1.65Z"/><circle id="Ellipse_639" data-name="Ellipse 639" cx="46.72" cy="35.59" r="3.86"/><circle id="Ellipse_640" data-name="Ellipse 640" cx="59.42" cy="29.52" r="3.86"/></g></svg>