<?xml version="1.0" encoding="UTF-8"?><svg id="Layer_1" xmlns="http://www.w3.org/2000/svg" viewBox="0 0 16 16"><defs><style>.cls-1{fill:#9fa974;}</style></defs><g id="instagram"><path class="cls-1" d="M8,6.5c-.92,0-1.67,.75-1.67,1.67s.75,1.67,1.67,1.67,1.67-.75,1.67-1.67-.75-1.67-1.67-1.67Z"/><path class="cls-1" d="M11.91,5.22c-.17-.43-.52-.78-.95-.95-.66-.26-2.22-.2-2.95-.2s-2.29-.06-2.95,.2c-.43,.17-.77,.52-.95,.95-.26,.66-.2,2.22-.2,2.95s-.06,2.29,.2,2.95c.17,.43,.51,.78,.95,.95,.66,.26,2.22,.2,2.95,.2s2.29,.06,2.95-.2c.43-.17,.78-.52,.95-.95,.26-.66,.2-2.22,.2-2.95s.06-2.29-.2-2.95Zm-3.91,5.52c-1.42,0-2.57-1.15-2.57-2.57s1.15-2.57,2.57-2.57,2.57,1.15,2.57,2.57h0c0,1.42-1.14,2.57-2.56,2.57h0Zm2.67-4.64c-.33,0-.6-.27-.61-.6,0-.33,.27-.6,.6-.61,.33,0,.6,.27,.61,.6h0c0,.33-.26,.6-.59,.61h0Z"/><path class="cls-1" d="M8,.25C3.72,.25,.25,3.72,.25,8s3.47,7.75,7.75,7.75,7.75-3.47,7.75-7.75S12.28,.25,8,.25Zm4.98,9.99c-.04,.8-.22,1.51-.81,2.1s-1.29,.77-2.1,.81c-.83,.05-3.31,.05-4.13,0-.8-.04-1.51-.22-2.1-.81s-.77-1.29-.81-2.1c-.05-.83-.05-3.31,0-4.13,.04-.8,.22-1.52,.81-2.1s1.3-.77,2.1-.81c.83-.05,3.31-.05,4.13,0,.8,.04,1.51,.22,2.1,.81s.77,1.29,.81,2.1c.05,.83,.05,3.31,0,4.13Z"/></g></svg>