<svg id="Layer_1" data-name="Layer 1" xmlns="http://www.w3.org/2000/svg" viewBox="0 0 110 110"><defs><style>.cls-1{fill:none;}</style></defs><g id="Group_20695" data-name="Group 20695"><rect class="cls-1" x="41.2" y="33.93" width="27.6" height="22.08" rx="2.76"/><path d="M74.32,42.21H68.8V36.69A2.77,2.77,0,0,0,66,33.93H44a2.77,2.77,0,0,0-2.76,2.76v5.52H35.68A2.76,2.76,0,0,0,32.93,45v27.6a2.76,2.76,0,0,0,2.75,2.76H74.32a2.77,2.77,0,0,0,2.76-2.76V45A2.77,2.77,0,0,0,74.32,42.21ZM64.94,61.86a.55.55,0,0,1-.56.55H58.64v5.74a.55.55,0,0,1-.55.56H52.57a.56.56,0,0,1-.55-.56V62.41h-6.4a.54.54,0,0,1-.55-.55V56.34a.55.55,0,0,1,.55-.55H52v-6.4a.55.55,0,0,1,.55-.55h5.52a.54.54,0,0,1,.55.55v6.4h5.74a.56.56,0,0,1,.56.55Zm.55-19.65h-21v-5h21Z"/></g></svg>