<svg id="Layer_1" data-name="Layer 1" xmlns="http://www.w3.org/2000/svg" viewBox="0 0 110 110"><path id="Path_14307" data-name="Path 14307" d="M86.37,59.57h0c.42-.8.8-1.62,1.16-2.45l0-.09.29-.72.06-.15c.09-.23.18-.47.26-.7l0-.12c.2-.56.39-1.13.56-1.7,0,0,0-.08,0-.12.07-.24.14-.47.2-.71,0-.08,0-.15.07-.23s.11-.41.16-.62l.06-.25.15-.65c0-.07,0-.14,0-.21L89.7,50a5.61,5.61,0,0,0-4.46-6.56,5.33,5.33,0,0,0-1-.1H25.81a5.61,5.61,0,0,0-5.61,5.61,6.22,6.22,0,0,0,.1,1l0,.13c.05.23.09.47.14.7s.05.22.08.33l.12.52c0,.11.06.23.08.34s.09.34.14.51.05.22.09.33.11.38.16.57.05.17.08.25c.08.27.17.55.26.82l0,.09c.08.24.16.48.25.72l.08.23c.08.2.15.39.22.59a2.44,2.44,0,0,1,.1.24l.24.6a1.54,1.54,0,0,1,.08.19c.11.26.22.51.34.76v0c.24.54.5,1.08.78,1.61l.05.1.37.68.06.11.4.71,0,0c.45.78.93,1.53,1.45,2.27v0h0a35.34,35.34,0,0,0,60-3.08v0ZM55,73A29.75,29.75,0,0,1,30.28,59.81a22.56,22.56,0,0,1,24.72,0,22.58,22.58,0,0,1,24.73,0A29.77,29.77,0,0,1,55,73Z"/></svg>