<svg id="Layer_1" data-name="Layer 1" xmlns="http://www.w3.org/2000/svg" viewBox="0 0 110 110"><g id="Group_20687" data-name="Group 20687"><path id="Path_14221" data-name="Path 14221" d="M77,38.74a12.28,12.28,0,0,0-7.7-8,16.92,16.92,0,0,0-14.2,1.9,17.19,17.19,0,0,0-14.3-1.9,12.51,12.51,0,0,0-7.7,8,18.29,18.29,0,0,0,2.4,16.2,25.68,25.68,0,0,1,4.2,10.6c0,.2.1.4.1.7a37.08,37.08,0,0,0,2.2,9.3c1.1,2.7,2.6,4.2,4.4,4.4s3.4-1.4,4.6-4.6a36.8,36.8,0,0,0,1.9-8.6,9.51,9.51,0,0,1,1.4-4.3,1,1,0,0,1,1.3-.2c.1.1.2.1.2.2a9.51,9.51,0,0,1,1.4,4.3,36.8,36.8,0,0,0,1.9,8.6c1.1,3.1,2.6,4.7,4.3,4.7h.3c1.8-.2,3.3-1.7,4.4-4.4a37.08,37.08,0,0,0,2.2-9.3c0-.2.1-.4.1-.6A26.1,26.1,0,0,1,74.57,55,18.87,18.87,0,0,0,77,38.74Z"/></g></svg>