<svg id="Layer_1" data-name="Layer 1" xmlns="http://www.w3.org/2000/svg" viewBox="0 0 110 110"><g id="Group_20640" data-name="Group 20640"><g id="Group_20690" data-name="Group 20690"><path id="Path_14223" data-name="Path 14223" d="M47.43,39.93C47.43,31.7,55,22,55,22s7.58,9.7,7.58,17.93S55,51.79,55,51.79,47.43,48.15,47.43,39.93ZM37.91,61.44c6.59,4.93,14,1,14,1s1.62-8.24-5-13.17-18.9-4.66-18.9-4.66S31.32,56.52,37.91,61.44ZM59.39,63c2.44.86,7.81,2.07,12.7-1.59,6.59-4.92,9.83-16.8,9.83-16.8S69.62,44.38,63,49.3A13.21,13.21,0,0,0,57.88,60h0V71.37H30.55C30.55,80.58,41.58,88,55,88s24.45-7.42,24.45-16.63H59.39Z"/></g></g></svg>