<svg id="Layer_1" data-name="Layer 1" xmlns="http://www.w3.org/2000/svg" viewBox="0 0 110 110"><g id="Group_20640" data-name="Group 20640"><g id="Group_20769" data-name="Group 20769"><path id="Path_14245" data-name="Path 14245" d="M55,22.41a3.71,3.71,0,1,1,3.71-3.7h0A3.71,3.71,0,0,1,55,22.41Z"/><path id="Path_14246" data-name="Path 14246" d="M55,30.11a2.79,2.79,0,1,1,2.78-2.79h0A2.78,2.78,0,0,1,55,30.11Z"/><circle id="Ellipse_697" data-name="Ellipse 697" cx="55" cy="34.17" r="1.86"/><path id="Path_14247" data-name="Path 14247" d="M32,32a3.71,3.71,0,1,1,0-5.25h0A3.73,3.73,0,0,1,32,32Z"/><path id="Path_14248" data-name="Path 14248" d="M37.4,37.4a2.79,2.79,0,1,1,0-3.94A2.78,2.78,0,0,1,37.4,37.4Z"/><path id="Path_14249" data-name="Path 14249" d="M39,41.59a1.87,1.87,0,1,1,2.64,0,1.87,1.87,0,0,1-2.64,0Z"/><path id="Path_14250" data-name="Path 14250" d="M22.41,55a3.71,3.71,0,1,1-3.7-3.71A3.69,3.69,0,0,1,22.41,55Z"/><path id="Path_14251" data-name="Path 14251" d="M30.11,55a2.79,2.79,0,1,1-2.79-2.79A2.78,2.78,0,0,1,30.11,55Z"/><path id="Path_14252" data-name="Path 14252" d="M34.17,56.86A1.87,1.87,0,1,1,36,55a1.87,1.87,0,0,1-1.87,1.86Z"/><path id="Path_14253" data-name="Path 14253" d="M32,78a3.71,3.71,0,1,1-5.25,0A3.7,3.7,0,0,1,32,78Z"/><path id="Path_14254" data-name="Path 14254" d="M37.4,72.6a2.78,2.78,0,1,1-3.94,0,2.79,2.79,0,0,1,3.94,0Z"/><path id="Path_14255" data-name="Path 14255" d="M41.58,71.05a1.86,1.86,0,1,1,0-2.64,1.86,1.86,0,0,1,0,2.64Z"/><path id="Path_14256" data-name="Path 14256" d="M55,87.58a3.71,3.71,0,1,1-3.71,3.71A3.71,3.71,0,0,1,55,87.58Z"/><path id="Path_14257" data-name="Path 14257" d="M55,79.89a2.78,2.78,0,1,1-2.79,2.78h0A2.79,2.79,0,0,1,55,79.89Z"/><path id="Path_14258" data-name="Path 14258" d="M56.86,75.83A1.86,1.86,0,1,1,55,74,1.87,1.87,0,0,1,56.86,75.83Z"/><path id="Path_14259" data-name="Path 14259" d="M78,78a3.71,3.71,0,1,1,0,5.24A3.7,3.7,0,0,1,78,78Z"/><path id="Path_14260" data-name="Path 14260" d="M72.6,72.6a2.78,2.78,0,1,1,0,3.94,2.8,2.8,0,0,1,0-3.94Z"/><path id="Path_14261" data-name="Path 14261" d="M71,68.41a1.86,1.86,0,1,1-2.63,0A1.86,1.86,0,0,1,71,68.41Z"/><path id="Path_14262" data-name="Path 14262" d="M87.58,55a3.71,3.71,0,1,1,3.71,3.71h0A3.73,3.73,0,0,1,87.58,55Z"/><path id="Path_14263" data-name="Path 14263" d="M79.89,55a2.78,2.78,0,1,1,2.78,2.79A2.78,2.78,0,0,1,79.89,55Z"/><path id="Path_14264" data-name="Path 14264" d="M75.83,53.14A1.86,1.86,0,1,1,74,55a1.87,1.87,0,0,1,1.87-1.86Z"/><path id="Path_14265" data-name="Path 14265" d="M78,32a3.71,3.71,0,1,1,5.24,0h0A3.72,3.72,0,0,1,78,32Z"/><path id="Path_14266" data-name="Path 14266" d="M72.6,37.4a2.78,2.78,0,1,1,3.94,0,2.79,2.79,0,0,1-3.94,0Z"/><path id="Path_14267" data-name="Path 14267" d="M68.41,39a1.87,1.87,0,1,1,0,2.64A1.87,1.87,0,0,1,68.41,39Z"/><path id="Path_14268" data-name="Path 14268" d="M42.82,24.78a3.71,3.71,0,1,1,2-4.83A3.73,3.73,0,0,1,42.82,24.78Z"/><path id="Path_14269" data-name="Path 14269" d="M45.7,31.91a2.78,2.78,0,1,1,1.54-3.62A2.78,2.78,0,0,1,45.7,31.91Z"/><circle id="Ellipse_698" data-name="Ellipse 698" cx="47.21" cy="35.68" r="1.86"/><path id="Path_14270" data-name="Path 14270" d="M25,42.24a3.71,3.71,0,1,1-2-4.86h0A3.71,3.71,0,0,1,25,42.24Z"/><path id="Path_14271" data-name="Path 14271" d="M32.1,45.25a2.79,2.79,0,1,1-1.47-3.65h0A2.79,2.79,0,0,1,32.1,45.25Z"/><path id="Path_14272" data-name="Path 14272" d="M35.1,48.55a1.86,1.86,0,1,1,2.45-1h0A1.86,1.86,0,0,1,35.1,48.55Z"/><path id="Path_14273" data-name="Path 14273" d="M24.78,67.18A3.71,3.71,0,1,1,20,65.12,3.71,3.71,0,0,1,24.78,67.18Z"/><path id="Path_14274" data-name="Path 14274" d="M31.91,64.3a2.78,2.78,0,1,1-3.62-1.55A2.78,2.78,0,0,1,31.91,64.3Z"/><path id="Path_14275" data-name="Path 14275" d="M36.37,64.51a1.86,1.86,0,1,1,1-2.42A1.87,1.87,0,0,1,36.37,64.51Z"/><path id="Path_14276" data-name="Path 14276" d="M42.24,85a3.71,3.71,0,1,1-4.87,2A3.72,3.72,0,0,1,42.24,85Z"/><path id="Path_14277" data-name="Path 14277" d="M45.25,77.9a2.78,2.78,0,1,1-3.65,1.47h0A2.79,2.79,0,0,1,45.25,77.9Z"/><path id="Path_14278" data-name="Path 14278" d="M48.55,74.89a1.86,1.86,0,1,1-1-2.44h0A1.87,1.87,0,0,1,48.55,74.89Z"/><path id="Path_14279" data-name="Path 14279" d="M67.18,85.22a3.71,3.71,0,1,1-2.05,4.83A3.71,3.71,0,0,1,67.18,85.22Z"/><circle id="Ellipse_699" data-name="Ellipse 699" cx="65.34" cy="80.67" r="2.78"/><path id="Path_14280" data-name="Path 14280" d="M64.51,73.62A1.86,1.86,0,1,1,61.06,75a1.85,1.85,0,0,1,1-2.42,1.87,1.87,0,0,1,2.42,1Z"/><path id="Path_14281" data-name="Path 14281" d="M85,67.76a3.71,3.71,0,1,1,2,4.86A3.7,3.7,0,0,1,85,67.76Z"/><path id="Path_14282" data-name="Path 14282" d="M77.9,64.75a2.78,2.78,0,1,1,1.47,3.65h0A2.78,2.78,0,0,1,77.9,64.75Z"/><path id="Path_14283" data-name="Path 14283" d="M74.9,61.44a1.87,1.87,0,1,1-2.45,1,1.88,1.88,0,0,1,2.45-1Z"/><path id="Path_14284" data-name="Path 14284" d="M85.22,42.82a3.71,3.71,0,1,1,4.83,2A3.71,3.71,0,0,1,85.22,42.82Z"/><path id="Path_14285" data-name="Path 14285" d="M78.08,45.7a2.79,2.79,0,1,1,3.63,1.54,2.79,2.79,0,0,1-3.63-1.54Z"/><path id="Path_14286" data-name="Path 14286" d="M73.62,45.49a1.86,1.86,0,1,1-1,2.42,1.86,1.86,0,0,1,1-2.42Z"/><path id="Path_14287" data-name="Path 14287" d="M67.76,25a3.71,3.71,0,1,1,4.86-2h0A3.72,3.72,0,0,1,67.76,25Z"/><path id="Path_14288" data-name="Path 14288" d="M64.74,32.1a2.78,2.78,0,1,1,3.65-1.47h0A2.78,2.78,0,0,1,64.74,32.1Z"/><path id="Path_14289" data-name="Path 14289" d="M61.44,35.1a1.86,1.86,0,1,1,1,2.45A1.86,1.86,0,0,1,61.44,35.1Z"/><circle id="Ellipse_700" data-name="Ellipse 700" cx="55" cy="55" r="9.78"/></g></g></svg>