<svg id="Layer_1" data-name="Layer 1" xmlns="http://www.w3.org/2000/svg" viewBox="0 0 110 110"><g id="Group_20891" data-name="Group 20891"><g id="Group_20688" data-name="Group 20688"><g id="Group_20687" data-name="Group 20687"><path id="Path_14221" data-name="Path 14221" d="M71.94,38A9.56,9.56,0,0,0,66,31.78a13.28,13.28,0,0,0-11,1.49,13.27,13.27,0,0,0-11-1.49A9.56,9.56,0,0,0,38,38a14.19,14.19,0,0,0,1.88,12.49,19.62,19.62,0,0,1,3.24,8.23c0,.16.05.33.07.5a28.39,28.39,0,0,0,1.7,7.2c.89,2.1,2,3.24,3.4,3.38s2.66-1.07,3.59-3.59a29.39,29.39,0,0,0,1.44-6.68,7.22,7.22,0,0,1,1.06-3.31.71.71,0,0,1,1-.17.65.65,0,0,1,.16.17,7.22,7.22,0,0,1,1.06,3.31,29.5,29.5,0,0,0,1.44,6.68c.87,2.39,2,3.6,3.35,3.6h.23c1.37-.14,2.52-1.28,3.41-3.38a28.82,28.82,0,0,0,1.7-7.2c0-.17,0-.33.07-.49a19.76,19.76,0,0,1,3.24-8.25A14.14,14.14,0,0,0,71.94,38Z"/></g></g><g id="Path_14299" data-name="Path 14299"><path d="M54.73,80.24c-10.36,0-20.72-3-28.61-9.14a1.65,1.65,0,1,1,2-2.62c14.66,11.32,38.51,11.32,53.17,0a1.65,1.65,0,1,1,2,2.62C75.45,77.19,65.09,80.24,54.73,80.24Z"/></g></g></svg>