<svg id="Layer_1" data-name="Layer 1" xmlns="http://www.w3.org/2000/svg" viewBox="0 0 110 110"><g id="Group_20691" data-name="Group 20691"><g id="Group_20688" data-name="Group 20688"><g id="Group_20687" data-name="Group 20687"><path id="Path_14221" data-name="Path 14221" d="M72,42.41A9.53,9.53,0,0,0,66,36.2a13.24,13.24,0,0,0-11,1.49A13.23,13.23,0,0,0,44,36.2a9.55,9.55,0,0,0-5.94,6.21A14.16,14.16,0,0,0,39.93,54.9a19.67,19.67,0,0,1,3.24,8.23c0,.17,0,.34.07.51a28.22,28.22,0,0,0,1.7,7.19c.89,2.11,2,3.25,3.4,3.38s2.66-1.06,3.59-3.59A29.85,29.85,0,0,0,53.37,64a7.1,7.1,0,0,1,1.06-3.32.69.69,0,0,1,1-.16.65.65,0,0,1,.17.16A7.22,7.22,0,0,1,56.64,64a29.83,29.83,0,0,0,1.43,6.67c.88,2.39,2,3.61,3.36,3.61l.23,0c1.37-.13,2.52-1.27,3.41-3.38a29.08,29.08,0,0,0,1.7-7.19l.06-.49a19.59,19.59,0,0,1,3.25-8.25A14.15,14.15,0,0,0,72,42.41Z"/></g></g><path id="Polygon_8" data-name="Polygon 8" d="M77.63,23.45l2.07,6.21,6.21,2.07L79.7,33.8,77.63,40,75.56,33.8l-6.21-2.07,6.21-2.07Z"/><path id="Polygon_9" data-name="Polygon 9" d="M32.37,66l2.07,6.21,6.21,2.06-6.21,2.07L32.37,82.5,30.3,76.29l-6.21-2.07,6.21-2.06Z"/></g></svg>