<svg id="Layer_1" data-name="Layer 1" xmlns="http://www.w3.org/2000/svg" viewBox="0 0 110 110"><path d="M74.32,30.07H35.68a2.76,2.76,0,0,0-2.75,2.76V77a2.75,2.75,0,0,0,2.75,2.76H74.32A2.76,2.76,0,0,0,77.08,77V32.83A2.77,2.77,0,0,0,74.32,30.07ZM65.77,56.56a14.09,14.09,0,0,0-2.32,5.89c0,.11,0,.23-.05.35a20.25,20.25,0,0,1-1.21,5.14c-.63,1.5-1.45,2.32-2.43,2.41h-.17c-1,0-1.77-.86-2.39-2.57a21.16,21.16,0,0,1-1-4.77,5.12,5.12,0,0,0-.75-2.37.49.49,0,0,0-.13-.12.5.5,0,0,0-.7.12A5.26,5.26,0,0,0,53.83,63a20.4,20.4,0,0,1-1,4.77c-.66,1.81-1.52,2.67-2.56,2.57s-1.79-.92-2.43-2.42A20.58,20.58,0,0,1,46.6,62.8c0-.12,0-.24-.05-.36a14.11,14.11,0,0,0-2.32-5.88,10.14,10.14,0,0,1-1.34-8.92,6.82,6.82,0,0,1,4.25-4.44A9.43,9.43,0,0,1,55,44.26a9.46,9.46,0,0,1,7.87-1.06,6.82,6.82,0,0,1,4.24,4.44A10.14,10.14,0,0,1,65.77,56.56Z"/></svg>