<svg id="Layer_1" data-name="Layer 1" xmlns="http://www.w3.org/2000/svg" viewBox="0 0 110 110"><defs><style>.cls-1{fill:none;}</style></defs><g id="Group_20765" data-name="Group 20765"><g id="Group_20688" data-name="Group 20688"><g id="Group_20687" data-name="Group 20687"><path id="Path_14221" data-name="Path 14221" d="M72,43.51A9.55,9.55,0,0,0,66,37.3a13.24,13.24,0,0,0-11,1.49A13.23,13.23,0,0,0,44,37.3a9.56,9.56,0,0,0-5.94,6.22A14.16,14.16,0,0,0,39.93,56a19.62,19.62,0,0,1,3.24,8.23c0,.16,0,.33.07.5a28.39,28.39,0,0,0,1.7,7.2c.89,2.1,2,3.24,3.4,3.38s2.66-1.07,3.59-3.6a29.85,29.85,0,0,0,1.44-6.67,7.1,7.1,0,0,1,1.06-3.31.7.7,0,0,1,1-.17.55.55,0,0,1,.17.17,7.22,7.22,0,0,1,1.06,3.31,29.83,29.83,0,0,0,1.43,6.67c.88,2.4,2,3.61,3.36,3.61h.23c1.37-.14,2.52-1.28,3.41-3.38a29.27,29.27,0,0,0,1.7-7.2l.06-.49A19.64,19.64,0,0,1,70.08,56,14.15,14.15,0,0,0,72,43.51Z"/></g></g><g id="Ellipse_695" data-name="Ellipse 695"><circle class="cls-1" cx="55" cy="54.91" r="30.36"/><path d="M55,85.26A30.36,30.36,0,1,1,85.36,54.91,30.38,30.38,0,0,1,55,85.26Zm0-57.4A27,27,0,1,0,82.05,54.91,27.08,27.08,0,0,0,55,27.86Z"/></g></g></svg>