<svg id="Layer_1" data-name="Layer 1" xmlns="http://www.w3.org/2000/svg" viewBox="0 0 110 110"><path d="M75.12,44.15a15.84,15.84,0,0,0-.72-3.52,10.88,10.88,0,0,0-6.79-7.1A15.09,15.09,0,0,0,55,35.23a15.09,15.09,0,0,0-12.58-1.7,10.88,10.88,0,0,0-6.79,7.1,16.43,16.43,0,0,0-.72,3.52Z"/><path d="M35.39,49.66a16.34,16.34,0,0,0,2.41,5.25,22.28,22.28,0,0,1,3.71,9.39c0,.19.05.39.08.58a32.78,32.78,0,0,0,1.94,8.23c1,2.4,2.33,3.7,3.89,3.86s3-1.22,4.1-4.11a34.32,34.32,0,0,0,1.65-7.62,8.17,8.17,0,0,1,1.2-3.79.82.82,0,0,1,1.14-.19.66.66,0,0,1,.18.19,8.07,8.07,0,0,1,1.21,3.79,34.32,34.32,0,0,0,1.65,7.62c1,2.74,2.29,4.13,3.83,4.13l.26,0c1.57-.15,2.88-1.46,3.89-3.86a32.37,32.37,0,0,0,2-8.23c0-.19,0-.37.07-.55a22.54,22.54,0,0,1,3.72-9.43,16.27,16.27,0,0,0,2.4-5.24Z"/></svg>