<?xml version="1.0" encoding="utf-8"?>
<!-- Generator: Adobe Illustrator 25.2.1, SVG Export Plug-In . SVG Version: 6.00 Build 0)  -->
<svg version="1.1" id="Layer_1" xmlns="http://www.w3.org/2000/svg" xmlns:xlink="http://www.w3.org/1999/xlink" x="0px" y="0px"
	 viewBox="0 0 110 110" style="enable-background:new 0 0 110 110;" xml:space="preserve">
<style type="text/css">
	.st0{fill:#231F20;}
</style>
<path id="Group_20663" class="st0" d="M67.7,70.8L67.7,70.8L67.7,70.8L67.7,70.8z M83.5,28.2h-30c-5.5,0-10,4.5-10,10v5h10
	c5.5,0,10,4.5,10,10v8.3h6.4c0,1.7-0.2,3.3-0.6,4.9c-0.3,1.5-0.9,2.9-1.6,4.2c3.7-0.3,7.2-2.1,9.7-4.9c1.1-1.3,2.1-2.7,2.7-4.3h3.4
	c5.5,0,10-4.5,10-10V38.2C93.5,32.7,89,28.2,83.5,28.2z M36.5,76.6c-0.2-1-0.3-2-0.4-3h17.4c3.9,0,7-3.1,7-7V53.2c0-3.9-3.1-7-7-7
	h-30c-3.9,0-7,3.1-7,7v13.3c0,3.9,3.1,7,7,7h2.8c0.5,1.1,1.2,2.1,2,3l0.3,0.3c2.5,2.8,6,4.5,9.7,4.9c-0.7-1.3-1.3-2.8-1.6-4.2
	C36.6,77.2,36.5,76.9,36.5,76.6z"/>
</svg>
