<?xml version="1.0" encoding="utf-8"?>
<!-- Generator: Adobe Illustrator 25.2.1, SVG Export Plug-In . SVG Version: 6.00 Build 0)  -->
<svg version="1.1" id="Layer_1" xmlns="http://www.w3.org/2000/svg" xmlns:xlink="http://www.w3.org/1999/xlink" x="0px" y="0px"
	 viewBox="0 0 110 110" style="enable-background:new 0 0 110 110;" xml:space="preserve">
<style type="text/css">
	.st0{fill:#231F20;}
</style>
<path class="st0" d="M30,58c-5.5,0-10,4.5-10,10s4.5,10,10,10h60v-3H30c-3.9,0-7-3.1-7-7s3.1-7,7-7h60v-3H30z M23,68
	c0,3.9,3.1,7,7,7C26.1,75,23,71.9,23,68z M30,61c-3.9,0-7,3.1-7,7C23,64.1,26.1,61,30,61z M26,68c0,2.2,1.8,4,4,4h57v-8H30
	C27.8,64,26,65.8,26,68z M78,33H28v3h50c3.9,0,7,3.1,7,7s-3.1,7-7,7H28v3h50c5.5,0,10-4.5,10-10S83.5,33,78,33z M78,50
	c3.9,0,7-3.1,7-7l0,0C85,46.9,81.9,50,78,50L78,50z M85,43c0-3.9-3.1-7-7-7C81.9,36,85,39.1,85,43z M78,47c2.2,0,4-1.8,4-4
	s-1.8-4-4-4H31v8H78z"/>
</svg>
