<svg id="Layer_1" data-name="Layer 1" xmlns="http://www.w3.org/2000/svg" viewBox="0 0 110 110"><path d="M73.28,45.37a9.92,9.92,0,0,1-8.36-15.28,17.66,17.66,0,0,0-9.85,2.68,17,17,0,0,0-14.16-1.92,12.3,12.3,0,0,0-7.63,8,18.23,18.23,0,0,0,2.41,16.06,25.15,25.15,0,0,1,4.16,10.57l.09.65a36.79,36.79,0,0,0,2.19,9.25c1.14,2.71,2.61,4.17,4.38,4.35s3.42-1.37,4.61-4.62A38.75,38.75,0,0,0,53,66.53a9.22,9.22,0,0,1,1.36-4.26.91.91,0,0,1,1.27-.22.88.88,0,0,1,.21.22,9.11,9.11,0,0,1,1.36,4.26A38.75,38.75,0,0,0,59,75.11c1.13,3.08,2.58,4.63,4.32,4.63h.29c1.77-.18,3.24-1.64,4.38-4.35a36.79,36.79,0,0,0,2.19-9.25c0-.21,0-.42.08-.63a25.4,25.4,0,0,1,4.18-10.61,18.8,18.8,0,0,0,3.3-10.6A9.91,9.91,0,0,1,73.28,45.37Z"/></svg>