<svg id="Layer_1" data-name="Layer 1" xmlns="http://www.w3.org/2000/svg" viewBox="0 0 110 110"><g id="Group_20640" data-name="Group 20640"><path d="M55,25A30,30,0,1,0,85,55,30,30,0,0,0,55,25Zm4.6,19.17a8.87,8.87,0,0,1,14.8,0,3,3,0,0,1-.61,4.2,3,3,0,0,1-4.19-.61,2.94,2.94,0,0,0-5.2,0,3,3,0,1,1-4.8-3.59Zm-23,0a9.3,9.3,0,0,1,7.4-4,9.3,9.3,0,0,1,7.4,4,3,3,0,0,1-.61,4.2,3,3,0,0,1-4.19-.61A3.4,3.4,0,0,0,44,46.19a3.4,3.4,0,0,0-2.6,1.57,3,3,0,1,1-4.8-3.59ZM75.91,61.76C70.52,69,63.27,73,55.5,73h0c-7.77,0-15-4-20.41-11.2a3,3,0,0,1,4.82-3.59C44.13,63.84,49.67,67,55.5,67s11.37-3.12,15.59-8.79a3,3,0,0,1,4.82,3.59Z"/></g></svg>