<?xml version="1.0" encoding="UTF-8"?>
<svg id="Design" xmlns="http://www.w3.org/2000/svg" viewBox="0 0 340.32 99.72">
  <defs>
    <style>
      .cls-1 {
        fill: #fff;
      }

      .cls-2 {
        fill: #d50032;
      }
    </style>
  </defs>
  
  
  <g id="Group_2-2" data-name="Group 2">
    <g id="Group_1-2" data-name="Group 1">
      <path id="Path_1-2" data-name="Path 1" class="cls-1" d="m171.95,80.45c-24.5-9.03-24.22-38.73-24.22-38.73h0v-13.96h6.02c13.27,0,18.2-8.48,18.2-8.48h.14s4.93,8.48,18.2,8.48h6.02v13.96h0c-.14.14.14,29.83-24.36,38.73"/>
    </g>
  </g>
  <g id="Group_4-2" data-name="Group 4">
    <g id="Group_3-2" data-name="Group 3">
      <path id="Path_2-2" data-name="Path 2" class="cls-2" d="m170.99,58.31c-.41,0-.82-.14-1.23-.41l-8.07-7.12c-.68-.68-.82-1.78-.14-2.46s1.78-.82,2.6-.14h0l6.57,5.88,8.76-12.73c.55-.82,1.64-.96,2.46-.41s.96,1.64.41,2.46l-9.85,14.37c-.27.41-.68.68-1.23.82-.14-.41-.14-.27-.27-.27Z"/>
    </g>
  </g>
</svg>
