<?xml version="1.0" encoding="utf-8"?>
<!-- Generator: Adobe Illustrator 26.0.1, SVG Export Plug-In . SVG Version: 6.00 Build 0)  -->
<svg version="1.1" xmlns="http://www.w3.org/2000/svg" xmlns:xlink="http://www.w3.org/1999/xlink" x="0px" y="0px"
	 viewBox="0 0 110 110" style="enable-background:new 0 0 110 110;" xml:space="preserve">
<style type="text/css">
	.st0{display:none;}
	.st1{display:inline;}
	.st2{fill:#FFFFFF;}
	.st3{fill:none;}
	.st4{display:inline;fill:#969696;}
	.st5{fill:#968C96;}
	.st6{fill:#C8C8C8;}
	.st7{fill:#969696;}
</style>
<g id="Layer_1">
	<g class="st0">
		<path id="heart" class="st1" d="M53.7,84c0.7,0.7,1.8,0.7,2.5,0c0,0,0,0,0,0l22.8-23.1c9.5-9.7,2.8-26.3-10.8-26.3
			c-8.1,0-11.9,6-13.3,7.1c-1.5-1.1-5.2-7.1-13.3-7.1c-13.5,0-20.4,16.6-10.8,26.3L53.7,84z"/>
	</g>
	<g class="st0">
		<path class="st1" d="M72.7,60.3c-2.4-2.4-5.3-4.3-8.4-5.5c3.5-2.7,5.7-7,5.7-11.8c0-8.3-6.7-15-15-15c-8.3,0-15,6.7-15,15
			c0,4.8,2.2,9,5.7,11.8C36.5,58.5,30,67.5,30,78h50C80,71.3,77.4,65,72.7,60.3z"/>
	</g>
	<path class="st0" d="M78,30H32c-1.1,0-2,0.9-2,2v46c0,1.1,0.9,2,2,2h13V62c0-1.1,0.9-2,2-2h16c1.1,0,2,0.9,2,2v18h13
		c1.1,0,2-0.9,2-2V32C80,30.9,79.1,30,78,30z M50,49c0,0.6-0.4,1-1,1h-8c-0.6,0-1-0.4-1-1v-8c0-0.6,0.4-1,1-1h8c0.6,0,1,0.4,1,1V49z
		 M70,49c0,0.6-0.4,1-1,1h-8c-0.6,0-1-0.4-1-1v-8c0-0.6,0.4-1,1-1h8c0.6,0,1,0.4,1,1V49z"/>
	<g id="Group_20640" transform="translate(-100)" class="st0">
		<path id="Path_14308" class="st1" d="M155,25c-16.6,0-30,13.4-30,30s13.4,30,30,30s30-13.4,30-30l0,0C185,38.4,171.6,25,155,25z
			 M175.9,55.1c-0.1,0.4-0.4,0.6-0.7,0.7l-18.7,4.7c-0.5,0.1-1.1,0.2-1.6,0.2c0,0-0.1,0-0.1,0c-3.2,0-5.7-2.6-5.7-5.7
			c0,0,0-0.1,0-0.1s0-0.1,0-0.1c0-0.8,0.2-1.5,0.5-2.2l4.5-17.9c0.1-0.5,0.7-0.9,1.2-0.7c0.4,0.1,0.6,0.4,0.7,0.7l3.9,15.5l15.4,3.8
			C175.7,54.1,176,54.6,175.9,55.1C175.9,55.1,175.9,55.1,175.9,55.1z"/>
	</g>
	<path class="st0" d="M75,25H35c-1.1,0-2,0.9-2,2v56c0,1.1,0.9,2,2,2h40c1.1,0,2-0.9,2-2V27C77,25.9,76.1,25,75,25z M66,66.5V76
		l-5-4l-5,4v-9.5c-2.4-1.6-4-4.4-4-7.5c0-5,4-9,9-9s9,4,9,9C70,62.1,68.4,64.9,66,66.5z"/>
	<g id="Group_20640_00000060032473440741820270000006281644821711035778_" transform="translate(-100)" class="st0">
		<g id="Group_20663" class="st1">
			<polygon class="st2" points="167.7,70.8 167.7,70.7 167.7,70.8 			"/>
			<g>
				<g>
					<path d="M183.5,28.2h-30c-5.5,0-10,4.5-10,10v5h10c5.5,0,10,4.5,10,10v8.3h6.4c0,1.7-0.2,3.3-0.6,4.9c-0.3,1.5-0.9,2.9-1.6,4.2
						c3.7-0.3,7.2-2.1,9.7-4.9c1.2-1.3,2.1-2.7,2.7-4.3h3.4c5.5,0,10-4.5,10-10V38.2C193.5,32.7,189,28.2,183.5,28.2z"/>
					<path d="M136.5,76.6c-0.2-1-0.3-2-0.4-3h17.4c3.9,0,7-3.1,7-7V53.2c0-3.9-3.1-7-7-7h-30c-3.9,0-7,3.1-7,7v13.3c0,3.9,3.1,7,7,7
						h2.8c0.5,1.1,1.2,2.1,2,3c0.1,0.1,0.2,0.2,0.3,0.3c2.5,2.8,6,4.5,9.7,4.9c-0.7-1.3-1.3-2.8-1.6-4.2
						C136.6,77.2,136.5,76.9,136.5,76.6z"/>
				</g>
			</g>
		</g>
	</g>
	<g id="Group_20640_00000072980682244016724750000015432925303954522764_" transform="translate(-100)" class="st0">
		<path class="st1" d="M186.8,65.5c-1.4-1.4-3.1-2.5-5-3.3c2-1.6,3.4-4.1,3.4-7c0-4.9-4-8.9-8.9-8.9s-8.9,4-8.9,8.9
			c0,2.8,1.3,5.3,3.4,7c-1.6,0.6-3.1,1.6-4.4,2.7c-1.2-2.4-2.8-4.7-4.8-6.6c-2.4-2.4-5.3-4.3-8.4-5.5c3.5-2.7,5.7-7,5.7-11.8
			c0-8.3-6.7-15-15-15c-8.3,0-15,6.7-15,15c0,4.8,2.2,9,5.7,11.8c-9.2,3.7-15.7,12.6-15.7,23.2h42.5h7.5h22.2
			C191.1,72,189.5,68.3,186.8,65.5z"/>
	</g>
	<g id="Group_20640_00000039105571787397940210000007910576038245974414_" transform="translate(-100)" class="st0">
		<path class="st1" d="M183,39h-8v-4c0-1.7-1.3-3-3-3s-3,1.3-3,3v4h-28v-4c0-1.7-1.3-3-3-3s-3,1.3-3,3v4h-8c-1.1,0-2,0.9-2,2v36
			c0,1.1,0.9,2,2,2h56c1.1,0,2-0.9,2-2V41C185,39.9,184.1,39,183,39z M144,59h-8c-0.6,0-1-0.4-1-1v-8c0-0.6,0.4-1,1-1h8
			c0.6,0,1,0.4,1,1v8C145,58.6,144.6,59,144,59z M155,68c0,0.6-0.4,1-1,1h-8c-0.6,0-1-0.4-1-1v-8c0-0.6,0.4-1,1-1h8c0.6,0,1,0.4,1,1
			V68z M175,58c0,0.6-0.4,1-1,1h-8c-0.6,0-1-0.4-1-1v-8c0-0.6,0.4-1,1-1h8c0.6,0,1,0.4,1,1V58z"/>
	</g>
	<g id="Group_20640_00000042722028368071643760000009916149349125139644_" transform="translate(-100)" class="st0">
		<g id="Group_20656" transform="translate(-9837 -2555)" class="st1">
			<path d="M10009,2606h-12v-12c0-1.1-0.9-2-2-2h-8c-1.1,0-2,0.9-2,2v12h-12c-1.1,0-2,0.9-2,2v8c0,1.1,0.9,2,2,2h12v12
				c0,1.1,0.9,2,2,2h8c1.1,0,2-0.9,2-2v-12h12c1.1,0,2-0.9,2-2v-8C10011,2606.9,10010.1,2606,10009,2606z"/>
			<path d="M10023,2586h-6v-6c0-0.6-0.4-1-1-1h-4c-0.6,0-1,0.4-1,1v6h-6c-0.6,0-1,0.4-1,1v4c0,0.6,0.4,1,1,1h6v6c0,0.6,0.4,1,1,1h4
				c0.6,0,1-0.4,1-1v-6h6c0.6,0,1-0.4,1-1v-4C10024,2586.4,10023.6,2586,10023,2586z"/>
		</g>
	</g>
	<g id="Group_20640_00000026843653270046014000000011260109253674204073_" transform="translate(-100)" class="st0">
		<g id="Group_20684" transform="translate(-7891.461 -4229.808)" class="st1">
			<g id="Group_20681" transform="translate(8056.094 4256)">
				<g id="Group_20680">
					<path id="Path_14218" d="M12,0C5.4,0,0,5.4,0,12s5.4,12,12,12s12-5.4,12-12C24,5.4,18.6,0,12,0z M18.7,8.8L11,16.5
						c-0.5,0.5-1.2,0.5-1.7,0l-4.1-3.7c-0.5-0.4-0.5-1.2-0.1-1.7c0.4-0.5,1.2-0.5,1.7-0.1c0,0,0,0,0,0l3.2,2.9L17,7.1
						c0.5-0.5,1.2-0.5,1.7,0C19.2,7.6,19.2,8.4,18.7,8.8L18.7,8.8z"/>
				</g>
			</g>
			<path d="M8073.2,4313.6c0-3.9-1.6-7.7-4.3-10.5c-1.4-1.4-3.1-2.5-5-3.3c2-1.6,3.4-4.1,3.4-7c0-4.9-4-8.9-8.9-8.9
				c-4.9,0-8.9,4-8.9,8.9c0,2.8,1.3,5.3,3.4,7c-1.3,0.5-2.6,1.3-3.7,2.2c-0.6-0.9-1.3-1.7-2.1-2.5c-1.9-1.9-4.2-3.4-6.7-4.4
				c2.8-2.2,4.5-5.6,4.5-9.4c0-6.6-5.4-12-12-12s-12,5.4-12,12c0,3.8,1.8,7.2,4.5,9.4c-2.5,1-4.8,2.5-6.7,4.4
				c-3.8,3.7-5.9,8.8-5.9,14.1h30.7l0,0H8073.2z"/>
		</g>
	</g>
	<g id="Group_20640_00000176740114497200299070000004397969380217659272_" transform="translate(-100)" class="st0">
		<g id="Group_20664" transform="translate(-8028.955 -4143.5)" class="st1">
			<circle id="Ellipse_627" cx="8190" cy="4228" r="5"/>
			<path d="M8215.9,4192c0-11-9-20-20-20c-4,0-7.6,1.2-10.7,3.1c-2.5-2-5.7-3.1-9.2-3.1c-6.9,0-12.7,4.7-14.5,11
				c-5.6,2.2-9.5,7.6-9.5,14c0,8.3,6.7,15,15,15c1.2,0,2.3-0.1,3.4-0.4c2.7,2.7,6.5,4.4,10.6,4.4c3.9,0,7.4-1.5,10-3.8
				c0.1,4.3,3.6,7.8,8,7.8c4.4,0,8-3.6,8-8c0-1.1-0.2-2.1-0.6-3C8212.1,4205.5,8215.9,4199.2,8215.9,4192z"/>
		</g>
	</g>
	<g id="Group_20640_00000104686615364873779130000016017989585722832812_" transform="translate(-100)" class="st0">
		<path class="st1" d="M175,35h-40c-5.5,0-10,4.5-10,10v20c0,5.5,4.5,10,10,10h21.7c0,2-0.2,4-0.7,5.9c-0.4,1.8-1.1,3.5-1.9,5.1l0,0
			c4.5-0.4,8.6-2.5,11.6-5.8c1.4-1.5,2.5-3.3,3.3-5.2h6c5.5,0,10-4.5,10-10V45C185,39.5,180.5,35,175,35z M146.1,56.7
			c1.2-1.2,2.6-2.1,4.2-2.8c-1.7-1.4-2.8-3.5-2.8-5.9c0-4.2,3.4-7.5,7.5-7.5s7.5,3.4,7.5,7.5c0,2.4-1.1,4.5-2.8,5.9
			c1.6,0.6,3,1.6,4.2,2.8c2.4,2.3,3.7,5.5,3.7,8.8h-25.1C142.5,62.2,143.8,59.1,146.1,56.7z"/>
	</g>
	<g id="Group_20640_00000111909557724844735470000015470595543427510408_" transform="translate(-100)" class="st0">
		<g id="Group_20682" transform="translate(-7888.953 -4229.985)" class="st1">
			<path d="M8052.6,4296.3c-2.4-2.4-5.3-4.3-8.4-5.5c3.5-2.7,5.7-7,5.7-11.8c0-8.3-6.7-15-15-15s-15,6.7-15,15c0,4.8,2.2,9,5.7,11.8
				c-9.2,3.7-15.7,12.6-15.7,23.2h50C8059.9,4307.3,8057.3,4301,8052.6,4296.3z"/>
			<g id="Group_20681_00000160176210801587694270000012448723294946572708_" transform="translate(8054 4256)">
				<g id="Group_20680_00000171710338756943680510000007063404198770781628_">
					<path id="Path_14218_00000123415718945238776330000012336441103117010837_" d="M12,0C5.4,0,0,5.4,0,12s5.4,12,12,12
						s12-5.4,12-12C24,5.4,18.6,0,12,0z M18.7,8.8L11,16.5c-0.5,0.5-1.2,0.5-1.7,0l-4.1-3.7c-0.5-0.4-0.5-1.2-0.1-1.7
						c0.4-0.5,1.2-0.5,1.7-0.1c0,0,0,0,0,0l3.2,2.9L17,7.1c0.5-0.5,1.2-0.5,1.7,0C19.2,7.6,19.2,8.4,18.7,8.8L18.7,8.8z"/>
				</g>
			</g>
		</g>
	</g>
	<g id="Group_20640_00000004512394410458339780000006764537545321895079_" transform="translate(-100)" class="st0">
		<path class="st1" d="M188.5,61.5c-2.1-2.2-4.7-3.8-7.5-4.9c3.1-2.4,5.1-6.2,5.1-10.5c0-7.4-6-13.3-13.3-13.3
			c-7.4,0-13.3,6-13.3,13.3c0,4.3,2,8,5.1,10.5c-2.8,1.1-5.3,2.8-7.5,4.9c-0.8,0.8-1.4,1.6-2.1,2.4c-0.6-0.8-1.3-1.7-2.1-2.4
			c-2.1-2.2-4.7-3.8-7.5-4.9c3.1-2.4,5.1-6.2,5.1-10.5c0-7.4-6-13.3-13.3-13.3c-7.4,0-13.3,6-13.3,13.3c0,4.3,2,8,5.1,10.5
			c-2.8,1.1-5.3,2.8-7.5,4.9c-4.2,4.1-6.5,9.8-6.5,15.7h35.6h8.9H195C195,71.3,192.7,65.7,188.5,61.5z"/>
	</g>
	<g id="Group_20640_00000176035444834903974640000011847009783475671699_" transform="translate(-100)" class="st0">
		<path class="st1" d="M182.6,22.5h-25.3c-2.8,0-5,2.2-5,5v10.9c-1.6-0.6-3.2-0.9-5-0.9c-8.3,0-15,6.7-15,15c0,4.8,2.2,9,5.7,11.8
			c-9.2,3.7-15.7,12.6-15.7,23.2h50c0-6.6-2.6-13-7.3-17.6c-2.4-2.4-5.3-4.3-8.4-5.5c3.5-2.7,5.7-7,5.7-11.8c0-2.3-0.6-4.5-1.5-6.5
			H171c0,1.2-0.1,2.3-0.4,3.5c-0.2,1-0.6,2-1.1,3h0c2.6-0.2,5.1-1.5,6.8-3.4c0.8-0.9,1.5-1.9,1.9-3h4.4c2.8,0,5-2.2,5-5V27.5
			C187.6,24.7,185.4,22.5,182.6,22.5z M170.2,36.6C170.2,36.6,170.2,36.5,170.2,36.6c-0.2-0.1-0.3-0.1-0.4,0
			c-0.2,0.4-0.4,0.8-0.4,1.2c-0.1,0.8-0.3,1.6-0.5,2.4c-0.3,0.9-0.8,1.4-1.3,1.3c-0.5,0-0.9-0.5-1.2-1.2c-0.3-0.8-0.5-1.7-0.6-2.6
			c0-0.1,0-0.1,0-0.2c-0.2-1.1-0.6-2.1-1.2-3c-0.9-1.3-1.2-3-0.7-4.5c0.3-1,1.1-1.9,2.2-2.3c1.3-0.4,2.8-0.2,4,0.5
			c1.2-0.8,2.6-1,4-0.5c1,0.4,1.8,1.2,2.2,2.3c0.5,1.5,0.2,3.2-0.7,4.5c-0.6,0.9-1,1.9-1.2,3c0,0.1,0,0.1,0,0.2
			c-0.1,0.9-0.3,1.8-0.6,2.6c-0.3,0.8-0.7,1.2-1.2,1.2c0,0-0.1,0-0.1,0c-0.5,0-0.9-0.4-1.2-1.3c-0.3-0.8-0.4-1.6-0.5-2.4
			C170.6,37.4,170.4,37,170.2,36.6z"/>
	</g>
	<g id="Group_20640_00000154426026614318471220000005291646278127584423_" transform="translate(-100)" class="st0">
		<g id="Group_20690" transform="translate(123.66 22)" class="st1">
			<path id="Path_14223" d="M23.8,17.9C23.8,9.7,31.3,0,31.3,0s7.6,9.7,7.6,17.9s-7.6,11.9-7.6,11.9S23.8,26.2,23.8,17.9z
				 M14.3,39.4c6.6,4.9,14,1,14,1s1.6-8.2-5-13.2S4.4,22.6,4.4,22.6S7.7,34.5,14.3,39.4z M35.7,41c2.4,0.9,7.8,2.1,12.7-1.6
				c6.6-4.9,9.8-16.8,9.8-16.8S46,22.4,39.4,27.3c-3.3,2.6-5.2,6.5-5.1,10.7l0,0v11.3H6.9c0,9.2,11,16.6,24.4,16.6
				s24.4-7.4,24.4-16.6H35.7V41z"/>
		</g>
	</g>
	<g id="Group_20640_00000102526925994139073830000007441053504571540390_" transform="translate(-100)" class="st0">
		<g id="Group_20752" transform="translate(-7887 -4230)" class="st1">
			<g>
				<path d="M8017,4288c-5.5,0-10,4.5-10,10s4.5,10,10,10h60v-3h-3h-57c-3.9,0-7-3.1-7-7s3.1-7,7-7h57h3v-3H8017z"/>
				<path class="st2" d="M8010,4298c0,3.9,3.1,7,7,7C8013.1,4305,8010,4301.9,8010,4298z"/>
				<path class="st2" d="M8017,4291c-3.9,0-7,3.1-7,7C8010,4294.1,8013.1,4291,8017,4291z"/>
				<path d="M8013,4298c0,2.2,1.8,4,4,4h57v-8h-57C8014.8,4294,8013,4295.8,8013,4298z"/>
			</g>
			<g>
				<path d="M8065,4263h-50v3h3h47c3.9,0,7,3.1,7,7s-3.1,7-7,7h-47h-3v3h50c5.5,0,10-4.5,10-10S8070.5,4263,8065,4263z"/>
				<path class="st2" d="M8065,4280c3.9,0,7-3.1,7-7C8072,4276.9,8068.9,4280,8065,4280z"/>
				<path class="st2" d="M8072,4273c0-3.9-3.1-7-7-7C8068.9,4266,8072,4269.1,8072,4273z"/>
				<path d="M8065,4277c2.2,0,4-1.8,4-4s-1.8-4-4-4h-47h0l0,8H8065z"/>
			</g>
		</g>
	</g>
	<g id="Group_20640_00000055676224164514277690000003416507328991607707_" transform="translate(-100)" class="st0">
		<g id="Group_20670" transform="translate(-8033 -6175)" class="st1">
			<path d="M8207,6199c-1.7,0-3,1.3-3,3v1h-6c-1.1,0-2,0.9-2,2v16c0,1.1,0.9,2,2,2h6v35c0,1.7,1.3,3,3,3s3-1.3,3-3v-56
				C8210,6200.3,8208.7,6199,8207,6199z"/>
			<g id="Group_20669" transform="translate(0 1)">
				<path id="Path_14217" d="M8173,6210h10c1.1,0,2,0.9,2,2l4,46c0,1.1-0.9,2-2,2h-18c-1.1,0-2-0.9-2-2l4-46
					C8171,6210.9,8171.9,6210,8173,6210z"/>
				<path id="Rectangle_592" d="M8174,6198h8c1.1,0,2,0.9,2,2v6c0,1.1-0.9,2-2,2h-8c-1.1,0-2-0.9-2-2v-6
					C8172,6198.9,8172.9,6198,8174,6198z"/>
			</g>
		</g>
	</g>
	<g id="Group_20640_00000142166751879149672920000000794326125226989244_" transform="translate(-100)" class="st0">
		<g id="Group_20686" transform="translate(71.268 25.998)" class="st1">
			<path id="Path_14219" d="M83.7,16.7c-6.8,0-12.3,5.5-12.3,12.3s5.5,12.3,12.3,12.3S96,35.8,96,29C96,22.2,90.5,16.7,83.7,16.7z
				 M92,26.7l-8.8,8.8c-0.7,0.7-1.8,0.7-2.5,0c0,0,0,0,0,0l-5.3-5.3c-0.7-0.7-0.7-1.8,0-2.5c0.7-0.7,1.8-0.7,2.5,0c0,0,0,0,0,0l4,4
				l7.5-7.5c0.7-0.7,1.8-0.7,2.5,0C92.7,25,92.7,26,92,26.7L92,26.7z"/>
			<path id="Path_14220" d="M104.8,6.2h-4.1c-5.9,0-11.6-2.4-15.7-6.6c-0.7-0.7-1.8-0.7-2.5,0c0,0,0,0,0,0
				c-4.2,4.2-9.8,6.6-15.7,6.6h-4.1c-1,0-1.8,0.8-1.8,1.8c0,0,0,0,0,0V29c0,15.8,11.5,23.1,19.1,27.9c0.7,0.4,3,2.1,3.8,2.1
				s3-1.6,3.7-2c7.6-4.8,19.2-12.1,19.2-28V7.9C106.6,6.9,105.8,6.2,104.8,6.2C104.8,6.1,104.8,6.1,104.8,6.2z M83.7,44.8
				c-8.7,0-15.8-7.1-15.8-15.8S75,13.2,83.7,13.2c8.7,0,15.8,7.1,15.8,15.8C99.5,37.7,92.5,44.8,83.7,44.8z"/>
		</g>
	</g>
	<g id="Group_20640_00000015318604707669745430000008394420755685937340_" transform="translate(-100)" class="st0">
		<g class="st1">
			<path d="M172,54V44V28c0-1.1-0.9-2-2-2h-30c-1.1,0-2,0.9-2,2v16v10H172z"/>
			<path d="M183,44h-7v20h-4v-6h-34v6h-4V44h-7c-1.1,0-2,0.9-2,2v26c0,1.1,0.9,2,2,2h7v7c0,1.7,1.3,3,3,3h2c1.7,0,3-1.3,3-3v-7h26v7
				c0,1.7,1.3,3,3,3h2c1.7,0,3-1.3,3-3v-7h7c1.1,0,2-0.9,2-2V46C185,44.9,184.1,44,183,44z"/>
		</g>
	</g>
	<g id="Group_20640_00000055700673120918521370000013379608710091199874_" transform="translate(-100)" class="st0">
		<g class="st1">
			<path d="M183.4,37.4c0-0.4-0.2-0.7-0.5-0.8c-2.9-1.5-6.1-2.2-9.2-2.2c-0.1,0-0.1,0-0.2,0l0,0c-3.1,0-6.2,0.8-9.1,2.2
				c-0.3,0.2-0.5,0.5-0.5,0.8l0.6,9c0.1,2,1.2,3.8,3,4.9c3,1.8,4.4,2.8,5.1,3.2c0.2,0.1,0.3,0.2,0.4,0.3c0,0,0,0,0,0
				c0,0,0.1,0.1,0.1,0.1c0,0,0,0,0,0c0.2,0.1,0.3,0.1,0.4,0.1c0.4,0,0.2,0,6.1-3.7c1.7-1.1,2.8-2.9,3-4.9L183.4,37.4z M173.3,46.6
				c-0.2,0.2-0.4,0.2-0.6,0.2c-0.2,0-0.4-0.1-0.6-0.2l-2.9-2.9l1.2-1.2l2.3,2.3l3.1-3.1l1-1l1.2,1.2L173.3,46.6z"/>
			<path d="M170.5,56.7c-0.8-0.5-2.2-1.4-4.5-2.9l0,0c-2.5-1.6-4.1-4.3-4.3-7.2l0,0l-0.6-9c-0.1-1.6,0.7-3.1,2.1-3.8
				c2.5-1.3,5.2-2.1,8-2.4c-1.3-1.1-2.7-2-4.4-2.6c-5.2-1.6-10.8-0.8-15.4,2.1c-4.6-2.9-10.2-3.7-15.4-2.1c-4,1.4-7.1,4.6-8.3,8.7
				c-1.9,5.9-0.9,12.4,2.6,17.5c2.4,3.4,3.9,7.4,4.5,11.5c0,0.2,0.1,0.5,0.1,0.7c0.4,3.4,1.2,6.8,2.4,10.1c1.2,2.9,2.8,4.5,4.8,4.7
				c2,0.2,3.7-1.5,5-5c1-3,1.7-6.2,2-9.3c0.1-1.6,0.6-3.2,1.5-4.6c0.3-0.4,0.9-0.6,1.4-0.2c0.1,0.1,0.2,0.1,0.2,0.2
				c0.9,1.4,1.4,3,1.5,4.6c0.3,3.2,1,6.3,2,9.3c1.2,3.3,2.8,5,4.7,5c0.1,0,0.2,0,0.3,0c1.9-0.2,3.5-1.8,4.8-4.7
				c1.2-3.2,2-6.6,2.4-10.1c0-0.2,0.1-0.5,0.1-0.7c0.5-3.3,1.6-6.5,3.2-9.4C170.9,57,170.8,56.9,170.5,56.7z"/>
		</g>
	</g>
	<g id="Group_20640_00000014622511121360956190000010592575113545563294_" transform="translate(-100)" class="st0">
		<g id="Group_20733" transform="translate(-379.14 -20.073)" class="st1">
			<path id="Path_14235" d="M526.6,69.9c5,0.8,10,0.8,15,0v-3.6c0-5.1,2.8-6.9,2.8-11.1c0-5.7-4.6-10.3-10.3-10.3
				c-5.7,0-10.3,4.6-10.3,10.3c0,4.3,2.8,6.1,2.8,11.1L526.6,69.9z"/>
			<path id="Path_14236" d="M554.5,71.1c-4.8,0.3-9.3,3.4-20.4,3.4s-15.6-3.1-20.4-3.4c-4.8-0.3-4.4,3.7-3.5,4.8
				c1.2,1.4,3.3,3.4,9.5,4.6c0.2,0-3.1,0.9-3.1,4.4v3.3c0,10.2,7.8,16.6,17.5,16.6c0,0,0,0,0,0s0,0,0.1,0c9.6,0,17.5-6.4,17.5-16.6
				v-3.3c0-3.4-3.3-4.3-3.1-4.4c6.2-1.2,8.3-3.2,9.5-4.6C558.9,74.8,559.3,70.8,554.5,71.1z M547.3,88.2c0,8.5-6.6,12.3-13.2,12.3
				h-0.1h0c-6.6,0-13.2-3.8-13.2-12.3v-1.9c0-0.8,0.6-1.4,1.4-1.4h4.1v2.6c0,1.6,1.4,3,7.6,3c0,0,0,0,0,0c0,0,0,0,0,0
				c6.2,0,7.6-1.3,7.6-3v-2.6h4.1c0.8,0,1.4,0.6,1.4,1.4L547.3,88.2z"/>
		</g>
	</g>
	<g id="Group_20640_00000081649913954692302360000001434367535548760487_" transform="translate(-100)" class="st0">
		<g id="Group_20731" transform="translate(132.153 30)" class="st1">
			<g id="Group_20687_00000021088978998118865320000010332182887544629933_" transform="translate(0 0)">
				<path id="Path_14221_00000183928238616330177910000013348680991929684647_" d="M44.8,8.8c-1.1-3.7-4-6.7-7.7-8
					c-4.8-1.5-10-0.8-14.2,1.9C18.6,0,13.4-0.7,8.6,0.8c-3.7,1.3-6.5,4.3-7.7,8C-0.9,14.3,0,20.3,3.3,25c2.2,3.2,3.6,6.8,4.2,10.6
					c0,0.2,0.1,0.4,0.1,0.7c0.3,3.2,1.1,6.3,2.2,9.3c1.1,2.7,2.6,4.2,4.4,4.4c1.9,0.2,3.4-1.4,4.6-4.6c1-2.8,1.6-5.7,1.9-8.6
					c0.1-1.5,0.6-3,1.4-4.3c0.3-0.4,0.9-0.5,1.3-0.2c0.1,0.1,0.2,0.1,0.2,0.2c0.8,1.3,1.3,2.8,1.4,4.3c0.3,2.9,0.9,5.8,1.9,8.6
					c1.1,3.1,2.6,4.7,4.3,4.7c0.1,0,0.2,0,0.3,0c1.8-0.2,3.3-1.7,4.4-4.4c1.1-3,1.9-6.1,2.2-9.3c0-0.2,0.1-0.4,0.1-0.6
					c0.6-3.8,2-7.5,4.2-10.7C45.7,20.3,46.5,14.3,44.8,8.8z"/>
			</g>
		</g>
	</g>
	<g id="Group_20640_00000159440247086049129820000010294039451702827948_" transform="translate(-100)" class="st0">
		<path id="heart_00000165229173280259514650000002193557578988778932_" class="st1" d="M153.7,84c0.7,0.7,1.8,0.7,2.5,0
			c0,0,0,0,0,0l22.8-23.1c9.5-9.7,2.8-26.3-10.8-26.3c-8.1,0-11.9,6-13.3,7.1c-1.5-1.1-5.2-7.1-13.3-7.1
			c-13.5,0-20.4,16.6-10.8,26.3L153.7,84z"/>
	</g>
	<g id="Group_20640_00000116231669058262550580000012788228396201474218_" transform="translate(-100)" class="st0">
		<g id="Group_20768" transform="translate(110.411 -4.307)" class="st1">
			<path id="Path_14243" d="M44.6,47.9H30.9v9.9c0,0,6.6,3.1,8.1,6.5c3,6.6-0.6,13.1-0.1,20.4s5.7,14.1,5.7,14.1s5.2-6.8,5.7-14.1
				S47.1,71,50.1,64.3c1.5-3.3,8.1-6.5,8.1-6.5v-9.9H44.6z"/>
			<rect id="Rectangle_636" x="30.9" y="28.8" width="27.3" height="16.7"/>
		</g>
	</g>
	<g id="Group_20640_00000155139143272652893770000017945470860325719711_" transform="translate(-100)" class="st0">
		<g id="Group_20731_00000109726292918724982020000004416820302034446772_" transform="translate(132.153 30)" class="st1">
			<g id="Group_20687_00000157300196308181405730000009820304322168649608_" transform="translate(0 0)">
				<path id="Path_14221_00000163774750857233090600000009216004080395479734_" d="M44.8,8.8c-1.1-3.7-4-6.7-7.7-8
					c-4.8-1.5-10-0.8-14.2,1.9C18.6,0,13.4-0.7,8.6,0.8c-3.7,1.3-6.5,4.3-7.7,8C-0.9,14.3,0,20.3,3.3,25c2.2,3.2,3.6,6.8,4.2,10.6
					c0,0.2,0.1,0.4,0.1,0.7c0.3,3.2,1.1,6.3,2.2,9.3c1.1,2.7,2.6,4.2,4.4,4.4c1.9,0.2,3.4-1.4,4.6-4.6c1-2.8,1.6-5.7,1.9-8.6
					c0.1-1.5,0.6-3,1.4-4.3c0.3-0.4,0.9-0.5,1.3-0.2c0.1,0.1,0.2,0.1,0.2,0.2c0.8,1.3,1.3,2.8,1.4,4.3c0.3,2.9,0.9,5.8,1.9,8.6
					c1.1,3.1,2.6,4.7,4.3,4.7c0.1,0,0.2,0,0.3,0c1.8-0.2,3.3-1.7,4.4-4.4c1.1-3,1.9-6.1,2.2-9.3c0-0.2,0.1-0.4,0.1-0.6
					c0.6-3.8,2-7.5,4.2-10.7C45.7,20.3,46.5,14.3,44.8,8.8z"/>
			</g>
		</g>
		<g id="Ellipse_695_00000160177104895937975100000016829229349623114634_" transform="translate(115 15)" class="st1">
			<circle class="st3" cx="40" cy="40" r="40"/>
			<g>
				<path d="M40,80C17.9,80,0,62.1,0,40C0,17.9,17.9,0,40,0c22.1,0,40,17.9,40,40C80,62.1,62.1,80,40,80z M40,4C20.1,4,4,20.1,4,40
					s16.1,36,36,36s36-16.1,36-36S59.9,4,40,4z"/>
			</g>
		</g>
	</g>
	<g id="Group_20640_00000082338801750203551720000013521056321959517349_" transform="translate(-100)" class="st0">
		<g id="Group_20769" transform="translate(3483 -11472)" class="st1">
			<path id="Path_14245" d="M-3328,11494.4c-2,0-3.7-1.7-3.7-3.7c0-2,1.7-3.7,3.7-3.7s3.7,1.7,3.7,3.7c0,0,0,0,0,0
				C-3324.3,11492.8-3326,11494.4-3328,11494.4z"/>
			<path id="Path_14246" d="M-3328,11502.1c-1.5,0-2.8-1.2-2.8-2.8s1.2-2.8,2.8-2.8c1.5,0,2.8,1.2,2.8,2.8c0,0,0,0,0,0
				C-3325.2,11500.9-3326.5,11502.1-3328,11502.1z"/>
			<circle id="Ellipse_697" cx="-3328" cy="11506.2" r="1.9"/>
			<path id="Path_14247" d="M-3351,11504c-1.4,1.4-3.8,1.4-5.2,0c-1.4-1.4-1.4-3.8,0-5.2s3.8-1.4,5.2,0c0,0,0,0,0,0
				C-3349.6,11500.2-3349.6,11502.5-3351,11504z"/>
			<path id="Path_14248" d="M-3345.6,11509.4c-1.1,1.1-2.9,1.1-3.9,0c-1.1-1.1-1.1-2.9,0-3.9c1.1-1.1,2.8-1.1,3.9,0
				C-3344.5,11506.5-3344.5,11508.3-3345.6,11509.4z"/>
			<path id="Path_14249" d="M-3344,11513.6c-0.7-0.7-0.7-1.9,0-2.6s1.9-0.7,2.6,0c0.7,0.7,0.7,1.9,0,2.6
				C-3342.1,11514.3-3343.3,11514.3-3344,11513.6C-3344,11513.6-3344,11513.6-3344,11513.6z"/>
			<path id="Path_14250" d="M-3360.6,11527c0,2-1.7,3.7-3.7,3.7c-2,0-3.7-1.7-3.7-3.7s1.7-3.7,3.7-3.7
				C-3362.2,11523.3-3360.6,11525-3360.6,11527z"/>
			<path id="Path_14251" d="M-3352.9,11527c0,1.5-1.2,2.8-2.8,2.8c-1.5,0-2.8-1.2-2.8-2.8c0-1.5,1.2-2.8,2.8-2.8
				C-3354.1,11524.2-3352.9,11525.5-3352.9,11527z"/>
			<path id="Path_14252" d="M-3348.8,11528.9c-1,0-1.9-0.8-1.9-1.9c0-1,0.8-1.9,1.9-1.9c1,0,1.9,0.8,1.9,1.9
				C-3347,11528-3347.8,11528.9-3348.8,11528.9C-3348.8,11528.9-3348.8,11528.9-3348.8,11528.9z"/>
			<path id="Path_14253" d="M-3351,11550c1.4,1.4,1.4,3.8,0,5.2c-1.4,1.4-3.8,1.4-5.2,0c-1.4-1.4-1.4-3.8,0-5.2
				C-3354.8,11548.6-3352.5,11548.6-3351,11550z"/>
			<path id="Path_14254" d="M-3345.6,11544.6c1.1,1.1,1.1,2.8,0,3.9c-1.1,1.1-2.9,1.1-3.9,0c-1.1-1.1-1.1-2.8,0-3.9
				C-3348.4,11543.5-3346.7,11543.5-3345.6,11544.6C-3345.6,11544.6-3345.6,11544.6-3345.6,11544.6z"/>
			<path id="Path_14255" d="M-3341.4,11543c-0.7,0.7-1.9,0.7-2.6,0c-0.7-0.7-0.7-1.9,0-2.6c0.7-0.7,1.9-0.7,2.6,0
				C-3340.7,11541.1-3340.7,11542.3-3341.4,11543C-3341.4,11543-3341.4,11543-3341.4,11543z"/>
			<path id="Path_14256" d="M-3328,11559.6c2,0,3.7,1.7,3.7,3.7s-1.7,3.7-3.7,3.7c-2,0-3.7-1.7-3.7-3.7
				C-3331.7,11561.2-3330,11559.6-3328,11559.6z"/>
			<path id="Path_14257" d="M-3328,11551.9c1.5,0,2.8,1.2,2.8,2.8c0,1.5-1.2,2.8-2.8,2.8c-1.5,0-2.8-1.2-2.8-2.8c0,0,0,0,0,0
				C-3330.8,11553.1-3329.5,11551.9-3328,11551.9z"/>
			<path id="Path_14258" d="M-3326.1,11547.8c0,1-0.8,1.9-1.9,1.9c-1,0-1.9-0.8-1.9-1.9s0.8-1.9,1.9-1.9
				C-3327,11546-3326.1,11546.8-3326.1,11547.8z"/>
			<path id="Path_14259" d="M-3305,11550c1.4-1.4,3.8-1.4,5.2,0s1.4,3.8,0,5.2c-1.4,1.4-3.8,1.4-5.2,0
				C-3306.4,11553.8-3306.4,11551.5-3305,11550z"/>
			<path id="Path_14260" d="M-3310.4,11544.6c1.1-1.1,2.8-1.1,3.9,0c1.1,1.1,1.1,2.8,0,3.9c-1.1,1.1-2.8,1.1-3.9,0
				C-3311.5,11547.5-3311.5,11545.7-3310.4,11544.6C-3310.4,11544.6-3310.4,11544.6-3310.4,11544.6z"/>
			<path id="Path_14261" d="M-3312,11540.4c0.7,0.7,0.7,1.9,0,2.6c-0.7,0.7-1.9,0.7-2.6,0c-0.7-0.7-0.7-1.9,0-2.6
				C-3313.9,11539.7-3312.7,11539.7-3312,11540.4z"/>
			<path id="Path_14262" d="M-3295.4,11527c0-2,1.7-3.7,3.7-3.7c2,0,3.7,1.7,3.7,3.7s-1.7,3.7-3.7,3.7c0,0,0,0,0,0
				C-3293.8,11530.7-3295.4,11529-3295.4,11527z"/>
			<path id="Path_14263" d="M-3303.1,11527c0-1.5,1.3-2.8,2.8-2.8c1.5,0,2.8,1.3,2.8,2.8c0,1.5-1.2,2.8-2.8,2.8
				C-3301.9,11529.8-3303.1,11528.5-3303.1,11527C-3303.1,11527-3303.1,11527-3303.1,11527z"/>
			<path id="Path_14264" d="M-3307.2,11525.1c1,0,1.9,0.8,1.9,1.9c0,1-0.8,1.9-1.9,1.9c-1,0-1.9-0.8-1.9-1.9
				C-3309,11526-3308.2,11525.1-3307.2,11525.1C-3307.2,11525.1-3307.2,11525.1-3307.2,11525.1z"/>
			<path id="Path_14265" d="M-3305,11504c-1.4-1.4-1.4-3.8,0-5.2c1.4-1.4,3.8-1.4,5.2,0c1.4,1.4,1.4,3.8,0,5.2c0,0,0,0,0,0
				C-3301.2,11505.4-3303.5,11505.4-3305,11504z"/>
			<path id="Path_14266" d="M-3310.4,11509.4c-1.1-1.1-1.1-2.9,0-3.9c1.1-1.1,2.8-1.1,3.9,0c1.1,1.1,1.1,2.8,0,3.9
				C-3307.5,11510.5-3309.3,11510.5-3310.4,11509.4C-3310.4,11509.4-3310.4,11509.4-3310.4,11509.4z"/>
			<path id="Path_14267" d="M-3314.6,11511c0.7-0.7,1.9-0.7,2.6,0c0.7,0.7,0.7,1.9,0,2.6c-0.7,0.7-1.9,0.7-2.6,0
				C-3315.3,11512.9-3315.3,11511.7-3314.6,11511z"/>
			<path id="Path_14268" d="M-3340.2,11496.8c-1.9,0.8-4.1-0.2-4.8-2.1c-0.8-1.9,0.2-4.1,2.1-4.8c1.9-0.8,4.1,0.2,4.8,2.1
				C-3337.4,11493.9-3338.3,11496-3340.2,11496.8z"/>
			<path id="Path_14269" d="M-3337.3,11503.9c-1.4,0.6-3-0.1-3.6-1.5c-0.6-1.4,0.1-3,1.5-3.6c1.4-0.6,3,0.1,3.6,1.5
				C-3335.2,11501.7-3335.9,11503.3-3337.3,11503.9z"/>
			<circle id="Ellipse_698" cx="-3335.8" cy="11507.7" r="1.9"/>
			<path id="Path_14270" d="M-3358,11514.2c-0.8,1.9-3,2.8-4.9,2c-1.9-0.8-2.8-3-2-4.9s3-2.8,4.9-2c0,0,0,0,0,0
				C-3358.1,11510.2-3357.2,11512.4-3358,11514.2z"/>
			<path id="Path_14271" d="M-3350.9,11517.3c-0.6,1.4-2.2,2.1-3.7,1.5c-1.4-0.6-2.1-2.2-1.5-3.7c0.6-1.4,2.2-2.1,3.7-1.5
				c0,0,0,0,0,0C-3351,11514.2-3350.3,11515.8-3350.9,11517.3z"/>
			<path id="Path_14272" d="M-3347.9,11520.6c-0.9-0.4-1.4-1.5-1-2.4s1.5-1.4,2.4-1c0.9,0.4,1.4,1.5,1,2.4c0,0,0,0,0,0
				C-3345.9,11520.5-3346.9,11521-3347.9,11520.6z"/>
			<path id="Path_14273" d="M-3358.2,11539.2c0.8,1.9-0.2,4.1-2.1,4.8s-4.1-0.2-4.8-2.1c-0.8-1.9,0.2-4.1,2.1-4.8
				C-3361.1,11536.4-3359,11537.3-3358.2,11539.2z"/>
			<path id="Path_14274" d="M-3351.1,11536.3c0.6,1.4-0.1,3-1.5,3.6c-1.4,0.6-3-0.1-3.6-1.5c-0.6-1.4,0.1-3,1.5-3.6
				C-3353.3,11534.2-3351.7,11534.9-3351.1,11536.3z"/>
			<path id="Path_14275" d="M-3346.6,11536.5c-1,0.4-2-0.1-2.4-1s0.1-2,1-2.4c1-0.4,2,0.1,2.4,1
				C-3345.2,11535-3345.7,11536.1-3346.6,11536.5z"/>
			<path id="Path_14276" d="M-3340.8,11557c1.9,0.8,2.8,3,2,4.9s-3,2.8-4.9,2c-1.9-0.8-2.8-3-2-4.9
				C-3344.8,11557.1-3342.6,11556.2-3340.8,11557z"/>
			<path id="Path_14277" d="M-3337.7,11549.9c1.4,0.6,2.1,2.2,1.5,3.7s-2.2,2.1-3.7,1.5c-1.4-0.6-2.1-2.2-1.5-3.7c0,0,0,0,0,0
				C-3340.8,11550-3339.2,11549.3-3337.7,11549.9z"/>
			<path id="Path_14278" d="M-3334.4,11546.9c-0.4,0.9-1.5,1.4-2.4,1s-1.4-1.5-1-2.4c0.4-0.9,1.5-1.4,2.4-1c0,0,0,0,0,0
				C-3334.5,11544.9-3334,11545.9-3334.4,11546.9z"/>
			<path id="Path_14279" d="M-3315.8,11557.2c1.9-0.8,4.1,0.2,4.8,2.1c0.8,1.9-0.2,4.1-2.1,4.8c-1.9,0.8-4.1-0.2-4.8-2.1
				C-3318.6,11560.1-3317.7,11558-3315.8,11557.2z"/>
			<circle id="Ellipse_699" cx="-3317.7" cy="11552.7" r="2.8"/>
			<path id="Path_14280" d="M-3318.5,11545.6c0.4,1-0.1,2-1,2.4c-1,0.4-2-0.1-2.4-1c-0.4-1,0.1-2,1-2.4
				C-3320,11544.2-3318.9,11544.7-3318.5,11545.6C-3318.5,11545.6-3318.5,11545.6-3318.5,11545.6z"/>
			<path id="Path_14281" d="M-3298,11539.8c0.8-1.9,3-2.8,4.9-2c1.9,0.8,2.8,3,2,4.9c-0.8,1.9-3,2.8-4.9,2
				C-3297.9,11543.8-3298.8,11541.6-3298,11539.8z"/>
			<path id="Path_14282" d="M-3305.1,11536.7c0.6-1.4,2.2-2.1,3.6-1.5c1.4,0.6,2.1,2.2,1.5,3.6c-0.6,1.4-2.2,2.1-3.6,1.5
				c0,0,0,0,0,0C-3305,11539.8-3305.7,11538.2-3305.1,11536.7z"/>
			<path id="Path_14283" d="M-3308.1,11533.4c0.9,0.4,1.4,1.5,1,2.4c-0.4,0.9-1.5,1.4-2.4,1c-0.9-0.4-1.4-1.5-1-2.4
				C-3310.1,11533.5-3309.1,11533-3308.1,11533.4C-3308.1,11533.4-3308.1,11533.4-3308.1,11533.4z"/>
			<path id="Path_14284" d="M-3297.8,11514.8c-0.8-1.9,0.2-4.1,2.1-4.8c1.9-0.8,4.1,0.2,4.8,2.1c0.8,1.9-0.2,4.1-2.1,4.8
				C-3294.9,11517.6-3297,11516.7-3297.8,11514.8z"/>
			<path id="Path_14285" d="M-3304.9,11517.7c-0.6-1.4,0.1-3,1.5-3.6c1.4-0.6,3,0.1,3.6,1.5c0.6,1.4-0.1,3-1.5,3.6
				C-3302.7,11519.8-3304.3,11519.1-3304.9,11517.7C-3304.9,11517.7-3304.9,11517.7-3304.9,11517.7z"/>
			<path id="Path_14286" d="M-3309.4,11517.5c1-0.4,2,0.1,2.4,1c0.4,1-0.1,2-1,2.4c-1,0.4-2-0.1-2.4-1
				C-3310.8,11519-3310.3,11517.9-3309.4,11517.5C-3309.4,11517.5-3309.4,11517.5-3309.4,11517.5z"/>
			<path id="Path_14287" d="M-3315.2,11497c-1.9-0.8-2.8-3-2-4.9s3-2.8,4.9-2c1.9,0.8,2.8,3,2,4.9c0,0,0,0,0,0
				C-3311.2,11496.9-3313.4,11497.8-3315.2,11497z"/>
			<path id="Path_14288" d="M-3318.3,11504.1c-1.4-0.6-2.1-2.2-1.5-3.7c0.6-1.4,2.2-2.1,3.6-1.5s2.1,2.2,1.5,3.6c0,0,0,0,0,0
				C-3315.2,11504-3316.8,11504.7-3318.3,11504.1z"/>
			<path id="Path_14289" d="M-3321.6,11507.1c0.4-0.9,1.5-1.4,2.4-1c0.9,0.4,1.4,1.5,1,2.4c-0.4,0.9-1.5,1.4-2.4,1
				C-3321.5,11509.1-3322,11508-3321.6,11507.1z"/>
			<circle id="Ellipse_700" cx="-3328" cy="11527" r="9.8"/>
		</g>
	</g>
	<g id="Group_20640_00000150086317170872979450000016439660182598433465_" transform="translate(-100)" class="st0">
		<path class="st1" d="M155,25c-16.6,0-30,13.4-30,30s13.4,30,30,30s30-13.4,30-30S171.6,25,155,25z M159.6,44.2
			c1.9-2.5,4.6-4,7.4-4s5.5,1.5,7.4,4c1,1.3,0.7,3.2-0.6,4.2c-0.5,0.4-1.2,0.6-1.8,0.6c-0.9,0-1.8-0.4-2.4-1.2
			c-0.8-1-1.7-1.6-2.6-1.6s-1.8,0.6-2.6,1.6c-1,1.3-2.9,1.6-4.2,0.6C158.9,47.4,158.6,45.5,159.6,44.2z M136.6,44.2
			c1.9-2.5,4.6-4,7.4-4s5.5,1.5,7.4,4c1,1.3,0.7,3.2-0.6,4.2c-0.5,0.4-1.2,0.6-1.8,0.6c-0.9,0-1.8-0.4-2.4-1.2
			c-0.8-1-1.7-1.6-2.6-1.6s-1.8,0.6-2.6,1.6c-1,1.3-2.9,1.6-4.2,0.6C135.9,47.4,135.6,45.5,136.6,44.2z M175.9,61.8
			C170.5,69,163.3,73,155.5,73c0,0,0,0,0,0c-7.8,0-15-4-20.4-11.2c-1-1.3-0.7-3.2,0.6-4.2c1.3-1,3.2-0.7,4.2,0.6
			c4.2,5.7,9.8,8.8,15.6,8.8s11.4-3.1,15.6-8.8c1-1.3,2.9-1.6,4.2-0.6C176.6,58.5,176.9,60.4,175.9,61.8z"/>
	</g>
	<g id="Group_20640_00000145055469372445939720000012988573820423831698_" transform="translate(-100)" class="st0">
		<g id="Group_20900" transform="translate(-545 -10424.438)" class="st1">
			<path class="st3" d="M689.4,10456h21.2c2.8,0,5,2.2,5,5v15c0,2.8-2.2,5-5,5h-21.2c-2.8,0-5-2.2-5-5v-15
				C684.4,10458.2,686.6,10456,689.4,10456z"/>
			<path d="M720,10465.4h-4.4v-4.4c0-2.8-2.2-5-5-5h-21.2c-2.8,0-5,2.2-5,5v4.4H680c-2.8,0-5,2.2-5,5v27.5c0,2.8,2.2,5,5,5h40
				c2.8,0,5-2.2,5-5v-27.5C725,10467.6,722.8,10465.4,720,10465.4z M711.2,10487.2c0,0.6-0.4,1-1,1h-6.1v6.1c0,0.6-0.4,1-1,1h-5.5
				c-0.6,0-1-0.4-1-1v-6.1h-6.9c-0.6,0-1-0.4-1-1v-5.5c0-0.6,0.4-1,1-1h6.9v-6.9c0-0.6,0.4-1,1-1h5.5c0.6,0,1,0.4,1,1v6.9h6.1
				c0.6,0,1,0.4,1,1V10487.2z M711.6,10465.4h-23.2v-4.4c0-0.6,0.4-1,1-1h21.2c0.6,0,1,0.4,1,1V10465.4z"/>
		</g>
	</g>
	<g class="st0">
		<path class="st1" d="M75.3,22H34.7c-3.7,0-6.8,3-6.8,6.8v20.3c0,11.8,7.5,21.8,18.1,25.6V79c0,0,0,0,0,0c0,5,4,9,9,9c0,0,0,0,0,0
			c5,0,9-4,9-9v-4.3C74.6,71,82.1,60.9,82.1,49.1V28.8C82.1,25,79.1,22,75.3,22z M75.5,47.8c0,11.3-9.2,20.5-20.5,20.5
			c-11.3,0-20.5-9.2-20.5-20.5V35c0-2.8,2.3-5.1,5.1-5.1c2.8,0,5.1,2.3,5.1,5.1v12.8c0,5.7,4.6,10.3,10.3,10.3
			c5.7,0,10.3-4.6,10.3-10.3V35c0-2.8,2.3-5.1,5.1-5.1s5.1,2.3,5.1,5.1V47.8z"/>
	</g>
	<g id="Group_20640_00000012448172361583881400000011731333858787765435_" transform="translate(-100)" class="st0">
		<g class="st1">
			<path d="M139,39.6V27c0-2.2-1.8-4-4-4s-4,1.8-4,4v12.6c-2.4,1.4-4,4-4,6.9s1.6,5.5,4,6.9V83c0,2.2,1.8,4,4,4s4-1.8,4-4V53.4
				c2.4-1.4,4-4,4-6.9S141.4,41,139,39.6z"/>
			<path d="M159,63.6V27c0-2.2-1.8-4-4-4s-4,1.8-4,4v36.6c-2.4,1.4-4,4-4,6.9s1.6,5.5,4,6.9V83c0,2.2,1.8,4,4,4s4-1.8,4-4v-5.6
				c2.4-1.4,4-4,4-6.9S161.4,65,159,63.6z"/>
			<path d="M183,46.5c0-3-1.6-5.5-4-6.9V27c0-2.2-1.8-4-4-4s-4,1.8-4,4v12.6c-2.4,1.4-4,4-4,6.9s1.6,5.5,4,6.9V83c0,2.2,1.8,4,4,4
				s4-1.8,4-4V53.4C181.4,52,183,49.5,183,46.5z"/>
		</g>
	</g>
	<g class="st0">
		<path class="st1" d="M78,30H32c-1.1,0-2,0.9-2,2v46c0,1.1,0.9,2,2,2h13V62c0-1.1,0.9-2,2-2h16c1.1,0,2,0.9,2,2v18h13
			c1.1,0,2-0.9,2-2V32C80,30.9,79.1,30,78,30z M50,49c0,0.6-0.4,1-1,1h-8c-0.6,0-1-0.4-1-1v-8c0-0.6,0.4-1,1-1h8c0.6,0,1,0.4,1,1V49
			z M70,49c0,0.6-0.4,1-1,1h-8c-0.6,0-1-0.4-1-1v-8c0-0.6,0.4-1,1-1h8c0.6,0,1,0.4,1,1V49z"/>
	</g>
	<g class="st0">
		<path class="st1" d="M73,25H37c-1.1,0-2,0.9-2,2v56c0,1.1,0.9,2,2,2h36c1.1,0,2-0.9,2-2V27C75,25.9,74.1,25,73,25z M55.5,82
			c-1.4,0-2.5-1.1-2.5-2.5c0-1.4,1.1-2.5,2.5-2.5s2.5,1.1,2.5,2.5C58,80.9,56.9,82,55.5,82z M70,74c0,0.6-0.4,1-1,1H41
			c-0.6,0-1-0.4-1-1V31c0-0.6,0.4-1,1-1h28c0.6,0,1,0.4,1,1V74z"/>
	</g>
	<g class="st0">
		<path class="st1" d="M80,33H30c-5.5,0-10,4.5-10,10v24c0,5.5,4.5,10,10,10h50c5.5,0,10-4.5,10-10V43C90,37.5,85.5,33,80,33z
			 M30,42h14c1.7,0,3,1.3,3,3s-1.3,3-3,3H30c-1.7,0-3-1.3-3-3S28.3,42,30,42z M44,68H30c-1.7,0-3-1.3-3-3s1.3-3,3-3h14
			c1.7,0,3,1.3,3,3S45.7,68,44,68z M80,68H66c-1.7,0-3-1.3-3-3s1.3-3,3-3h14c1.7,0,3,1.3,3,3S81.7,68,80,68z M80,58H30
			c-1.7,0-3-1.3-3-3c0-1.7,1.3-3,3-3h50c1.7,0,3,1.3,3,3C83,56.7,81.7,58,80,58z"/>
	</g>
	<g class="st0">
		<path class="st4" d="M86.7,44.8l-45.8-20c-5.1-2.2-11,0.1-13.2,5.2l-9.6,22c-2.2,5.1,0.1,11,5.2,13.2l45.8,20
			c5.1,2.2,11-0.1,13.2-5.2l9.6-22C94.1,52.9,91.8,47,86.7,44.8z M39.7,62.5l-12.8-5.6c-1.5-0.7-2.2-2.4-1.6-3.9
			c0.7-1.5,2.4-2.2,3.9-1.6L42.1,57c1.5,0.7,2.2,2.4,1.6,3.9S41.2,63.2,39.7,62.5z M58.4,59.7l-27.5-12c-1.5-0.7-2.2-2.4-1.6-3.9
			c0.7-1.5,2.4-2.2,3.9-1.6l27.5,12c1.5,0.7,2.2,2.4,1.6,3.9C61.7,59.7,59.9,60.4,58.4,59.7z M68.7,76.2c-3.5-1.5-5.2-5.7-3.6-9.2
			c1.5-3.5,5.7-5.2,9.2-3.6s5.2,5.7,3.6,9.2C76.3,76.1,72.2,77.8,68.7,76.2z"/>
	</g>
	<g class="st0">
		<path class="st1" d="M80,33H30c-5.5,0-10,4.5-10,10v24c0,5.5,4.5,10,10,10h50c5.5,0,10-4.5,10-10V43C90,37.5,85.5,33,80,33z
			 M44,68H30c-1.7,0-3-1.3-3-3s1.3-3,3-3h14c1.7,0,3,1.3,3,3S45.7,68,44,68z M60,58H30c-1.7,0-3-1.3-3-3c0-1.7,1.3-3,3-3h30
			c1.7,0,3,1.3,3,3C63,56.7,61.7,58,60,58z M76,69c-3.9,0-7-3.1-7-7c0-3.9,3.1-7,7-7s7,3.1,7,7C83,65.9,79.9,69,76,69z"/>
	</g>
	<g class="st0">
		<path class="st4" d="M80,33H30c-5.5,0-10,4.5-10,10v24c0,5.5,4.5,10,10,10h50c5.5,0,10-4.5,10-10V43C90,37.5,85.5,33,80,33z
			 M32,50c-2.8,0-5-2.2-5-5s2.2-5,5-5s5,2.2,5,5S34.8,50,32,50z M63.2,63.7c-0.4-0.7-0.9-1.3-1.5-1.9c-0.9-0.9-2-1.6-3.2-2.1
			c1.3-1,2.2-2.7,2.2-4.5c0-3.1-2.6-5.7-5.7-5.7s-5.7,2.6-5.7,5.7c0,1.8,0.8,3.4,2.2,4.5c-1.2,0.5-2.3,1.2-3.2,2.1
			c-0.6,0.6-1.1,1.2-1.5,1.9C45.1,61.4,44,58.3,44,55c0-7.2,4.9-13,11-13s11,5.8,11,13C66,58.3,64.9,61.4,63.2,63.7z M78,70
			c-2.8,0-5-2.2-5-5s2.2-5,5-5s5,2.2,5,5S80.8,70,78,70z"/>
	</g>
	<g class="st0">
		<g id="Group_20914" transform="translate(-47 -114.485)" class="st1">
			<path id="Path_14300" class="st5" d="M121.6,170.6c4.6-3.9,4.2-16.9-0.8-13.5c-7,4.9-14.2,10.1-18.8,12.8
				c-6.8,3.9-14.1,7.2-21.5,9.8c-1.7,0.6-2.1,0.6-2,0.9c0,0.3,0.5,0.3,2,0.2c10.2-0.6,22.2-2.4,32.6-5.9
				C117.7,173.5,119.2,172.6,121.6,170.6"/>
			<path id="Path_14301" d="M124,187.4c7.7-3.3,11.1-15.9,4.5-13.5c-8.9,3.1-18.1,5.6-27.4,7.3c-9,1.5-18.1,2.1-27.2,1.7
				c-1,0-1.8-0.2-1.9,0.2c-0.1,0.3,0.6,0.6,1.6,1.1c8.3,3.8,22.4,6.3,37.5,5.5C118.1,189.4,121.4,188.5,124,187.4"/>
			<path id="Path_14302" class="st6" d="M112.5,156.6c3.2-6.4-2.6-16-4.7-12.2c-3.2,5.8-9.2,13.8-11.5,16.9
				c-3.4,4.6-7.2,8.9-11.3,13c-0.9,0.9-1.5,1.3-1.3,1.6s0.6,0,1.6-0.4c7.7-3.3,14.9-7.5,21.6-12.6
				C110.6,159.9,111.4,158.8,112.5,156.6"/>
		</g>
	</g>
	<g id="Group_20640_00000032624680108853704840000003209433128856449702_" transform="translate(-100)" class="st0">
		<path class="st1" d="M175,25h-40c-1.1,0-2,0.9-2,2v56c0,1.1,0.9,2,2,2h40c1.1,0,2-0.9,2-2V27C177,25.9,176.1,25,175,25z M166,66.5
			V76l-5-4l-5,4v-9.5c-2.4-1.6-4-4.4-4-7.5c0-5,4-9,9-9s9,4,9,9C170,62.1,168.4,64.9,166,66.5z"/>
	</g>
	<g class="st0">
		<g id="Group_20731_00000137844431720307185690000009555892596562931135_" transform="translate(32.152 31)" class="st1">
			<g id="Group_20687_00000093887858397772416080000002384818720729995158_" transform="translate(0 0)">
				<path id="Path_14221_00000155835931675970794440000001725754122540481214_" d="M44.8,8.8c-1.1-3.7-4-6.7-7.7-8
					c-4.8-1.5-10-0.8-14.2,1.9C18.6,0,13.4-0.7,8.6,0.8c-3.7,1.3-6.5,4.3-7.7,8C-0.9,14.3,0,20.3,3.3,25c2.2,3.2,3.6,6.8,4.2,10.6
					c0,0.2,0.1,0.4,0.1,0.7c0.3,3.2,1.1,6.3,2.2,9.3c1.1,2.7,2.6,4.2,4.4,4.4c1.9,0.2,3.4-1.4,4.6-4.6c1-2.8,1.6-5.7,1.9-8.6
					c0.1-1.5,0.6-3,1.4-4.3c0.3-0.4,0.9-0.5,1.3-0.2c0.1,0.1,0.2,0.1,0.2,0.2c0.8,1.3,1.3,2.8,1.4,4.3c0.3,2.9,0.9,5.8,1.9,8.6
					c1.1,3.1,2.6,4.7,4.3,4.7c0.1,0,0.2,0,0.3,0c1.8-0.2,3.3-1.7,4.4-4.4c1.1-3,1.9-6.1,2.2-9.3c0-0.2,0.1-0.4,0.1-0.6
					c0.6-3.8,2-7.5,4.2-10.7C45.7,20.3,46.5,14.3,44.8,8.8z"/>
			</g>
		</g>
	</g>
	<g class="st0">
		<g id="Group_20731_00000147903544639928336740000009053271034778617518_" transform="translate(32.152 31)" class="st1">
			<g id="Group_20687_00000120539421355899133420000011432386501145300126_" transform="translate(0 0)">
				<path id="Path_14221_00000129913479210894203400000011194892325554872239_" class="st7" d="M50,23.1c1-3.8,0.2-7.8-2.2-10.9
					c-3.3-3.8-8-6-13.1-6c-2.1-4.6-6.1-7.9-11-9.3C20-3.9,16-3,13-0.4c-4.4,3.7-6.9,9.2-6.6,15c0.1,3.9-0.6,7.7-2.2,11.2
					C4.1,26,4,26.2,3.9,26.4c-1.4,2.9-2.5,5.9-3.1,9c-0.5,2.9,0,5,1.4,6.1c1.5,1.2,3.6,0.7,6.4-1.4c2.3-1.9,4.4-4,6.2-6.3
					c0.9-1.2,2.1-2.2,3.5-2.9c0.5-0.2,1,0,1.2,0.5c0,0.1,0.1,0.2,0.1,0.3c0,1.5-0.4,3-1.2,4.4c-1.3,2.6-2.4,5.4-3.1,8.3
					c-0.7,3.2-0.3,5.3,1.2,6.3c0.1,0.1,0.2,0.1,0.3,0.1c1.6,0.8,3.6,0.4,6.1-1.3c2.6-1.9,4.9-4.2,6.8-6.7c0.1-0.2,0.3-0.3,0.4-0.5
					c2.5-2.9,5.7-5.2,9.3-6.8C44.6,33.2,48.6,28.7,50,23.1z"/>
			</g>
		</g>
	</g>
	<g class="st0">
		<g id="Group_20735" transform="translate(-656 -2339)" class="st1">
			<path d="M735,2393l-10-15l10-15h-33c-1.7,0-3,1.3-3,3v27v26h-9c-1.7,0-3,1.3-3,3s1.3,3,3,3h24c1.7,0,3-1.3,3-3s-1.3-3-3-3h-9v-26
				H735z M708.3,2374.5c0.3-1,1.1-1.9,2.2-2.3c1.3-0.4,2.8-0.2,4,0.5c1.2-0.8,2.6-1,4-0.5c1,0.4,1.8,1.2,2.2,2.3
				c0.5,1.5,0.2,3.2-0.7,4.5c-0.6,0.9-1,1.9-1.2,3c0,0.1,0,0.1,0,0.2c-0.1,0.9-0.3,1.8-0.6,2.6c-0.3,0.8-0.7,1.2-1.2,1.2
				c0,0-0.1,0-0.1,0c-0.5,0-0.9-0.4-1.2-1.3c-0.3-0.8-0.4-1.6-0.5-2.4c0-0.4-0.2-0.8-0.4-1.2c0,0,0,0-0.1-0.1
				c-0.1-0.1-0.3-0.1-0.4,0.1c-0.2,0.4-0.4,0.8-0.4,1.2c-0.1,0.8-0.3,1.6-0.5,2.4c-0.3,0.9-0.8,1.4-1.3,1.3
				c-0.5-0.1-0.9-0.5-1.2-1.2c-0.3-0.8-0.5-1.7-0.6-2.6c0-0.1,0-0.1,0-0.2c-0.2-1.1-0.6-2.1-1.2-3
				C708,2377.7,707.8,2376,708.3,2374.5z"/>
			<path class="st7" d="M735,2407.2l-10-15l10-15h-30V2366c0-1.7-1.3-3-3-3s-3,1.3-3,3v14.2v27v11.8h-9c-1.7,0-3,1.3-3,3s1.3,3,3,3
				h24c1.7,0,3-1.3,3-3s-1.3-3-3-3h-9v-11.8H735z M708.3,2388.7c0.3-1,1.1-1.9,2.2-2.3c1.3-0.4,2.8-0.2,4,0.5c1.2-0.8,2.6-1,4-0.5
				c1,0.4,1.8,1.2,2.2,2.3c0.5,1.5,0.2,3.2-0.7,4.5c-0.6,0.9-1,1.9-1.2,3c0,0.1,0,0.1,0,0.2c-0.1,0.9-0.3,1.8-0.6,2.6
				c-0.3,0.8-0.7,1.2-1.2,1.2c0,0-0.1,0-0.1,0c-0.5,0-0.9-0.4-1.2-1.3c-0.3-0.8-0.4-1.6-0.5-2.4c0-0.4-0.2-0.8-0.4-1.2
				c0,0,0,0-0.1-0.1c-0.1-0.1-0.3-0.1-0.4,0.1c-0.2,0.4-0.4,0.8-0.4,1.2c-0.1,0.8-0.3,1.6-0.5,2.4c-0.3,0.9-0.8,1.4-1.3,1.3
				c-0.5-0.1-0.9-0.5-1.2-1.2c-0.3-0.8-0.5-1.7-0.6-2.6c0-0.1,0-0.1,0-0.2c-0.2-1.1-0.6-2.1-1.2-3
				C708,2391.9,707.8,2390.2,708.3,2388.7z"/>
		</g>
	</g>
	<g class="st0">
		<g id="apple" transform="translate(-13.689 25)" class="st1">
			<g id="Group_20730" transform="translate(43.827 0)">
				<path id="Path_14234" d="M46.7,23.8c-6-8.5-13.4-6.7-18.2-5.4c-0.5,0.1-1,0.3-1.5,0.4c0.6-5.2,3.4-9.3,8.5-12.4l-2-3.3
					c-2.5,1.5-4.7,3.4-6.6,5.7c-0.6-1.9-1.6-3.6-2.9-5C21.4,1.2,17.7-0.1,12.7,0l-1.9,0l0,1.9c-0.1,4.9,1.2,8.7,3.7,11.2
					c2.4,2.2,5.5,3.5,8.7,3.6c-0.1,0.6-0.2,1.3-0.3,2c-0.5-0.1-1.1-0.3-1.7-0.4c-4.9-1.2-12.2-3.1-18.2,5.4c-2.9,4.1-3.7,9.6-2.5,16
					C2,47.3,6.4,55.1,10.7,57.9c5.3,3.4,9.7,1.8,12.4,0.8c0.6-0.2,1.2-0.4,1.8-0.5c0.6,0.1,1.2,0.3,1.8,0.5c1.8,0.8,3.8,1.2,5.8,1.2
					c2.4,0,4.7-0.7,6.7-2.1c4.3-2.8,8.7-10.6,10.2-18.2C50.4,33.4,49.5,27.9,46.7,23.8z"/>
			</g>
		</g>
		<path class="st4" d="M65,61c0-6.6,4.3-12.2,10.2-14.2c-5.7-6.2-12.2-4.6-16.7-3.4c-0.5,0.1-1,0.3-1.5,0.4
			c0.6-5.2,3.4-9.3,8.5-12.4l-2-3.3c-2.5,1.5-4.7,3.4-6.6,5.7c-0.6-1.9-1.6-3.6-2.9-5c-2.5-2.5-6.3-3.8-11.2-3.7L41,25l0,1.9
			c-0.1,4.9,1.2,8.7,3.7,11.2c2.4,2.2,5.5,3.5,8.7,3.6c-0.1,0.6-0.2,1.3-0.3,2c-0.5-0.1-1.1-0.3-1.7-0.4c-4.9-1.2-12.2-3.1-18.2,5.4
			c-2.9,4.1-3.7,9.6-2.5,16c1.5,7.5,5.8,15.3,10.2,18.2c5.3,3.4,9.7,1.8,12.4,0.8c0.6-0.2,1.2-0.4,1.8-0.5c0.6,0.1,1.2,0.3,1.8,0.5
			c1.8,0.8,3.8,1.2,5.8,1.2c2.4,0,4.7-0.7,6.7-2.1c2.2-1.5,4.5-4.2,6.3-7.6C69.4,73.4,65,67.7,65,61z"/>
	</g>
	<g class="st0">
		<g id="Group_20789_00000183927299393246085380000004764417675432593338_" transform="translate(-8001.86 -9687.572)" class="st1">
			<path d="M8083.2,9723.2c-1.6-4.8-5-8.3-9.2-9.6c-5.8-1.8-12-0.9-17.1,2.3c-5.1-3.2-11.3-4.1-17.1-2.3c-4.2,1.4-7.6,4.9-9.2,9.7
				c-2.1,6.6-1,13.7,2.9,19.4c2.6,3.8,4.3,8.2,5,12.8c0,0.3,0.1,0.5,0.1,0.8c0.4,3.8,1.3,7.6,2.6,11.2c1.4,3.3,3.2,5,5.3,5.3
				c2.3,0.2,4.1-1.7,5.6-5.6c1.1-3.4,1.9-6.8,2.2-10.4c0.1-1.8,0.7-3.6,1.6-5.2c0.4-0.5,1-0.6,1.5-0.3c0.1,0.1,0.2,0.2,0.3,0.3
				c1,1.6,1.5,3.3,1.6,5.2c0.3,3.5,1.1,7,2.2,10.4c1.4,3.7,3.1,5.6,5.2,5.6c0.1,0,0.2,0,0.4,0c2.1-0.2,3.9-2,5.3-5.3
				c1.4-3.6,2.3-7.4,2.6-11.2c0-0.3,0.1-0.5,0.1-0.8c0.7-4.6,2.4-9,5-12.8C8084.2,9736.9,8085.3,9729.7,8083.2,9723.2z
				 M8056.9,9745.7c-6.6,0-12-5.4-12-12s5.4-12,12-12s12,5.4,12,12S8063.5,9745.7,8056.9,9745.7z"/>
			<path d="M8062.5,9731.4h-3.3v-3.3c0-1.1-0.9-2-2-2h-0.6c-1.1,0-2,0.9-2,2v3.3h-3.3c-1.1,0-2,0.9-2,2v0.6c0,1.1,0.9,2,2,2h3.3v3.3
				c0,1.1,0.9,2,2,2h0.6c1.1,0,2-0.9,2-2v-3.3h3.3c1.1,0,2-0.9,2-2v-0.6C8064.5,9732.3,8063.6,9731.4,8062.5,9731.4z"/>
			<path class="st7" d="M8102.5,9731.4h-3.3v-3.3c0-1.1-0.9-2-2-2h-0.6c-1.1,0-2,0.9-2,2v3.3h-3.3c-1.1,0-2,0.9-2,2v0.6
				c0,1.1,0.9,2,2,2h3.3v3.3c0,1.1,0.9,2,2,2h0.6c1.1,0,2-0.9,2-2v-3.3h3.3c1.1,0,2-0.9,2-2v-0.6
				C8104.5,9732.3,8103.6,9731.4,8102.5,9731.4z"/>
		</g>
		<path class="st4" d="M25.6,69.9h-3.3v-3.3c0-1.1-0.9-2-2-2h-0.6c-1.1,0-2,0.9-2,2v3.3h-3.3c-1.1,0-2,0.9-2,2v0.6c0,1.1,0.9,2,2,2
			h3.3v3.3c0,1.1,0.9,2,2,2h0.6c1.1,0,2-0.9,2-2v-3.3h3.3c1.1,0,2-0.9,2-2v-0.6C27.6,70.8,26.7,69.9,25.6,69.9z"/>
	</g>
	<g class="st0">
		<g id="Group_20733_00000045591936538614838050000002309356749824005283_" transform="translate(-479.141 -20.073)" class="st1">
			<path id="Path_14235_00000003815952654935767790000012800365403466673855_" d="M526.7,70.2c5,0.8,10,0.8,15,0v-3.6
				c0-5.1,2.8-6.9,2.8-11.1c0-5.7-4.6-10.3-10.3-10.3c-5.7,0-10.3,4.6-10.3,10.3c0,4.3,2.8,6.1,2.8,11.1L526.7,70.2z"/>
			<path id="Path_14236_00000131365814995281105930000006689929040605771399_" d="M554.6,71.4c-4.8,0.3-9.3,3.4-20.4,3.4
				s-15.6-3.1-20.4-3.4s-4.4,3.7-3.5,4.8c1.2,1.4,3.3,3.4,9.5,4.6c0.2,0-3.1,0.9-3.1,4.4v3.3c0,10.2,7.8,16.6,17.5,16.6c0,0,0,0,0,0
				s0,0,0.1,0c9.6,0,17.5-6.4,17.5-16.6v-3.3c0-3.4-3.3-4.3-3.1-4.4c6.2-1.2,8.3-3.2,9.5-4.6C559,75.1,559.3,71.1,554.6,71.4z
				 M547.4,88.5c0,8.5-6.6,12.3-13.2,12.3h-0.1h0c-6.6,0-13.2-3.8-13.2-12.3v-1.9c0-0.8,0.6-1.4,1.4-1.4h4.1v2.6c0,1.6,1.4,3,7.6,3
				c0,0,0,0,0,0c0,0,0,0,0,0c6.2,0,7.6-1.3,7.6-3v-2.6h4.1c0.8,0,1.4,0.6,1.4,1.4L547.4,88.5z"/>
		</g>
	</g>
	<g class="st0">
		<g id="Group_20733_00000124863520840491823310000008486696465030610063_" transform="translate(-479.141 -20.073)" class="st1">
			<path id="Path_14235_00000116922096782477940790000002906390184837865880_" class="st7" d="M530.7,66.8c3.7,3.4,7.9,6.3,12.4,8.4
				l2-3c2.8-4.2,6.2-4.1,8.6-7.7c3.2-4.7,1.9-11.1-2.8-14.3c-4.7-3.2-11.1-1.9-14.3,2.8c-2.4,3.5-1.1,6.6-3.9,10.8L530.7,66.8z"/>
			<path id="Path_14236_00000052801599079141328590000011645683172243549363_" class="st7" d="M553.1,83.5
				c-4.1-2.4-9.6-2.4-18.8-8.6c-9.2-6.2-11.2-11.3-15-14.3c-3.8-2.9-5.7,0.6-5.6,2c0.2,1.9,0.8,4.7,5.3,9.1c0.1,0.1-3.1-0.9-5,1.9
				l-1.9,2.8c-5.7,8.4-2.8,18.1,5.2,23.5c0,0,0,0,0,0c0,0,0,0,0,0c8,5.4,18,4.5,23.7-3.9l1.9-2.8c1.9-2.8-0.3-5.4-0.1-5.3
				c5.8,2.5,8.7,2,10.4,1.5C554.7,89,557.2,85.9,553.1,83.5z M537.6,93.6c-4.7,7-12.3,6.4-17.8,2.8l0,0l0,0
				c-5.4-3.7-8.8-10.5-4-17.5l1.1-1.6c0.4-0.7,1.3-0.8,2-0.4l3.4,2.3l-1.4,2.1c-0.9,1.4-0.5,3.3,4.6,6.7c0,0,0,0,0,0c0,0,0,0,0,0
				c5.1,3.5,7,3.2,7.9,1.8l1.4-2.1l3.4,2.3c0.7,0.4,0.8,1.3,0.4,2L537.6,93.6z"/>
		</g>
	</g>
	<g class="st0">
		<path d="M82.4,71.4L57.6,28.5c-0.3-0.5-0.6-0.8-1.1-1.1c-1.4-0.8-3.3-0.3-4.1,1.1L27.6,71.4c-0.3,0.5-0.4,1-0.4,1.5
			c0,1.7,1.3,3,3,3h49.6c0.5,0,1-0.1,1.5-0.4C82.7,74.7,83.2,72.9,82.4,71.4z M55.5,71C53,71,51,69,51,66.5s2-4.5,4.5-4.5
			s4.5,2,4.5,4.5S58,71,55.5,71z M60,56c0,1.1-0.9,2-2,2h-5c-1.1,0-2-0.9-2-2V44c0-1.1,0.9-2,2-2h5c1.1,0,2,0.9,2,2V56z"/>
		<path class="st7" d="M63,46.7c0-2.1-0.8-4-2.3-5.4c-3-3-7.9-3-10.9,0c-1.2,1.2-1.2,3.1,0,4.2c1.2,1.2,3.1,1.2,4.2,0
			c0.7-0.7,1.7-0.7,2.4,0c0.3,0.3,0.5,0.7,0.5,1.2c0,0.5-0.2,0.9-0.5,1.2c-0.3,0.3-0.7,0.5-1.2,0.5c-0.1,0-0.2,0-0.4,0
			c-0.1,0-0.2,0-0.4,0c-1.7,0-3,1.3-3,3v4.1c0,1.7,1.3,3,3,3c1.7,0,3-1.3,3-3V54c1.2-0.4,2.3-1,3.2-1.9C62.2,50.7,63,48.7,63,46.7z"
			/>
	</g>
	<g class="st0">
		<g id="Group_20744" transform="translate(-250 -6595)" class="st1">
			<g>
				<path class="st3" d="M296,6633h18c3.3,0,6,2.7,6,6v12c0,3.3-2.7,6-6,6h-18c-3.3,0-6-2.7-6-6v-12C290,6635.7,292.7,6633,296,6633
					z"/>
			</g>
			<g>
				<polygon points="314,6639 296,6639 296,6639 296,6642 314,6642 				"/>
				<path d="M320,6648v3c0,3.3-2.7,6-6,6h-18c-3.3,0-6-2.7-6-6v-3h-9.2c0.4,0.7,0.8,1.4,1.2,2c2.6,3.8,4.3,8.2,5,12.8
					c0,0.3,0.1,0.5,0.1,0.8c0.4,3.8,1.3,7.6,2.6,11.2c1.4,3.3,3.2,5,5.3,5.3c2.3,0.2,4.1-1.7,5.6-5.6c1.1-3.4,1.9-6.8,2.2-10.4
					c0.1-1.8,0.7-3.6,1.6-5.2c0.4-0.5,1-0.6,1.5-0.3c0.1,0.1,0.2,0.2,0.3,0.3c1,1.6,1.5,3.3,1.6,5.2c0.3,3.5,1.1,7,2.2,10.4
					c1.4,3.7,3.1,5.6,5.2,5.6c0.1,0,0.2,0,0.4,0c2.1-0.2,3.9-2,5.3-5.3c1.4-3.6,2.3-7.4,2.6-11.2c0-0.3,0.1-0.5,0.1-0.8
					c0.7-4.6,2.4-9,5-12.8c0.4-0.6,0.9-1.3,1.2-2H320z"/>
				<path d="M290,6642v-3c0-3.3,2.7-6,6-6h18c3.3,0,6,2.7,6,6v3h12.3c0.8-3.7,0.6-7.7-0.6-11.4c-1.6-4.8-5-8.3-9.2-9.6
					c-5.8-1.8-12-0.9-17.1,2.3c-5.1-3.2-11.3-4.1-17.1-2.3c-4.2,1.4-7.6,4.9-9.2,9.7c-1.2,3.7-1.4,7.7-0.6,11.4H290z"/>
				<rect x="296" y="6648" width="18" height="3"/>
			</g>
		</g>
	</g>
	<g class="st0">
		<g id="Group_20744_00000000185945884744551580000012440098708057661095_" transform="translate(-250 -6595)" class="st1">
			<g>
				<path class="st3" d="M306.6,6630.6l15.2,9.6c2.8,1.8,3.6,5.5,1.9,8.3l-6.4,10.1c-1.8,2.8-5.5,3.6-8.3,1.9l-15.2-9.6
					c-2.8-1.8-3.6-5.5-1.9-8.3l6.4-10.1C300.1,6629.7,303.8,6628.8,306.6,6630.6z"/>
			</g>
			<g>
				<polygon class="st7" points="318.6,6645.3 303.4,6635.7 303.4,6635.7 301.8,6638.2 317,6647.8 				"/>
				<path class="st7" d="M318.8,6656.1l-1.6,2.5c-1.8,2.8-5.5,3.6-8.3,1.9l-15.2-9.6c-2.8-1.8-3.6-5.5-1.9-8.3l1.6-2.5l-7.8-4.9
					c0,0.8-0.1,1.6,0,2.4c0.2,4.6-0.7,9.2-2.6,13.5c-0.1,0.2-0.2,0.5-0.3,0.7c-1.7,3.4-3,7.1-3.8,10.9c-0.6,3.5,0,5.9,1.7,7.3
					c1.8,1.4,4.4,0.8,7.7-1.7c2.8-2.2,5.3-4.8,7.4-7.6c1.1-1.5,2.5-2.7,4.1-3.5c0.6-0.2,1.2,0,1.4,0.6c0,0.1,0.1,0.2,0.1,0.4
					c0,1.8-0.5,3.6-1.4,5.2c-1.6,3.2-2.8,6.5-3.7,9.9c-0.8,3.9-0.4,6.4,1.4,7.5c0.1,0.1,0.2,0.1,0.3,0.2c1.9,1,4.4,0.4,7.3-1.6
					c3.1-2.3,5.8-5,8.2-8c0.2-0.2,0.3-0.4,0.5-0.6c3-3.5,6.8-6.3,11.1-8.1c0.7-0.3,1.4-0.6,2.1-1L318.8,6656.1z"/>
				<path class="st7" d="M296.7,6635l1.6-2.5c1.8-2.8,5.5-3.6,8.3-1.9l15.2,9.6c2.8,1.8,3.6,5.5,1.9,8.3l-1.6,2.5l10.4,6.6
					c2.7-2.7,4.6-6.1,5.6-9.9c1.2-4.9,0.2-9.7-2.6-13.1c-3.9-4.6-9.6-7.2-15.7-7.2c-2.6-5.5-7.4-9.5-13.2-11.1
					c-4.3-1.1-9,0.1-13,3.2c-3,2.5-5.3,5.7-6.6,9.3L296.7,6635z"/>
				
					<rect x="303.8" y="6640.4" transform="matrix(0.5355 -0.8446 0.8446 0.5355 -5473.8862 3346.6758)" class="st7" width="3" height="18"/>
			</g>
		</g>
	</g>
	<g class="st0">
		<g id="Group_20745" transform="translate(-648 -6598)" class="st1">
			<g>
				<circle class="st3" cx="703" cy="6648" r="28"/>
			</g>
			<path d="M731,6648c0-15.4-12.6-28-28-28s-28,12.6-28,28c0,10.3,5.6,19.4,14,24.2c0,0,0,0,0,0c0,7.7,6.3,14,14,14s14-6.3,14-14
				c0,0,0,0,0,0C725.4,6667.4,731,6658.3,731,6648z M714.5,6664.3c-2.5-3.7-6.7-6.1-11.5-6.1s-9,2.4-11.5,6.1
				c-5.1-3.6-8.5-9.6-8.5-16.3c0-11,9-20,20-20c11,0,20,9,20,20C723,6654.7,719.6,6660.7,714.5,6664.3z"/>
			<path class="st7" d="M675,6658.3c0,15.4,12.6,28,28,28s28-12.6,28-28c0-10.3-5.6-19.4-14-24.2c0,0,0,0,0,0c0-7.7-6.3-14-14-14
				s-14,6.3-14,14c0,0,0,0,0,0C680.6,6638.9,675,6647.9,675,6658.3z M691.5,6641.9c2.5,3.7,6.7,6.1,11.5,6.1s9-2.4,11.5-6.1
				c5.1,3.6,8.5,9.6,8.5,16.3c0,11-9,20-20,20c-11,0-20-9-20-20C683,6651.5,686.4,6645.6,691.5,6641.9z"/>
		</g>
	</g>
	<g class="st0">
		<g id="Group_20692_00000121276893274859545140000014283749356866133402_" transform="translate(-614 -9611)" class="st1">
			<path d="M686.1,9654.3h-34.2c-1.5,0-2.8,1.2-2.8,2.8l5.5,35.9c0,1.5,1.2,2.8,2.8,2.8h23.2c1.5,0,2.8-1.2,2.8-2.8l5.5-35.9
				C688.9,9655.6,687.6,9654.3,686.1,9654.3z M678.9,9689.1c0,0.9-0.7,1.7-1.7,1.7h-16.6c-0.9,0-1.7-0.7-1.7-1.7l-2.2-15.5
				c0-0.9,0.7-1.7,1.7-1.7h21c0.9,0,1.7,0.7,1.7,1.7L678.9,9689.1z"/>
			<circle id="Ellipse_639_00000013904287500285758000000000890680903912682168_" cx="660.7" cy="9646.6" r="3.9"/>
			<circle id="Ellipse_640_00000104685707695479055890000001920189656786721191_" cx="673.4" cy="9640.5" r="3.9"/>
		</g>
	</g>
	<g class="st0">
		
			<g id="Group_20789_00000012446260651440906960000013151267315733456297_" transform="translate(-7980.568 -9667.572)" class="st1">
			<path d="M8057.4,9706.4c-1.4-4-4.1-6.9-7.6-8c-6.6-2.1-12.1,0.6-14.2,1.9c-2.1-1.3-7.5-4-14.2-1.9c-3.5,1.1-6.3,4-7.6,8
				c-1.8,5.2-0.9,11.2,2.4,16.1c2.2,3.2,3.6,6.8,4.2,10.6c0,0.2,0.1,0.4,0.1,0.7c0.5,3.9,1.2,7,2.2,9.3c1.1,2.7,2.6,4.2,4.4,4.3
				c1.9,0.2,3.4-1.4,4.6-4.6c0.9-2.8,1.6-5.7,1.8-8.6c0.1-1.5,0.6-3,1.4-4.3c0.3-0.4,0.9-0.5,1.3-0.2c0.1,0.1,0.2,0.1,0.2,0.2
				c0.8,1.3,1.3,2.8,1.4,4.3c0.3,2.9,0.9,5.8,1.8,8.6c1.1,3.1,2.6,4.6,4.3,4.6c0.1,0,0.2,0,0.3,0c1.8-0.2,3.2-1.6,4.4-4.3
				c1-2.3,1.7-5.4,2.2-9.3c0-0.2,0.1-0.4,0.1-0.6c0.6-3.8,2-7.4,4.2-10.6C8058.3,9717.6,8059.2,9711.6,8057.4,9706.4z
				 M8035.6,9725.1c-5.5,0-9.9-4.4-9.9-9.9c0-5.5,4.4-9.9,9.9-9.9c5.5,0,9.9,4.4,9.9,9.9C8045.5,9720.6,8041.1,9725.1,8035.6,9725.1
				z"/>
			<path d="M8040.8,9713.3h-3.3v-3.3c0-0.6-0.5-1.1-1.1-1.1h-1.6c-0.6,0-1.1,0.5-1.1,1.1v3.3h-3.3c-0.6,0-1.1,0.5-1.1,1.1v1.6
				c0,0.6,0.5,1.1,1.1,1.1h3.3v3.3c0,0.6,0.5,1.1,1.1,1.1h1.6c0.6,0,1.1-0.5,1.1-1.1v-3.3h3.3c0.6,0,1.1-0.5,1.1-1.1v-1.6
				C8041.9,9713.7,8041.4,9713.3,8040.8,9713.3z"/>
		</g>
	</g>
	<g class="st0">
		<g id="Group_20691_00000029741277240174107510000001456430861237023122_" transform="translate(-215 -9615)" class="st1">
			<g id="Group_20688_00000106136003889082110200000005275988510901187978_" transform="translate(273.014 9670)">
				<g id="Group_20687_00000068635144907197746340000000042573672459252886_" transform="translate(0 0)">
					<path id="Path_14221_00000124128805884678905970000000868675599140780449_" d="M13.9-12.6c-1.1-3.1-3.2-5.3-5.9-6.2
						c-3.7-1.1-7.7-0.6-11,1.5c-3.3-2.1-7.3-2.6-11-1.5c-2.7,0.9-4.9,3.1-5.9,6.2c-1.4,4.2-0.7,8.9,1.9,12.5
						c1.7,2.5,2.8,5.3,3.2,8.2c0,0.2,0,0.3,0.1,0.5c0.3,2.5,0.8,4.9,1.7,7.2c0.9,2.1,2,3.2,3.4,3.4c1.5,0.1,2.7-1.1,3.6-3.6
						c0.7-2.2,1.2-4.4,1.4-6.7c0.1-1.2,0.4-2.3,1.1-3.3c0.2-0.3,0.7-0.4,1-0.2c0.1,0,0.1,0.1,0.2,0.2c0.6,1,1,2.1,1.1,3.3
						c0.2,2.3,0.7,4.5,1.4,6.7c0.9,2.4,2,3.6,3.4,3.6c0.1,0,0.2,0,0.2,0c1.4-0.1,2.5-1.3,3.4-3.4c0.9-2.3,1.4-4.7,1.7-7.2
						c0-0.2,0-0.3,0.1-0.5c0.4-3,1.6-5.8,3.2-8.3C14.6-3.7,15.3-8.4,13.9-12.6z"/>
				</g>
			</g>
			<path id="Polygon_8_00000154403380545561779270000000361128418846254744_" d="M292.6,9638.4l2.1,6.2l6.2,2.1l-6.2,2.1l-2.1,6.2
				l-2.1-6.2l-6.2-2.1l6.2-2.1L292.6,9638.4z"/>
			<path id="Polygon_9_00000002385195562458178420000007089330599886093974_" d="M247.4,9680.9l2.1,6.2l6.2,2.1l-6.2,2.1l-2.1,6.2
				l-2.1-6.2l-6.2-2.1l6.2-2.1L247.4,9680.9z"/>
		</g>
	</g>
	<g class="st0">
		<g class="st1">
			<path d="M75.1,44.1c-0.1-1.2-0.3-2.4-0.7-3.5c-1.2-3.5-3.7-6.1-6.8-7.1c-4.2-1.3-8.8-0.7-12.6,1.7c-3.7-2.4-8.3-3-12.6-1.7
				c-3.1,1-5.6,3.6-6.8,7.1c-0.4,1.2-0.6,2.3-0.7,3.5H75.1z"/>
			<path d="M35.4,49.7c0.5,1.9,1.3,3.6,2.4,5.2c1.9,2.8,3.2,6,3.7,9.4c0,0.2,0.1,0.4,0.1,0.6c0.3,2.8,0.9,5.6,1.9,8.2
				c1,2.4,2.3,3.7,3.9,3.9c1.7,0.2,3-1.2,4.1-4.1c0.8-2.5,1.4-5,1.6-7.6c0.1-1.3,0.5-2.6,1.2-3.8c0.3-0.4,0.8-0.4,1.1-0.2
				c0.1,0.1,0.1,0.1,0.2,0.2c0.7,1.1,1.1,2.4,1.2,3.8c0.3,2.6,0.8,5.2,1.6,7.6c1,2.7,2.3,4.1,3.8,4.1c0.1,0,0.2,0,0.3,0
				c1.6-0.2,2.9-1.5,3.9-3.9c1-2.6,1.7-5.4,1.9-8.2c0-0.2,0-0.4,0.1-0.6c0.5-3.4,1.8-6.6,3.7-9.4c1.1-1.6,1.9-3.4,2.4-5.2H35.4z"/>
		</g>
	</g>
	<g class="st0">
		<path id="Path_14307_00000132084322589283628220000005060425883528047512_" class="st1" d="M86.4,59.6L86.4,59.6
			c0.4-0.8,0.8-1.6,1.2-2.5l0-0.1c0.1-0.2,0.2-0.5,0.3-0.7l0.1-0.1c0.1-0.2,0.2-0.5,0.3-0.7c0,0,0-0.1,0-0.1
			c0.2-0.6,0.4-1.1,0.6-1.7c0,0,0-0.1,0-0.1c0.1-0.2,0.1-0.5,0.2-0.7c0-0.1,0-0.2,0.1-0.2c0.1-0.2,0.1-0.4,0.2-0.6
			c0-0.1,0-0.2,0.1-0.3c0.1-0.2,0.1-0.4,0.2-0.7c0-0.1,0-0.1,0-0.2c0.1-0.3,0.1-0.6,0.2-0.9c0.6-3-1.4-6-4.5-6.6
			c-0.3-0.1-0.7-0.1-1-0.1H25.8c-3.1,0-5.6,2.5-5.6,5.6c0,0.4,0,0.7,0.1,1c0,0,0,0.1,0,0.1c0,0.2,0.1,0.5,0.1,0.7
			c0,0.1,0,0.2,0.1,0.3c0,0.2,0.1,0.3,0.1,0.5c0,0.1,0.1,0.2,0.1,0.3c0,0.2,0.1,0.3,0.1,0.5c0,0.1,0.1,0.2,0.1,0.3
			c0.1,0.2,0.1,0.4,0.2,0.6c0,0.1,0,0.2,0.1,0.3c0.1,0.3,0.2,0.5,0.3,0.8l0,0.1c0.1,0.2,0.2,0.5,0.3,0.7c0,0.1,0.1,0.2,0.1,0.2
			c0.1,0.2,0.1,0.4,0.2,0.6c0,0.1,0.1,0.2,0.1,0.2c0.1,0.2,0.2,0.4,0.2,0.6c0,0.1,0.1,0.1,0.1,0.2c0.1,0.3,0.2,0.5,0.3,0.8l0,0
			c0.2,0.5,0.5,1.1,0.8,1.6l0.1,0.1c0.1,0.2,0.2,0.5,0.4,0.7l0.1,0.1c0.1,0.2,0.3,0.5,0.4,0.7l0,0c0.5,0.8,0.9,1.5,1.4,2.3l0,0l0,0
			c11.1,16,33.1,20,49.2,8.9c4.5-3.1,8.2-7.2,10.8-12l0,0C86.1,60.1,86.2,59.8,86.4,59.6z M55,73c-9.9,0-19.2-5-24.7-13.2
			c7.5-4.9,17.2-4.9,24.7,0c7.5-4.9,17.2-4.9,24.7,0C74.2,68.1,64.9,73,55,73L55,73z"/>
	</g>
	<g class="st0">
		<g id="Group_20695_00000029042209889648868160000016753091455948699019_" transform="translate(-625 -10404)" class="st1">
			<path class="st3" d="M669,10437.9H691c1.5,0,2.8,1.2,2.8,2.8v16.6c0,1.5-1.2,2.8-2.8,2.8H669c-1.5,0-2.8-1.2-2.8-2.8v-16.6
				C666.2,10439.2,667.4,10437.9,669,10437.9z"/>
			<path d="M699.3,10446.2h-5.5v-5.5c0-1.5-1.2-2.8-2.8-2.8H669c-1.5,0-2.8,1.2-2.8,2.8v5.5h-5.5c-1.5,0-2.8,1.2-2.8,2.8v27.6
				c0,1.5,1.2,2.8,2.8,2.8h38.6c1.5,0,2.8-1.2,2.8-2.8v-27.6C702.1,10447.4,700.8,10446.2,699.3,10446.2z M689.9,10465.9
				c0,0.3-0.2,0.6-0.6,0.6h-5.7v5.7c0,0.3-0.2,0.6-0.6,0.6h-5.5c-0.3,0-0.6-0.2-0.6-0.6v-5.7h-6.4c-0.3,0-0.6-0.2-0.6-0.6v-5.5
				c0-0.3,0.2-0.6,0.6-0.6h6.4v-6.4c0-0.3,0.2-0.6,0.6-0.6h5.5c0.3,0,0.6,0.2,0.6,0.6v6.4h5.7c0.3,0,0.6,0.2,0.6,0.6V10465.9z
				 M690.5,10446.2h-21v-5h21V10446.2z"/>
		</g>
	</g>
	<g class="st0">
		<path class="st1" d="M71.6,32.8H38.4c-3,0-5.5,2.5-5.5,5.5v16.6c0,9.6,6.1,17.8,14.7,20.8v3.5c0,0,0,0,0,0c0,4.1,3.3,7.4,7.4,7.4
			c0,0,0,0,0,0c4.1,0,7.4-3.3,7.4-7.4v-3.5c8.6-3,14.7-11.2,14.7-20.8V38.4C77.1,35.3,74.6,32.8,71.6,32.8z M71.7,53.9
			c0,9.2-7.5,16.6-16.6,16.7c-9.2,0-16.7-7.5-16.7-16.6V43.4c0-2.3,1.9-4.1,4.1-4.1c2.3,0,4.1,1.9,4.1,4.1v10.4
			c0,4.6,3.8,8.4,8.4,8.4c4.6,0,8.4-3.8,8.4-8.4V43.4c0-2.3,1.9-4.1,4.1-4.1c2.3,0,4.1,1.9,4.1,4.1V53.9z"/>
	</g>
	<g class="st0">
		<path class="st1" d="M73.9,61.3c4.8-3.9,6.2-10.7,3-16.2c-2.6-4.5-7.5-6.8-12.3-6.3c-0.7-0.5-1.4-0.9-2.3-1.1
			c-3.7-1.1-7.7-0.6-11,1.5c-3.3-2.1-7.3-2.6-11-1.5c-2.7,0.9-4.9,3.1-5.9,6.2c-1.4,4.2-0.7,8.9,1.9,12.5c1.7,2.5,2.8,5.3,3.2,8.2
			c0,0.2,0,0.3,0.1,0.5c0.3,2.5,0.8,4.9,1.7,7.2c0.9,2.1,2,3.2,3.4,3.4c1.5,0.1,2.7-1.1,3.6-3.6c0.7-2.2,1.2-4.4,1.4-6.7
			c0.1-1.2,0.4-2.3,1.1-3.3c0.2-0.3,0.7-0.4,1-0.2c0.1,0,0.1,0.1,0.2,0.2c0.6,1,1,2.1,1.1,3.3c0.2,2.3,0.7,4.5,1.4,6.7
			c0.9,2.4,2,3.6,3.4,3.6c0.1,0,0.2,0,0.2,0c1.4-0.1,2.5-1.3,3.4-3.4c0.9-2.3,1.4-4.7,1.7-7.2c0-0.2,0-0.3,0.1-0.5
			c0-0.3,0.1-0.5,0.1-0.8c2.5,0.5,5.2,0.3,7.7-0.8l4,7c0.3,0.5,0.9,0.8,1.4,0.8c0.3,0,0.6-0.1,0.8-0.2c0.8-0.5,1.1-1.5,0.6-2.3
			L73.9,61.3z M70.7,59.7c-2.2,1.3-4.8,1.6-7.3,1C61,60,59,58.4,57.7,56.2c-1.3-2.2-1.6-4.8-1-7.3c0.7-2.5,2.2-4.5,4.5-5.8
			c2.2-1.3,4.8-1.6,7.3-1c2.5,0.7,4.5,2.2,5.8,4.5c1.3,2.2,1.6,4.8,1,7.3C74.5,56.4,73,58.4,70.7,59.7z"/>
	</g>
	<path class="st0" d="M74.3,30.1H35.7c-1.5,0-2.8,1.2-2.8,2.8V77c0,1.5,1.2,2.8,2.8,2.8h38.6c1.5,0,2.8-1.2,2.8-2.8V32.8
		C77.1,31.3,75.8,30.1,74.3,30.1z M65.8,56.6c-1.2,1.8-2,3.8-2.3,5.9c0,0.1,0,0.2,0,0.3c-0.2,1.8-0.6,3.5-1.2,5.1
		c-0.6,1.5-1.5,2.3-2.4,2.4c-0.1,0-0.1,0-0.2,0c-1,0-1.8-0.9-2.4-2.6c-0.5-1.5-0.9-3.1-1-4.8c-0.1-0.8-0.3-1.7-0.8-2.4
		c0,0-0.1-0.1-0.1-0.1c-0.2-0.2-0.5-0.1-0.7,0.1c-0.4,0.7-0.7,1.5-0.8,2.4c-0.2,1.6-0.5,3.2-1,4.8c-0.7,1.8-1.5,2.7-2.6,2.6
		c-1-0.1-1.8-0.9-2.4-2.4c-0.6-1.7-1-3.4-1.2-5.1c0-0.1,0-0.2,0-0.4c-0.3-2.1-1.1-4.1-2.3-5.9c-1.8-2.6-2.3-5.9-1.3-8.9
		c0.6-2.1,2.2-3.7,4.2-4.4c2.7-0.8,5.5-0.4,7.9,1.1c2.3-1.5,5.2-1.9,7.9-1.1c2,0.7,3.6,2.4,4.2,4.4C68.1,50.7,67.6,54,65.8,56.6z"/>
	<g class="st0">
		<g id="Group_20765_00000164480664622830528640000015253968081909123511_" transform="translate(-915 -1030)" class="st1">
			<g id="Group_20688_00000152254329350114935820000010660130024864969088_" transform="translate(973.014 1087)">
				<g id="Group_20687_00000150069131194093713240000000878392983692541593_" transform="translate(0 0)">
					<path id="Path_14221_00000057845193980619352090000001016807803034080955_" d="M13.9-13.5c-1.1-3.1-3.2-5.3-5.9-6.2
						c-3.7-1.1-7.7-0.6-11,1.5c-3.3-2.1-7.3-2.6-11-1.5c-2.7,0.9-4.9,3.1-5.9,6.2c-1.4,4.2-0.7,8.9,1.9,12.5
						c1.7,2.5,2.8,5.3,3.2,8.2c0,0.2,0,0.3,0.1,0.5c0.3,2.5,0.8,4.9,1.7,7.2c0.9,2.1,2,3.2,3.4,3.4c1.5,0.1,2.7-1.1,3.6-3.6
						c0.7-2.2,1.2-4.4,1.4-6.7c0.1-1.2,0.4-2.3,1.1-3.3c0.2-0.3,0.7-0.4,1-0.2c0.1,0,0.1,0.1,0.2,0.2c0.6,1,1,2.1,1.1,3.3
						c0.2,2.3,0.7,4.5,1.4,6.7c0.9,2.4,2,3.6,3.4,3.6c0.1,0,0.2,0,0.2,0C5,18.2,6.2,17,7.1,14.9c0.9-2.3,1.4-4.7,1.7-7.2
						c0-0.2,0-0.3,0.1-0.5c0.4-3,1.6-5.8,3.2-8.3C14.6-4.6,15.3-9.3,13.9-13.5z"/>
				</g>
			</g>
			<g id="Ellipse_695_00000162338381270003375000000003355981359875581838_" transform="translate(950 1065)">
				<circle class="st3" cx="20" cy="19.9" r="30.4"/>
				<g>
					<path d="M20,50.3c-16.7,0-30.4-13.6-30.4-30.4S3.3-10.4,20-10.4S50.4,3.2,50.4,19.9S36.7,50.3,20,50.3z M20-7.1
						C5.1-7.1-7,5-7,19.9S5.1,47,20,47s27-12.1,27-27S34.9-7.1,20-7.1z"/>
				</g>
			</g>
		</g>
	</g>
	<g class="st0">
		<path class="st1" d="M73.3,45.4c-5.5,0-9.9-4.4-9.9-9.9c0-2,0.6-3.8,1.6-5.3c-4.6-0.2-8.2,1.7-9.8,2.7c-2.1-1.3-7.5-4-14.2-1.9
			c-3.5,1.1-6.3,4-7.6,8c-1.8,5.2-0.9,11.2,2.4,16.1c2.2,3.2,3.6,6.8,4.2,10.6c0,0.2,0.1,0.4,0.1,0.7c0.5,3.9,1.2,7,2.2,9.3
			c1.1,2.7,2.6,4.2,4.4,4.3c1.9,0.2,3.4-1.4,4.6-4.6c0.9-2.8,1.6-5.7,1.9-8.6c0.1-1.5,0.6-3,1.4-4.3c0.3-0.4,0.9-0.5,1.3-0.2
			c0.1,0.1,0.2,0.1,0.2,0.2c0.8,1.3,1.3,2.8,1.4,4.3c0.3,2.9,0.9,5.8,1.8,8.6c1.1,3.1,2.6,4.6,4.3,4.6c0.1,0,0.2,0,0.3,0
			c1.8-0.2,3.2-1.6,4.4-4.3c1-2.3,1.7-5.4,2.2-9.3c0-0.2,0.1-0.4,0.1-0.6c0.6-3.8,2-7.4,4.2-10.6c2.2-3.2,3.3-6.9,3.3-10.6
			C76.4,45,74.9,45.4,73.3,45.4z"/>
	</g>
	<g class="st0">
		<path class="st1" d="M76.9,38.8c-1.4-4-4.1-6.9-7.6-8c-6.6-2.1-12.1,0.6-14.2,1.9c-2.1-1.3-7.5-4-14.2-1.9c-3.5,1.1-6.3,4-7.6,8
			c-1.8,5.2-0.9,11.2,2.4,16.1c2.2,3.2,3.6,6.8,4.2,10.6c0,0.2,0.1,0.4,0.1,0.7c0.5,3.9,1.2,7,2.2,9.3c1.1,2.7,2.6,4.2,4.4,4.3
			c1.9,0.2,3.4-1.4,4.6-4.6c0.7-2.1,1.2-4.2,1.6-6.3c-4.4-1-7.6-5-7.6-9.6c0-5.5,4.4-9.9,9.9-9.9s9.9,4.4,9.9,9.9
			c0,4.6-3.2,8.5-7.5,9.6c0.3,2.1,0.9,4.3,1.6,6.3c1.1,3.1,2.6,4.6,4.3,4.6c0.1,0,0.2,0,0.3,0c1.8-0.2,3.2-1.6,4.4-4.3
			c1-2.3,1.7-5.4,2.2-9.3c0-0.2,0.1-0.4,0.1-0.6c0.6-3.8,2-7.4,4.2-10.6C77.8,50,78.7,44,76.9,38.8z"/>
	</g>
	<g class="st0">
		<g id="Group_20891_00000019666072792827306100000005926647736075248285_" transform="translate(-915 -1700)" class="st1">
			<g id="Group_20688_00000090279943192478057710000011465250106886982043_" transform="translate(973 1747)">
				<g id="Group_20687_00000165201212282938205600000003798618243464081836_" transform="translate(0 0)">
					<path id="Path_14221_00000026869942338573662950000016038194439647493046_" d="M13.9-9c-1.1-3.1-3.2-5.3-5.9-6.2
						c-3.7-1.1-7.7-0.6-11,1.5c-3.3-2.1-7.3-2.6-11-1.5c-2.7,0.9-4.9,3.1-5.9,6.2c-1.4,4.2-0.7,8.9,1.9,12.5
						c1.7,2.5,2.8,5.3,3.2,8.2c0,0.2,0,0.3,0.1,0.5c0.3,2.5,0.8,4.9,1.7,7.2c0.9,2.1,2,3.2,3.4,3.4c1.5,0.1,2.7-1.1,3.6-3.6
						c0.7-2.2,1.2-4.4,1.4-6.7c0.1-1.2,0.4-2.3,1.1-3.3c0.2-0.3,0.7-0.4,1-0.2c0.1,0,0.1,0.1,0.2,0.2c0.6,1,1,2.1,1.1,3.3
						c0.2,2.3,0.7,4.5,1.4,6.7c0.9,2.4,2,3.6,3.4,3.6c0.1,0,0.2,0,0.2,0c1.4-0.1,2.5-1.3,3.4-3.4c0.9-2.3,1.4-4.7,1.7-7.2
						c0-0.2,0-0.3,0.1-0.5c0.4-3,1.6-5.8,3.2-8.3C14.6-0.2,15.3-4.8,13.9-9z"/>
				</g>
			</g>
			<g id="Path_14299_00000054232150736494259790000009601152403279303813_">
				<path d="M969.7,1780.2c-10.4,0-20.7-3-28.6-9.1c-0.7-0.6-0.9-1.6-0.3-2.3c0.6-0.7,1.6-0.9,2.3-0.3c14.7,11.3,38.5,11.3,53.2,0
					c0.7-0.6,1.8-0.4,2.3,0.3c0.6,0.7,0.4,1.8-0.3,2.3C990.4,1777.2,980.1,1780.2,969.7,1780.2z"/>
			</g>
		</g>
	</g>
	<g id="Group_20640_00000098936194455618571390000007926908027315791547_" transform="translate(-100)" class="st0">
		<g class="st1">
			<path d="M182.4,37.8c0-0.3-0.2-0.7-0.5-0.8c-2.8-1.4-5.9-2.1-8.9-2.1c-0.1,0-0.1,0-0.2,0l0,0c-3,0-6,0.7-8.8,2.1
				c-0.3,0.1-0.5,0.5-0.5,0.8l0.6,8.7c0.1,2,1.2,3.7,2.9,4.8c2.9,1.8,4.2,2.7,4.9,3.1c0.2,0.1,0.3,0.2,0.4,0.3c0,0,0,0,0,0
				c0,0,0.1,0.1,0.1,0.1c0,0,0,0,0,0c0.2,0.1,0.3,0.1,0.4,0.1c0.4,0,0.2,0,5.9-3.6c1.7-1.1,2.7-2.8,2.9-4.8L182.4,37.8z M172.7,46.8
				c-0.2,0.2-0.4,0.2-0.6,0.2c-0.2,0-0.4-0.1-0.6-0.2l-2.8-2.8l1.2-1.1l2.2,2.2l3-3l1-1l1.2,1.2L172.7,46.8z"/>
			<path d="M170,56.6c-0.8-0.5-2.1-1.4-4.4-2.8l0,0c-2.4-1.5-4-4.2-4.2-7l0,0l-0.6-8.7c-0.1-1.5,0.7-3,2.1-3.6c2.4-1.2,5-2,7.7-2.3
				c-1.2-1.1-2.6-2-4.2-2.5c-5-1.5-10.5-0.8-14.9,2c-4.4-2.8-9.9-3.6-14.9-2c-3.9,1.4-6.8,4.5-8,8.4c-1.8,5.7-0.9,12,2.5,16.9
				c2.3,3.3,3.8,7.1,4.4,11.1c0,0.2,0.1,0.5,0.1,0.7c0.3,3.3,1.1,6.6,2.3,9.7c1.2,2.8,2.7,4.4,4.6,4.6c2,0.2,3.6-1.4,4.8-4.9
				c1-2.9,1.6-5.9,1.9-9c0.1-1.6,0.6-3.1,1.4-4.5c0.3-0.4,0.9-0.5,1.3-0.2c0.1,0.1,0.2,0.1,0.2,0.2c0.8,1.4,1.3,2.9,1.4,4.5
				c0.3,3.1,1,6.1,1.9,9c1.2,3.2,2.7,4.9,4.5,4.9c0.1,0,0.2,0,0.3,0c1.9-0.2,3.4-1.7,4.6-4.6c1.2-3.1,2-6.4,2.3-9.7
				c0-0.2,0.1-0.4,0.1-0.7c0.5-3.2,1.5-6.3,3.1-9.1C170.4,56.8,170.2,56.7,170,56.6z"/>
		</g>
	</g>
</g>
<g id="Layer_2">
	<path class="st0" d="M55,27.6c-15.1,0-27.4,12.3-27.4,27.4c0,15.1,12.3,27.4,27.4,27.4S82.4,70.1,82.4,55
		C82.4,39.9,70.1,27.6,55,27.6z M66,59.1h-9.1v3.8c0,1-0.8,1.8-1.8,1.8c-0.3,0-0.6-0.1-0.9-0.2L41.3,57c-0.9-0.5-1.2-1.6-0.7-2.5
		c0.2-0.3,0.4-0.5,0.7-0.7l12.8-7.4c0.9-0.5,2-0.2,2.5,0.7c0.2,0.3,0.2,0.6,0.2,0.9v3.7H66c2,0,3.7,1.6,3.7,3.7S68,59.1,66,59.1z"/>
	<g>
		<path id="Path_10410" d="M55,19.6L55,19.6c-15,0-27.1,12.1-27.1,27.1l0,0c0,5.8,1.9,11.5,5.4,16.2l20.5,27.5h2.4l20.5-27.5
			c9-12,6.5-29-5.5-37.9C66.5,21.5,60.9,19.6,55,19.6z M55,54.3c-4.6,0-8.3-3.7-8.3-8.3c0-4.6,3.7-8.3,8.3-8.3
			c4.6,0,8.3,3.7,8.3,8.3c0,0,0,0,0,0C63.3,50.6,59.6,54.3,55,54.3L55,54.3z"/>
	</g>
</g>
</svg>
