<svg id="Layer_1" data-name="Layer 1" xmlns="http://www.w3.org/2000/svg" viewBox="0 0 110 110"><g id="Group_20640" data-name="Group 20640"><g id="Group_20733" data-name="Group 20733"><path id="Path_14235" data-name="Path 14235" d="M47.44,49.79a47.64,47.64,0,0,0,15,0V46.15c0-5.06,2.81-6.88,2.81-11.15a10.3,10.3,0,0,0-20.6,0c0,4.27,2.82,6.09,2.81,11.15Z"/><path id="Path_14236" data-name="Path 14236" d="M75.35,51c-4.78.32-9.3,3.44-20.42,3.44S39.29,51.36,34.51,51,30.09,54.7,31,55.82c1.19,1.44,3.25,3.42,9.48,4.62.19,0-3.07.94-3.07,4.37v3.34c0,10.19,7.82,16.56,17.46,16.56H55c9.65,0,17.47-6.37,17.47-16.56V64.81c0-3.43-3.27-4.33-3.07-4.37,6.22-1.2,8.29-3.18,9.47-4.62C79.77,54.7,80.13,50.72,75.35,51Zm-7.2,17.11c0,8.47-6.61,12.26-13.17,12.26h-.1c-6.55,0-13.16-3.79-13.16-12.26V66.24a1.43,1.43,0,0,1,1.43-1.43h4.13v2.55c0,1.63,1.44,3,7.6,3H55c6.16,0,7.6-1.33,7.6-3V64.81h4.13a1.43,1.43,0,0,1,1.43,1.43Z"/></g></g></svg>