<svg id="Layer_1" data-name="Layer 1" xmlns="http://www.w3.org/2000/svg" viewBox="0 0 110 110"><g id="Group_20640" data-name="Group 20640"><g id="Group_20684" data-name="Group 20684"><g id="Group_20681" data-name="Group 20681"><g id="Group_20680" data-name="Group 20680"><path id="Path_14218" data-name="Path 14218" d="M76.63,26.19a12,12,0,1,0,12,12A12,12,0,0,0,76.63,26.19ZM83.34,35l-7.67,7.61a1.17,1.17,0,0,1-1.65,0L70,39a1.21,1.21,0,0,1-.09-1.68,1.19,1.19,0,0,1,1.68-.06h0l3.22,3,6.86-6.86A1.21,1.21,0,0,1,83.34,35Z"/></g></g><path d="M81.71,83.81a14.84,14.84,0,0,0-9.3-13.75,8.9,8.9,0,1,0-11.08,0,14.77,14.77,0,0,0-3.7,2.15,19.51,19.51,0,0,0-2.12-2.52,19.89,19.89,0,0,0-6.68-4.41,12,12,0,1,0-14.92,0A20,20,0,0,0,21.37,83.81H81.71Z"/></g></g></svg>