<svg id="Layer_1" data-name="Layer 1" xmlns="http://www.w3.org/2000/svg" viewBox="0 0 110 110"><g id="Group_20640" data-name="Group 20640"><g id="Group_20682" data-name="Group 20682"><path d="M63.63,66.35a24.87,24.87,0,0,0-8.41-5.52,15,15,0,1,0-18.53,0A25,25,0,0,0,21,84H71A24.73,24.73,0,0,0,63.63,66.35Z"/><g id="Group_20681" data-name="Group 20681"><g id="Group_20680" data-name="Group 20680"><path id="Path_14218" data-name="Path 14218" d="M77.05,26a12,12,0,1,0,12,12A12,12,0,0,0,77.05,26Zm6.7,8.84-7.67,7.61a1.18,1.18,0,0,1-1.65,0l-4.06-3.7a1.24,1.24,0,0,1-.09-1.69A1.19,1.19,0,0,1,72,37.05h0l3.22,3L82,33.14a1.21,1.21,0,0,1,1.71,1.72Z"/></g></g></g></g></svg>