<svg id="Layer_1" data-name="Layer 1" xmlns="http://www.w3.org/2000/svg" viewBox="0 0 110 110"><g id="Group_20640" data-name="Group 20640"><path d="M82.65,22.51H57.35a5,5,0,0,0-5,5V38.42A15,15,0,0,0,38.09,64.34,25,25,0,0,0,22.35,87.49h50A24.73,24.73,0,0,0,65,69.86a25,25,0,0,0-8.41-5.53A14.94,14.94,0,0,0,60.85,46H71a15.27,15.27,0,0,1-.41,3.49,12.33,12.33,0,0,1-1.12,3h0a10.56,10.56,0,0,0,6.84-3.43,10.89,10.89,0,0,0,1.93-3h4.43a5,5,0,0,0,5-5V27.51A5,5,0,0,0,82.65,22.51ZM70.21,36.59a.17.17,0,0,0-.06-.06.25.25,0,0,0-.36.06,2.65,2.65,0,0,0-.38,1.2,11.24,11.24,0,0,1-.52,2.42c-.34.91-.78,1.35-1.3,1.3s-.91-.47-1.24-1.23a10.66,10.66,0,0,1-.61-2.61l0-.18a7.14,7.14,0,0,0-1.17-3A5.11,5.11,0,0,1,63.86,30,3.47,3.47,0,0,1,66,27.73a4.8,4.8,0,0,1,4,.54,4.8,4.8,0,0,1,4-.54A3.47,3.47,0,0,1,76.14,30a5.11,5.11,0,0,1-.68,4.53,7.18,7.18,0,0,0-1.17,3l0,.18a10.66,10.66,0,0,1-.61,2.61c-.32.76-.74,1.17-1.24,1.22h-.08c-.49,0-.9-.44-1.22-1.3a11.24,11.24,0,0,1-.52-2.42A2.53,2.53,0,0,0,70.21,36.59Z"/></g></svg>