<svg id="Layer_1" data-name="Layer 1" xmlns="http://www.w3.org/2000/svg" viewBox="0 0 110 110"><g id="Group_20640" data-name="Group 20640"><path d="M75,35H35A10,10,0,0,0,25,45V65A10,10,0,0,0,35,75H56.67A25.7,25.7,0,0,1,56,80.93,21.25,21.25,0,0,1,54.07,86h0a17.89,17.89,0,0,0,11.61-5.83A18.15,18.15,0,0,0,69,75h6A10,10,0,0,0,85,65V45A10,10,0,0,0,75,35ZM46.14,56.71A12.68,12.68,0,0,1,50.33,54a7.52,7.52,0,1,1,9.34,0,12.58,12.58,0,0,1,4.19,2.76,12.39,12.39,0,0,1,3.67,8.84H42.47A12.39,12.39,0,0,1,46.14,56.71Z"/></g></svg>