<svg id="Layer_1" data-name="Layer 1" xmlns="http://www.w3.org/2000/svg" viewBox="0 0 110 110"><g id="Group_20789" data-name="Group 20789"><path d="M76.79,38.84a12.26,12.26,0,0,0-7.63-8A17,17,0,0,0,55,32.77a17,17,0,0,0-14.15-1.92,12.29,12.29,0,0,0-7.64,8,18.23,18.23,0,0,0,2.41,16.06,25,25,0,0,1,4.16,10.57l.09.65a36.79,36.79,0,0,0,2.19,9.25c1.14,2.71,2.62,4.17,4.38,4.35s3.42-1.37,4.61-4.62a38.19,38.19,0,0,0,1.85-8.58,9.22,9.22,0,0,1,1.36-4.26.91.91,0,0,1,1.27-.22.73.73,0,0,1,.21.22,9.11,9.11,0,0,1,1.36,4.26A38.75,38.75,0,0,0,59,75.11c1.13,3.08,2.58,4.63,4.32,4.63h.29c1.77-.18,3.24-1.64,4.38-4.35a36.79,36.79,0,0,0,2.19-9.25c0-.21.06-.42.08-.63a25.4,25.4,0,0,1,4.18-10.61A18.21,18.21,0,0,0,76.79,38.84ZM55,57.51a9.94,9.94,0,1,1,9.94-9.94A9.94,9.94,0,0,1,55,57.51Z"/><path d="M60.21,45.68H56.89V42.37a1.1,1.1,0,0,0-1.1-1.1H54.21a1.1,1.1,0,0,0-1.1,1.1v3.31H49.8a1.11,1.11,0,0,0-1.11,1.11v1.57a1.11,1.11,0,0,0,1.11,1.11h3.31v3.31a1.1,1.1,0,0,0,1.1,1.1h1.58a1.1,1.1,0,0,0,1.1-1.1V49.47h3.32a1.11,1.11,0,0,0,1.1-1.11V46.79A1.11,1.11,0,0,0,60.21,45.68Z"/></g></svg>