<svg id="Layer_1" data-name="Layer 1" xmlns="http://www.w3.org/2000/svg" viewBox="0 0 110 110"><g id="Group_20640" data-name="Group 20640"><g id="Group_20670" data-name="Group 20670"><path d="M74,24a3,3,0,0,0-3,3v1H65a2,2,0,0,0-2,2V46a2,2,0,0,0,2,2h6V83a3,3,0,0,0,6,0V27A3,3,0,0,0,74,24Z"/><g id="Group_20669" data-name="Group 20669"><path id="Path_14217" data-name="Path 14217" d="M40,36H50a2,2,0,0,1,2,2l4,46a2,2,0,0,1-2,2H36a2,2,0,0,1-2-2l4-46A2,2,0,0,1,40,36Z"/><rect id="Rectangle_592" data-name="Rectangle 592" x="39" y="24" width="12" height="10" rx="2"/></g></g></g></svg>