<svg id="Layer_1" data-name="Layer 1" xmlns="http://www.w3.org/2000/svg" viewBox="0 0 110 110"><g id="Group_20640" data-name="Group 20640"><path d="M82.43,37.83A.82.82,0,0,0,82,37,19.6,19.6,0,0,0,73,34.88h-.16A19.73,19.73,0,0,0,64.12,37a.79.79,0,0,0-.46.81l.63,8.74a6.18,6.18,0,0,0,2.85,4.77C70,53.11,71.38,54,72.08,54.46l.41.25h0l.12.07h0a.63.63,0,0,0,.39.11c.41,0,.16,0,5.9-3.57a6.22,6.22,0,0,0,2.86-4.77ZM72.7,46.75a.81.81,0,0,1-1.15,0L68.79,44,70,42.86,72.13,45l3-3,1-1,1.16,1.15Z"/><path d="M70,56.58c-.79-.51-2.12-1.36-4.4-2.78h0a9.16,9.16,0,0,1-4.19-7h0l-.63-8.71a3.73,3.73,0,0,1,2.07-3.64,22.57,22.57,0,0,1,7.7-2.3A12.75,12.75,0,0,0,66.3,29.6a17.87,17.87,0,0,0-14.88,2,17.89,17.89,0,0,0-14.89-2,13,13,0,0,0-8,8.4A19.18,19.18,0,0,0,31,54.89,26.58,26.58,0,0,1,35.42,66c0,.22.06.45.1.68a38.32,38.32,0,0,0,2.3,9.73C39,79.26,40.56,80.8,42.41,81s3.6-1.44,4.85-4.86a40.33,40.33,0,0,0,2-9,9.62,9.62,0,0,1,1.43-4.48A1,1,0,0,1,52,62.4a1,1,0,0,1,.23.23,9.86,9.86,0,0,1,1.43,4.48,40.32,40.32,0,0,0,1.94,9C56.76,79.37,58.28,81,60.11,81l.31,0c1.85-.19,3.4-1.72,4.6-4.57a38.32,38.32,0,0,0,2.3-9.73l.09-.66a26.65,26.65,0,0,1,3.13-9.11Z"/></g></svg>