<svg id="Layer_1" data-name="Layer 1" xmlns="http://www.w3.org/2000/svg" viewBox="0 0 110 110"><path d="M73.91,61.34a12.69,12.69,0,0,0-9.26-22.52,8.34,8.34,0,0,0-2.25-1.13,13.2,13.2,0,0,0-11,1.49,13.2,13.2,0,0,0-11-1.49,9.53,9.53,0,0,0-5.94,6.21,14.15,14.15,0,0,0,1.87,12.49,19.67,19.67,0,0,1,3.24,8.23c0,.17.05.33.07.51a28.64,28.64,0,0,0,1.7,7.19c.89,2.11,2,3.25,3.41,3.38s2.66-1.06,3.58-3.59a29.3,29.3,0,0,0,1.44-6.67,7.22,7.22,0,0,1,1.06-3.32.72.72,0,0,1,1-.17,1.37,1.37,0,0,1,.17.17A7.21,7.21,0,0,1,53,65.44a29.85,29.85,0,0,0,1.44,6.67c.88,2.39,2,3.6,3.35,3.6h.24c1.37-.13,2.51-1.27,3.4-3.38a28.19,28.19,0,0,0,1.7-7.2c0-.16.05-.32.07-.48s.09-.52.14-.78a12.66,12.66,0,0,0,7.72-.8l4,7a1.66,1.66,0,0,0,1.44.83A1.67,1.67,0,0,0,78,68.4Zm-3.16-1.62a9.57,9.57,0,1,1,4.45-5.8A9.5,9.5,0,0,1,70.75,59.72Z"/></svg>