<svg id="Layer_1" data-name="Layer 1" xmlns="http://www.w3.org/2000/svg" viewBox="0 0 110 110"><g id="Group_20640" data-name="Group 20640"><g id="Group_20656" data-name="Group 20656"><path d="M72,51H60V39a2,2,0,0,0-2-2H50a2,2,0,0,0-2,2V51H36a2,2,0,0,0-2,2v8a2,2,0,0,0,2,2H48V75a2,2,0,0,0,2,2h8a2,2,0,0,0,2-2V63H72a2,2,0,0,0,2-2V53A2,2,0,0,0,72,51Z"/><path d="M86,31H80V25a1,1,0,0,0-1-1H75a1,1,0,0,0-1,1v6H68a1,1,0,0,0-1,1v4a1,1,0,0,0,1,1h6v6a1,1,0,0,0,1,1h4a1,1,0,0,0,1-1V37h6a1,1,0,0,0,1-1V32A1,1,0,0,0,86,31Z"/></g></g></svg>