<?xml version="1.0" encoding="utf-8"?>
<svg id="Layer_1" data-name="Layer 1" xmlns="http://www.w3.org/2000/svg" viewBox="0 0 110 110"><defs><style>.cls-1{fill:#969696;}</style></defs><g id="apple"><g id="Group_20730" data-name="Group 20730"><path id="Path_14234" data-name="Path 14234" d="M76.81,48.77c-6-8.54-13.36-6.66-18.23-5.41l-1.49.37c.61-5.25,3.42-9.33,8.53-12.43l-2-3.34A23.48,23.48,0,0,0,57,33.68a11.91,11.91,0,0,0-2.91-4.95c-2.54-2.54-6.32-3.8-11.24-3.73L41,25l0,1.9c-.07,4.92,1.19,8.7,3.73,11.24a13.64,13.64,0,0,0,8.74,3.64c-.12.64-.21,1.3-.27,2-.54-.12-1.13-.27-1.72-.43-4.87-1.24-12.23-3.13-18.24,5.42-2.87,4.08-3.74,9.61-2.51,16,1.45,7.53,5.82,15.33,10.16,18.16,5.28,3.44,9.74,1.81,12.41.84A8.84,8.84,0,0,1,55,83.22a8.93,8.93,0,0,1,1.76.53A16.53,16.53,0,0,0,62.52,85a12,12,0,0,0,6.65-2.09c4.34-2.82,8.7-10.63,10.15-18.15C80.55,58.38,79.69,52.86,76.81,48.77Z"/></g></g><path class="cls-1" d="M65,61A15,15,0,0,1,75.23,46.79C69.55,40.55,63,42.22,58.58,43.36l-1.49.37c.61-5.25,3.42-9.33,8.53-12.43l-2-3.34A23.48,23.48,0,0,0,57,33.68a11.91,11.91,0,0,0-2.91-4.95c-2.54-2.54-6.32-3.8-11.24-3.73L41,25l0,1.9c-.07,4.92,1.19,8.7,3.73,11.24a13.64,13.64,0,0,0,8.74,3.64c-.12.64-.21,1.3-.27,2-.54-.12-1.13-.27-1.72-.43-4.87-1.24-12.23-3.13-18.24,5.42-2.87,4.08-3.74,9.61-2.51,16,1.46,7.53,5.82,15.33,10.16,18.16,5.28,3.44,9.74,1.81,12.41.84A8.84,8.84,0,0,1,55,83.22a8.93,8.93,0,0,1,1.76.53A16.53,16.53,0,0,0,62.52,85a12,12,0,0,0,6.65-2.09c2.23-1.45,4.47-4.23,6.31-7.61A15,15,0,0,1,65,61Z"/></svg>