<?xml version="1.0" encoding="utf-8"?>
<svg id="Layer_1" data-name="Layer 1" xmlns="http://www.w3.org/2000/svg" viewBox="0 0 110 110"><defs><style>.cls-1{fill:#c8c8c8;}</style></defs><path d="M78,30H32a2,2,0,0,0-2,2V78a2,2,0,0,0,2,2H45V62a2,2,0,0,1,2-2H63a2,2,0,0,1,2,2V80H78a2,2,0,0,0,2-2V32A2,2,0,0,0,78,30ZM50,49a1,1,0,0,1-1,1H41a1,1,0,0,1-1-1V41a1,1,0,0,1,1-1h8a1,1,0,0,1,1,1Zm20,0a1,1,0,0,1-1,1H61a1,1,0,0,1-1-1V41a1,1,0,0,1,1-1h8a1,1,0,0,1,1,1Z"/><g id="Group_20688" data-name="Group 20688"><g id="Group_20687" data-name="Group 20687"><path id="Path_14221" data-name="Path 14221" class="cls-1" d="M77.38,52.86a11.22,11.22,0,0,0-2.52-9.78,15.54,15.54,0,0,0-12.15-4.8,15.51,15.51,0,0,0-10.44-7.84,11.18,11.18,0,0,0-9.65,3,16.67,16.67,0,0,0-5.25,13.89A22.85,22.85,0,0,1,36,57.58c-.07.19-.14.37-.22.56a33.72,33.72,0,0,0-2.38,8.36c-.3,2.67.22,4.49,1.55,5.42s3.34.43,5.74-1.63a34.85,34.85,0,0,0,5.3-6,8.44,8.44,0,0,1,3-2.8.83.83,0,0,1,1.11.4.79.79,0,0,1,.08.26,8.52,8.52,0,0,1-.82,4A34.92,34.92,0,0,0,47,73.82c-.47,3,0,4.85,1.37,5.62a1.15,1.15,0,0,0,.25.12c1.48.65,3.31.14,5.43-1.51a33.33,33.33,0,0,0,5.87-6.4l.35-.47a23,23,0,0,1,8.07-6.59A16.65,16.65,0,0,0,77.38,52.86Z"/></g></g></svg>