<?xml version="1.0" encoding="utf-8"?>
<svg id="Layer_1" data-name="Layer 1" xmlns="http://www.w3.org/2000/svg" viewBox="0 0 110 110"><defs><style>.cls-1{fill:#fff;}.cls-2{fill:#c8c8c8;}</style></defs><g id="Group_20640" data-name="Group 20640"><g id="Group_20663" data-name="Group 20663"><polygon class="cls-1" points="67.72 70.75 67.72 70.75 67.72 70.75 67.72 70.75"/><path d="M83.5,28.25h-30a10,10,0,0,0-10,10v5h10a10,10,0,0,1,10,10v8.33h6.39a21,21,0,0,1-.58,4.94,16.74,16.74,0,0,1-1.59,4.23A14.93,14.93,0,0,0,77.4,65.9a15.37,15.37,0,0,0,2.74-4.32H83.5a10,10,0,0,0,10-10V38.25A10,10,0,0,0,83.5,28.25Z"/><path d="M36.49,76.58a21.55,21.55,0,0,1-.36-3H53.5a7,7,0,0,0,7-7V53.25a7,7,0,0,0-7-7h-30a7,7,0,0,0-7,7V66.58a7,7,0,0,0,7,7h2.82a15.12,15.12,0,0,0,2,3l.27.31a14.89,14.89,0,0,0,9.68,4.86,17.16,17.16,0,0,1-1.6-4.23C36.61,77.21,36.55,76.9,36.49,76.58Z"/></g></g><g id="Group_20640-2" data-name="Group 20640"><g id="Group_20663-2" data-name="Group 20663"><polygon class="cls-2" points="42.28 70.75 42.28 70.75 42.28 70.75 42.28 70.75"/><path class="cls-2" d="M26.5,28.25h30a10,10,0,0,1,10,10v5h-10a10,10,0,0,0-10,10v8.33H40.11a21,21,0,0,0,.58,4.94,16.74,16.74,0,0,0,1.59,4.23A14.93,14.93,0,0,1,32.6,65.9a15.37,15.37,0,0,1-2.74-4.32H26.5a10,10,0,0,1-10-10V38.25A10,10,0,0,1,26.5,28.25Z"/><path class="cls-2" d="M73.51,76.58a21.55,21.55,0,0,0,.36-3H56.5a7,7,0,0,1-7-7V53.25a7,7,0,0,1,7-7h30a7,7,0,0,1,7,7V66.58a7,7,0,0,1-7,7H83.68a15.12,15.12,0,0,1-2,3l-.27.31a14.89,14.89,0,0,1-9.68,4.86,17.16,17.16,0,0,0,1.6-4.23C73.39,77.21,73.45,76.9,73.51,76.58Z"/></g></g></svg>