<?xml version="1.0" encoding="utf-8"?>
<svg id="Layer_1" data-name="Layer 1" xmlns="http://www.w3.org/2000/svg" viewBox="0 0 110 110"><defs><style>.cls-1{fill:#969696;}</style></defs><path d="M80,33H30A10,10,0,0,0,20,43V67A10,10,0,0,0,30,77H80A10,10,0,0,0,90,67V43A10,10,0,0,0,80,33ZM30,42H44a3,3,0,0,1,0,6H30a3,3,0,0,1,0-6ZM44,68H30a3,3,0,0,1,0-6H44a3,3,0,0,1,0,6Zm36,0H66a3,3,0,0,1,0-6H80a3,3,0,0,1,0,6Zm0-10H30a3,3,0,0,1,0-6H80a3,3,0,0,1,0,6Z"/><path class="cls-1" d="M80,33H30A10,10,0,0,0,20,43V67A10,10,0,0,0,30,77H80A10,10,0,0,0,90,67V43A10,10,0,0,0,80,33ZM32,50a5,5,0,1,1,5-5A5,5,0,0,1,32,50ZM63.18,63.67a9.24,9.24,0,0,0-1.46-1.9,9.55,9.55,0,0,0-3.18-2.09,5.7,5.7,0,1,0-7.08,0,9.55,9.55,0,0,0-3.18,2.09,9.24,9.24,0,0,0-1.46,1.9A14.31,14.31,0,0,1,44,55c0-7.18,4.92-13,11-13s11,5.82,11,13A14.31,14.31,0,0,1,63.18,63.67ZM78,70a5,5,0,1,1,5-5A5,5,0,0,1,78,70Z"/></svg>