<?xml version="1.0" encoding="utf-8"?>
<svg id="Layer_1" data-name="Layer 1" xmlns="http://www.w3.org/2000/svg" viewBox="0 0 110 110"><defs><style>.cls-1{fill:#c8c8c8;}</style></defs><path d="M73,25H37a2,2,0,0,0-2,2V83a2,2,0,0,0,2,2H73a2,2,0,0,0,2-2V27A2,2,0,0,0,73,25ZM55.5,82A2.5,2.5,0,1,1,58,79.5,2.5,2.5,0,0,1,55.5,82ZM70,74a1,1,0,0,1-1,1H41a1,1,0,0,1-1-1V31a1,1,0,0,1,1-1H69a1,1,0,0,1,1,1Z"/><path d="M73,25H37a2,2,0,0,0-2,2V83a2,2,0,0,0,2,2H73a2,2,0,0,0,2-2V27A2,2,0,0,0,73,25ZM55.5,82A2.5,2.5,0,1,1,58,79.5,2.5,2.5,0,0,1,55.5,82ZM70,74a1,1,0,0,1-1,1H41a1,1,0,0,1-1-1V31a1,1,0,0,1,1-1H69a1,1,0,0,1,1,1Z"/><rect id="Rectangle_691" data-name="Rectangle 691" class="cls-1" x="43" y="45" width="7" height="7" rx="1"/><rect id="Rectangle_692" data-name="Rectangle 692" class="cls-1" x="60" y="60" width="7" height="7" rx="1"/></svg>