<?xml version="1.0" encoding="utf-8"?>
<svg id="Layer_1" data-name="Layer 1" xmlns="http://www.w3.org/2000/svg" viewBox="0 0 110 110"><defs><style>.cls-1{fill:none;}.cls-2{fill:#969696;}</style></defs><g id="Group_20745" data-name="Group 20745"><circle class="cls-1" cx="55" cy="50" r="28"/><path d="M83,50A28,28,0,1,0,41,74.23v0a14,14,0,0,0,28,0v0A28,28,0,0,0,83,50ZM66.52,66.32a14,14,0,0,0-23,0,20,20,0,1,1,23,0Z"/><path class="cls-2" d="M27,60.27A28,28,0,1,0,69,36v0a14,14,0,0,0-28,0v0A28,28,0,0,0,27,60.27ZM43.48,44a14,14,0,0,0,23,0,20,20,0,1,1-23,0Z"/></g></svg>