<?xml version="1.0" encoding="utf-8"?>
<svg id="Layer_1" data-name="Layer 1" xmlns="http://www.w3.org/2000/svg" viewBox="0 0 110 110"><defs><style>.cls-1{fill:#969696;}</style></defs><g id="Group_20735" data-name="Group 20735"><path d="M79,54,69,39,79,24H46a3,3,0,0,0-3,3V80H34a3,3,0,0,0,0,6H58a3,3,0,0,0,0-6H49V54ZM52.25,35.47a3.46,3.46,0,0,1,2.16-2.25,4.8,4.8,0,0,1,4,.54,4.79,4.79,0,0,1,4-.54,3.47,3.47,0,0,1,2.15,2.25A5.14,5.14,0,0,1,63.86,40a7.25,7.25,0,0,0-1.18,3,1.1,1.1,0,0,1,0,.18A10.24,10.24,0,0,1,62,45.78c-.32.76-.73,1.17-1.23,1.22h-.08c-.49,0-.9-.43-1.22-1.3A10.67,10.67,0,0,1,59,43.28a2.65,2.65,0,0,0-.38-1.2L58.55,42a.26.26,0,0,0-.36.06,2.54,2.54,0,0,0-.39,1.2,10.67,10.67,0,0,1-.52,2.42c-.33.91-.77,1.35-1.3,1.3s-.91-.46-1.23-1.23a10.57,10.57,0,0,1-.62-2.61,1.1,1.1,0,0,0,0-.18,7,7,0,0,0-1.18-3A5.17,5.17,0,0,1,52.25,35.47Z"/><path class="cls-1" d="M79,68.19l-10-15,10-15H49V27a3,3,0,0,0-6,0V80H34a3,3,0,0,0,0,6H58a3,3,0,0,0,0-6H49V68.19ZM52.25,49.66a3.46,3.46,0,0,1,2.16-2.25,4.8,4.8,0,0,1,4,.54,4.79,4.79,0,0,1,4-.54,3.47,3.47,0,0,1,2.15,2.25,5.14,5.14,0,0,1-.68,4.53,7.2,7.2,0,0,0-1.18,3,1.1,1.1,0,0,1,0,.18A10.24,10.24,0,0,1,62,60c-.32.76-.73,1.17-1.23,1.22h-.08c-.49,0-.9-.44-1.22-1.3A10.67,10.67,0,0,1,59,57.47a2.65,2.65,0,0,0-.38-1.2.17.17,0,0,0-.06-.06.26.26,0,0,0-.36.06,2.54,2.54,0,0,0-.39,1.2,10.67,10.67,0,0,1-.52,2.42c-.33.91-.77,1.35-1.3,1.3s-.91-.47-1.23-1.23a10.68,10.68,0,0,1-.62-2.61,1.1,1.1,0,0,0,0-.18,7,7,0,0,0-1.18-3A5.17,5.17,0,0,1,52.25,49.66Z"/></g></svg>