<?xml version="1.0" encoding="utf-8"?>
<svg id="Layer_1" data-name="Layer 1" xmlns="http://www.w3.org/2000/svg" viewBox="0 0 110 110"><defs><style>.cls-1{fill:none;}.cls-2{fill:#969696;}</style></defs><g id="Group_20744" data-name="Group 20744"><rect class="cls-1" x="40" y="38" width="30" height="24" rx="6"/><polygon points="64 44 46 44 46 44 46 47 64 47 64 44"/><path d="M70,53v3a6,6,0,0,1-6,6H46a6,6,0,0,1-6-6V53H30.77A20,20,0,0,0,32,55a30.66,30.66,0,0,1,5,12.77c0,.26.07.52.1.79a44.69,44.69,0,0,0,2.65,11.17c1.37,3.28,3.15,5,5.28,5.26s4.13-1.65,5.57-5.58A46.58,46.58,0,0,0,52.88,69a11.12,11.12,0,0,1,1.64-5.15,1.09,1.09,0,0,1,1.53-.26,1.07,1.07,0,0,1,.26.26A11.12,11.12,0,0,1,58,69,46.49,46.49,0,0,0,60.19,79.4C61.55,83.12,63.3,85,65.4,85l.36,0c2.13-.21,3.91-2,5.28-5.25a43.8,43.8,0,0,0,2.65-11.18c0-.25.07-.51.1-.75a30.61,30.61,0,0,1,5-12.82,20.35,20.35,0,0,0,1.23-2Z"/><path d="M40,47V44a6,6,0,0,1,6-6H64a6,6,0,0,1,6,6v3H82.31a21.94,21.94,0,0,0-.57-11.41c-1.65-4.78-5-8.29-9.22-9.64a20.54,20.54,0,0,0-17.1,2.31A20.55,20.55,0,0,0,38.32,26c-4.22,1.35-7.58,4.87-9.23,9.65A22.11,22.11,0,0,0,28.52,47Z"/><rect x="46" y="53" width="18" height="3"/></g><g id="Group_20744-2" data-name="Group 20744"><rect class="cls-1" x="45.75" y="35.56" width="24" height="30" rx="6" transform="matrix(0.54, -0.84, 0.84, 0.54, -15.87, 72.26)"/><polygon class="cls-2" points="68.57 50.31 53.37 40.67 53.36 40.67 51.76 43.2 66.96 52.84 68.57 50.31"/><path class="cls-2" d="M68.81,61.12l-1.6,2.54a6,6,0,0,1-8.28,1.85l-15.2-9.64a6,6,0,0,1-1.86-8.28l1.61-2.53-7.8-5a20.63,20.63,0,0,0,0,2.36A30.63,30.63,0,0,1,33.07,56l-.34.72A44.85,44.85,0,0,0,29,67.52c-.59,3.5,0,6,1.65,7.27s4.38.82,7.7-1.73a45.82,45.82,0,0,0,7.43-7.56A11.16,11.16,0,0,1,49.91,62a1.1,1.1,0,0,1,1.43.6.94.94,0,0,1,.08.36,11.11,11.11,0,0,1-1.37,5.23,46.21,46.21,0,0,0-3.66,10c-.84,3.87-.37,6.39,1.4,7.52l.32.17c1.91,1,4.36.42,7.27-1.6a44.6,44.6,0,0,0,8.22-8l.49-.59a30.54,30.54,0,0,1,11.12-8.12,22.6,22.6,0,0,0,2.1-1Z"/><path class="cls-2" d="M46.69,40l1.61-2.53a6,6,0,0,1,8.28-1.86l15.2,9.64a6,6,0,0,1,1.85,8.28L72,56.06l10.39,6.59a22,22,0,0,0,5.63-9.94,14.85,14.85,0,0,0-2.62-13.09,20.56,20.56,0,0,0-15.68-7.2A20.58,20.58,0,0,0,56.54,21.31a14.84,14.84,0,0,0-13,3.21A22.11,22.11,0,0,0,37,33.84Z"/><rect class="cls-2" x="53.84" y="45.36" width="3" height="18" transform="matrix(0.54, -0.84, 0.84, 0.54, -20.2, 71.99)"/></g></svg>