<?xml version="1.0" encoding="utf-8"?>
<svg id="Layer_1" data-name="Layer 1" xmlns="http://www.w3.org/2000/svg" viewBox="0 0 110 110"><defs><style>.cls-1{fill:#969696;}</style></defs><g id="Group_20789" data-name="Group 20789"><path d="M81.32,35.59A14.78,14.78,0,0,0,72.1,26,20.54,20.54,0,0,0,55,28.26,20.54,20.54,0,0,0,37.9,26c-4.22,1.35-7.58,4.87-9.22,9.65A22,22,0,0,0,31.59,55a30.4,30.4,0,0,1,5,12.77c0,.26.07.52.11.79a44.24,44.24,0,0,0,2.64,11.17c1.38,3.28,3.16,5,5.29,5.26s4.13-1.65,5.57-5.58A46,46,0,0,0,52.46,69a11.24,11.24,0,0,1,1.64-5.15,1.1,1.1,0,0,1,1.54-.26,1.07,1.07,0,0,1,.26.26A11.24,11.24,0,0,1,57.54,69,45.92,45.92,0,0,0,59.77,79.4C61.14,83.12,62.89,85,65,85l.36,0c2.13-.21,3.91-2,5.29-5.25a44.21,44.21,0,0,0,2.64-11.18c0-.25.07-.51.1-.75a30.63,30.63,0,0,1,5-12.82A22,22,0,0,0,81.32,35.59ZM55,58.14a12,12,0,1,1,12-12A12,12,0,0,1,55,58.14Z"/><path d="M60.62,43.86H57.29V40.52a2,2,0,0,0-2-2h-.58a2,2,0,0,0-2,2v3.34H49.38a2,2,0,0,0-2,2v.57a2,2,0,0,0,2,2h3.33v3.33a2,2,0,0,0,2,2h.58a2,2,0,0,0,2-2V48.43h3.33a2,2,0,0,0,2-2v-.57A2,2,0,0,0,60.62,43.86Z"/><path class="cls-1" d="M100.65,43.86H97.32V40.52a2,2,0,0,0-2-2h-.57a2,2,0,0,0-2,2v3.34H89.42a2,2,0,0,0-2,2v.57a2,2,0,0,0,2,2h3.33v3.33a2,2,0,0,0,2,2h.57a2,2,0,0,0,2-2V48.43h3.33a2,2,0,0,0,2-2v-.57A2,2,0,0,0,100.65,43.86Z"/></g><path class="cls-1" d="M25.58,69.86H22.25V66.52a2,2,0,0,0-2-2h-.57a2,2,0,0,0-2,2v3.34H14.35a2,2,0,0,0-2,2v.57a2,2,0,0,0,2,2h3.33v3.33a2,2,0,0,0,2,2h.57a2,2,0,0,0,2-2V74.43h3.33a2,2,0,0,0,2-2v-.57A2,2,0,0,0,25.58,69.86Z"/></svg>