<?xml version="1.0" encoding="utf-8"?>
<!-- Generator: Adobe Illustrator 25.4.1, SVG Export Plug-In . SVG Version: 6.00 Build 0)  -->
<!DOCTYPE svg PUBLIC "-//W3C//DTD SVG 1.1//EN" "http://www.w3.org/Graphics/SVG/1.1/DTD/svg11.dtd" [
	<!ENTITY ns_extend "http://ns.adobe.com/Extensibility/1.0/">
	<!ENTITY ns_ai "http://ns.adobe.com/AdobeIllustrator/10.0/">
	<!ENTITY ns_graphs "http://ns.adobe.com/Graphs/1.0/">
	<!ENTITY ns_vars "http://ns.adobe.com/Variables/1.0/">
	<!ENTITY ns_imrep "http://ns.adobe.com/ImageReplacement/1.0/">
	<!ENTITY ns_sfw "http://ns.adobe.com/SaveForWeb/1.0/">
	<!ENTITY ns_custom "http://ns.adobe.com/GenericCustomNamespace/1.0/">
	<!ENTITY ns_adobe_xpath "http://ns.adobe.com/XPath/1.0/">
]>
<svg version="1.1" id="Layer_1" xmlns:x="&ns_extend;" xmlns:i="&ns_ai;" xmlns:graph="&ns_graphs;"
	 xmlns="http://www.w3.org/2000/svg" xmlns:xlink="http://www.w3.org/1999/xlink" x="0px" y="0px" viewBox="0 0 126.1 64"
	 style="enable-background:new 0 0 126.1 64;" xml:space="preserve">
<style type="text/css">
	.st0{fill:#3A4A9F;}
</style>
<metadata>
	<sfw  xmlns="&ns_sfw;">
		<slices></slices>
		<sliceSourceBounds  bottomLeftOrigin="true" height="64.3" width="126.2" x="0" y="0"></sliceSourceBounds>
	</sfw>
</metadata>
<path id="Path_14307" class="st0" d="M119.9,29.4L119.9,29.4c0.8-1.5,1.4-2.9,2.1-4.5l0.1-0.2c0.2-0.4,0.4-0.9,0.5-1.3l0.1-0.3
	c0.2-0.4,0.3-0.9,0.5-1.3c0-0.1,0.1-0.1,0.1-0.2c0.4-1,0.7-2,1-3.1c0-0.1,0-0.1,0.1-0.2c0.1-0.4,0.3-0.9,0.4-1.3
	c0-0.1,0.1-0.3,0.1-0.4c0.1-0.4,0.2-0.7,0.3-1.1c0-0.2,0.1-0.3,0.1-0.5c0.1-0.4,0.2-0.8,0.3-1.2c0-0.1,0.1-0.2,0.1-0.4
	c0.1-0.5,0.2-1,0.3-1.6c1.1-5.5-2.6-10.8-8.1-11.9c-0.6-0.1-1.3-0.2-1.9-0.2H10.2C4.5,0,0,4.6,0,10.2c0,0.6,0.1,1.3,0.2,1.9
	c0,0.1,0,0.2,0,0.2c0.1,0.4,0.2,0.9,0.3,1.3c0,0.2,0.1,0.4,0.1,0.6c0.1,0.3,0.1,0.6,0.2,0.9c0.1,0.2,0.1,0.4,0.2,0.6
	c0.1,0.3,0.2,0.6,0.2,0.9c0.1,0.2,0.1,0.4,0.2,0.6c0.1,0.3,0.2,0.7,0.3,1c0,0.2,0.1,0.3,0.1,0.5c0.2,0.5,0.3,1,0.5,1.5l0.1,0.2
	c0.1,0.4,0.3,0.9,0.5,1.3c0,0.1,0.1,0.3,0.2,0.4c0.1,0.4,0.3,0.7,0.4,1.1c0.1,0.1,0.1,0.3,0.2,0.4c0,0.4,0.1,0.7,0.3,1.1
	c0,0.1,0.1,0.2,0.1,0.3c0.2,0.5,0.4,0.9,0.6,1.4l0,0c0.4,1,0.9,2,1.4,2.9l0.1,0.2c0.2,0.4,0.4,0.8,0.7,1.2L7,31
	c0.2,0.4,0.5,0.9,0.7,1.3v0.1c0.8,1.4,1.7,2.8,2.6,4.1l0,0l0,0c20.2,29,60,36.2,89.1,16.1c8.1-5.6,14.8-13,19.6-21.7l0,0
	C119.4,30.4,119.6,29.9,119.9,29.4z M63,53.8c-18,0-34.8-9-44.8-24C31.9,21,49.4,21,63,29.9c13.6-8.9,31.2-8.9,44.8,0
	C97.9,44.9,81,53.8,63,53.8L63,53.8z"/>
</svg>
