<?xml version="1.0" encoding="utf-8"?>
<!-- Generator: Adobe Illustrator 25.4.1, SVG Export Plug-In . SVG Version: 6.00 Build 0)  -->
<!DOCTYPE svg PUBLIC "-//W3C//DTD SVG 1.1//EN" "http://www.w3.org/Graphics/SVG/1.1/DTD/svg11.dtd" [
	<!ENTITY ns_extend "http://ns.adobe.com/Extensibility/1.0/">
	<!ENTITY ns_ai "http://ns.adobe.com/AdobeIllustrator/10.0/">
	<!ENTITY ns_graphs "http://ns.adobe.com/Graphs/1.0/">
	<!ENTITY ns_vars "http://ns.adobe.com/Variables/1.0/">
	<!ENTITY ns_imrep "http://ns.adobe.com/ImageReplacement/1.0/">
	<!ENTITY ns_sfw "http://ns.adobe.com/SaveForWeb/1.0/">
	<!ENTITY ns_custom "http://ns.adobe.com/GenericCustomNamespace/1.0/">
	<!ENTITY ns_adobe_xpath "http://ns.adobe.com/XPath/1.0/">
]>
<svg version="1.1" id="Layer_1" xmlns:x="&ns_extend;" xmlns:i="&ns_ai;" xmlns:graph="&ns_graphs;"
	 xmlns="http://www.w3.org/2000/svg" xmlns:xlink="http://www.w3.org/1999/xlink" x="0px" y="0px" viewBox="0 0 80 75"
	 style="enable-background:new 0 0 80 75;" xml:space="preserve">
<style type="text/css">
	.st0{fill:#3A4A9F;}
</style>
<metadata>
	<sfw  xmlns="&ns_sfw;">
		<slices></slices>
		<sliceSourceBounds  bottomLeftOrigin="true" height="75" width="80" x="0" y="0"></sliceSourceBounds>
	</sfw>
</metadata>
<path id="Path_14333" class="st0" d="M75,15H65V5c0-2.8-2.2-5-5-5H20c-2.8,0-5,2.2-5,5v10H5c-2.8,0-5,2.2-5,5v50c0,2.8,2.2,5,5,5h70
	c2.8,0,5-2.2,5-5V20C80,17.2,77.8,15,75,15z M58,50.6c0,0.6-0.4,1-1,1H46.6V62c0,0.6-0.4,1-1,1h-10c-0.6,0-1-0.4-1-1V51.6H23
	c-0.6,0-1-0.4-1-1v-10c0-0.6,0.4-1,1-1h11.6V28c0-0.6,0.4-1,1-1h10c0.6,0,1,0.4,1,1v11.6H57c0.6,0,1,0.4,1,1V50.6z M59,15H21V6h38
	V15z"/>
</svg>
