<?xml version="1.0" encoding="utf-8"?>
<!-- Generator: Adobe Illustrator 25.4.1, SVG Export Plug-In . SVG Version: 6.00 Build 0)  -->
<!DOCTYPE svg PUBLIC "-//W3C//DTD SVG 1.1//EN" "http://www.w3.org/Graphics/SVG/1.1/DTD/svg11.dtd" [
	<!ENTITY ns_extend "http://ns.adobe.com/Extensibility/1.0/">
	<!ENTITY ns_ai "http://ns.adobe.com/AdobeIllustrator/10.0/">
	<!ENTITY ns_graphs "http://ns.adobe.com/Graphs/1.0/">
	<!ENTITY ns_vars "http://ns.adobe.com/Variables/1.0/">
	<!ENTITY ns_imrep "http://ns.adobe.com/ImageReplacement/1.0/">
	<!ENTITY ns_sfw "http://ns.adobe.com/SaveForWeb/1.0/">
	<!ENTITY ns_custom "http://ns.adobe.com/GenericCustomNamespace/1.0/">
	<!ENTITY ns_adobe_xpath "http://ns.adobe.com/XPath/1.0/">
]>
<svg version="1.1" id="Layer_1" xmlns:x="&ns_extend;" xmlns:i="&ns_ai;" xmlns:graph="&ns_graphs;"
	 xmlns="http://www.w3.org/2000/svg" xmlns:xlink="http://www.w3.org/1999/xlink" x="0px" y="0px" viewBox="0 0 72.2 49.9"
	 style="enable-background:new 0 0 72.2 49.9;" xml:space="preserve">
<style type="text/css">
	.st0{fill:#3A4A9F;}
</style>
<metadata>
	<sfw  xmlns="&ns_sfw;">
		<slices></slices>
		<sliceSourceBounds  bottomLeftOrigin="true" height="50" width="72.2" x="0" y="0"></sliceSourceBounds>
	</sfw>
</metadata>
<path id="Path_14309" class="st0" d="M67.9,39.5c-1.4-1.4-3.1-2.5-5-3.3c3.9-3.1,4.5-8.7,1.4-12.5c-3.1-3.9-8.7-4.5-12.5-1.4
	s-4.5,8.7-1.4,12.5c0.4,0.5,0.9,1,1.4,1.4c-1.6,0.6-3.1,1.6-4.4,2.7C44.7,33.4,40,29,34.2,26.7c6.5-5.1,7.6-14.5,2.5-21.1
	C31.6-0.9,22.2-2,15.6,3.1S8,17.6,13.1,24.2c0.7,0.9,1.6,1.8,2.5,2.5C6.3,30.6,0,39.7,0,49.9h72.2C72.2,46,70.6,42.2,67.9,39.5z"/>
</svg>
