<?xml version="1.0" encoding="utf-8"?>
<!-- Generator: Adobe Illustrator 25.4.1, SVG Export Plug-In . SVG Version: 6.00 Build 0)  -->
<!DOCTYPE svg PUBLIC "-//W3C//DTD SVG 1.1//EN" "http://www.w3.org/Graphics/SVG/1.1/DTD/svg11.dtd" [
	<!ENTITY ns_extend "http://ns.adobe.com/Extensibility/1.0/">
	<!ENTITY ns_ai "http://ns.adobe.com/AdobeIllustrator/10.0/">
	<!ENTITY ns_graphs "http://ns.adobe.com/Graphs/1.0/">
	<!ENTITY ns_vars "http://ns.adobe.com/Variables/1.0/">
	<!ENTITY ns_imrep "http://ns.adobe.com/ImageReplacement/1.0/">
	<!ENTITY ns_sfw "http://ns.adobe.com/SaveForWeb/1.0/">
	<!ENTITY ns_custom "http://ns.adobe.com/GenericCustomNamespace/1.0/">
	<!ENTITY ns_adobe_xpath "http://ns.adobe.com/XPath/1.0/">
]>
<svg version="1.1" id="Layer_1" xmlns:x="&ns_extend;" xmlns:i="&ns_ai;" xmlns:graph="&ns_graphs;"
	 xmlns="http://www.w3.org/2000/svg" xmlns:xlink="http://www.w3.org/1999/xlink" x="0px" y="0px" viewBox="0 0 68.1 58"
	 style="enable-background:new 0 0 68.1 58;" xml:space="preserve">
<style type="text/css">
	.st0{fill:#3A4A9F;}
</style>
<metadata>
	<sfw  xmlns="&ns_sfw;">
		<slices></slices>
		<sliceSourceBounds  bottomLeftOrigin="true" height="58" width="68.1" x="0" y="0"></sliceSourceBounds>
	</sfw>
</metadata>
<g id="Group_20942" transform="translate(-566.27 -571.166)">
	<g id="Group_20663">
		<path id="Path_14315" class="st0" d="M614.5,615.9L614.5,615.9z"/>
	</g>
	<g id="Group_20682">
		<path id="Path_14316" class="st0" d="M608.9,611.5c-2.4-2.4-5.3-4.3-8.4-5.5c6.5-5.1,7.6-14.5,2.5-21.1
			c-5.1-6.5-14.5-7.6-21.1-2.5s-7.6,14.5-2.5,21.1c0.7,0.9,1.6,1.8,2.5,2.5c-9.5,3.8-15.7,13-15.7,23.2h50
			C616.3,622.5,613.6,616.2,608.9,611.5z"/>
		<g id="Group_20681">
			<g id="Group_20680">
				<path id="Path_14218" class="st0" d="M622.4,571.2c-6.6,0-12,5.4-12,12s5.4,12,12,12s12-5.4,12-12S629,571.2,622.4,571.2z
					 M629.1,580l-7.7,7.6c-0.5,0.5-1.2,0.5-1.7,0l-4.1-3.7c-0.5-0.4-0.5-1.2-0.1-1.7c0.4-0.5,1.2-0.5,1.7-0.1c0,0,0,0,0,0l0,0
					l3.2,2.9l6.9-6.9c0.5-0.5,1.2-0.5,1.7,0C629.5,578.8,629.5,579.5,629.1,580L629.1,580z"/>
			</g>
		</g>
	</g>
</g>
</svg>
