<?xml version="1.0" encoding="utf-8"?>
<!-- Generator: Adobe Illustrator 25.4.1, SVG Export Plug-In . SVG Version: 6.00 Build 0)  -->
<!DOCTYPE svg PUBLIC "-//W3C//DTD SVG 1.1//EN" "http://www.w3.org/Graphics/SVG/1.1/DTD/svg11.dtd" [
	<!ENTITY ns_extend "http://ns.adobe.com/Extensibility/1.0/">
	<!ENTITY ns_ai "http://ns.adobe.com/AdobeIllustrator/10.0/">
	<!ENTITY ns_graphs "http://ns.adobe.com/Graphs/1.0/">
	<!ENTITY ns_vars "http://ns.adobe.com/Variables/1.0/">
	<!ENTITY ns_imrep "http://ns.adobe.com/ImageReplacement/1.0/">
	<!ENTITY ns_sfw "http://ns.adobe.com/SaveForWeb/1.0/">
	<!ENTITY ns_custom "http://ns.adobe.com/GenericCustomNamespace/1.0/">
	<!ENTITY ns_adobe_xpath "http://ns.adobe.com/XPath/1.0/">
]>
<svg version="1.1" id="Layer_1" xmlns:x="&ns_extend;" xmlns:i="&ns_ai;" xmlns:graph="&ns_graphs;"
	 xmlns="http://www.w3.org/2000/svg" xmlns:xlink="http://www.w3.org/1999/xlink" x="0px" y="0px" viewBox="0 0 45.7 60"
	 style="enable-background:new 0 0 45.7 60;" xml:space="preserve">
<style type="text/css">
	.st0{fill:#3A4A9F;}
</style>
<metadata>
	<sfw  xmlns="&ns_sfw;">
		<slices></slices>
		<sliceSourceBounds  bottomLeftOrigin="true" height="60" width="45.8" x="0" y="-0.1"></sliceSourceBounds>
	</sfw>
</metadata>
<g id="Group_20686" transform="translate(-80.881 0.998)">
	<g id="Group_20943" transform="translate(-496.584 -571.235)">
		<path id="Path_14321" class="st0" d="M621.4,577.4h-4.1c-5.9,0-11.6-2.4-15.7-6.6c-0.7-0.7-1.8-0.7-2.5,0l0,0l0,0
			c-4.2,4.2-9.8,6.6-15.7,6.6h-4.1c-1,0-1.8,0.8-1.8,1.8v21.1c0,15.8,11.5,23.1,19.1,27.9c0.7,0.4,3,2.1,3.8,2.1s3-1.6,3.7-2
			c7.6-4.8,19.2-12.1,19.2-28v-21.1C623.2,578.2,622.4,577.4,621.4,577.4L621.4,577.4z M600.3,616.1c-8.7,0-15.8-7.1-15.8-15.8
			s7.1-15.8,15.8-15.8s15.8,7.1,15.8,15.8S609.1,616.1,600.3,616.1L600.3,616.1z"/>
		<path id="Path_14322" class="st0" d="M600.3,587.9c-6.8,0-12.3,5.5-12.3,12.3s5.5,12.3,12.3,12.3s12.3-5.5,12.3-12.3l0,0
			C612.6,593.4,607.1,587.9,600.3,587.9z M608.6,597.9L608.6,597.9l-8.8,8.8c-0.7,0.7-1.8,0.7-2.5,0l0,0l-5.3-5.3
			c-0.7-0.7-0.7-1.8,0-2.5s1.8-0.7,2.5,0l0,0l0,0l4,4l7.5-7.5c0.7-0.7,1.8-0.7,2.5,0C609.3,596.1,609.3,597.2,608.6,597.9
			L608.6,597.9z"/>
	</g>
</g>
</svg>
