<?xml version="1.0" encoding="utf-8"?>
<!-- Generator: Adobe Illustrator 25.4.1, SVG Export Plug-In . SVG Version: 6.00 Build 0)  -->
<!DOCTYPE svg PUBLIC "-//W3C//DTD SVG 1.1//EN" "http://www.w3.org/Graphics/SVG/1.1/DTD/svg11.dtd" [
	<!ENTITY ns_extend "http://ns.adobe.com/Extensibility/1.0/">
	<!ENTITY ns_ai "http://ns.adobe.com/AdobeIllustrator/10.0/">
	<!ENTITY ns_graphs "http://ns.adobe.com/Graphs/1.0/">
	<!ENTITY ns_vars "http://ns.adobe.com/Variables/1.0/">
	<!ENTITY ns_imrep "http://ns.adobe.com/ImageReplacement/1.0/">
	<!ENTITY ns_sfw "http://ns.adobe.com/SaveForWeb/1.0/">
	<!ENTITY ns_custom "http://ns.adobe.com/GenericCustomNamespace/1.0/">
	<!ENTITY ns_adobe_xpath "http://ns.adobe.com/XPath/1.0/">
]>
<svg version="1.1" id="Layer_1" xmlns:x="&ns_extend;" xmlns:i="&ns_ai;" xmlns:graph="&ns_graphs;"
	 xmlns="http://www.w3.org/2000/svg" xmlns:xlink="http://www.w3.org/1999/xlink" x="0px" y="0px" viewBox="0 0 54.8 60"
	 style="enable-background:new 0 0 54.8 60;" xml:space="preserve">
<style type="text/css">
	.st0{fill:#3A4A9F;}
</style>
<metadata>
	<sfw  xmlns="&ns_sfw;">
		<slices></slices>
		<sliceSourceBounds  bottomLeftOrigin="true" height="60.1" width="54.7" x="0.1" y="-0.1"></sliceSourceBounds>
	</sfw>
</metadata>
<g id="Group_20948" transform="translate(-594.874 -552.371)">
	<path id="Path_14335" class="st0" d="M648.6,562.9c-1.4-4.5-4.8-8.1-9.2-9.6c-5.8-1.8-12-0.9-17.1,2.3c-5.1-3.2-11.3-4.1-17.1-2.3
		c-4.4,1.6-7.9,5.2-9.2,9.7c-2.1,6.6-1,13.7,2.9,19.4c2.6,3.8,4.3,8.2,5,12.8c0,0.3,0.1,0.5,0.1,0.8c0.4,3.8,1.3,7.6,2.6,11.2
		c1.4,3.3,3.2,5,5.3,5.3c2.3,0.2,4.1-1.7,5.6-5.6c1.1-3.4,1.9-6.8,2.2-10.4c0.1-1.8,0.7-3.6,1.6-5.2c0.4-0.5,1-0.6,1.5-0.3
		c0.1,0.1,0.2,0.2,0.3,0.3c1,1.6,1.5,3.3,1.6,5.2c0.3,3.5,1.1,7,2.2,10.4c1.4,3.7,3.1,5.6,5.2,5.6c0.1,0,0.2,0,0.4,0
		c2.1-0.2,3.9-2,5.3-5.3c1.4-3.6,2.2-7.4,2.6-11.2c0-0.3,0.1-0.5,0.1-0.8c0.7-4.6,2.4-9,5-12.8C649.6,576.7,650.7,569.5,648.6,562.9
		z M622.3,585.5c-6.6,0-12-5.4-12-12s5.4-12,12-12s12,5.4,12,12S628.9,585.5,622.3,585.5z"/>
	<path id="Path_14336" class="st0" d="M627.9,571.2h-3.3v-3.3c0-1.1-0.9-2-2-2H622c-1.1,0-2,0.9-2,2v3.3h-3.3c-1.1,0-2,0.9-2,2v0.6
		c0,1.1,0.9,2,2,2h3.3v3.3c0,1.1,0.9,2,2,2h0.6c1.1,0,2-0.9,2-2v-3.3h3.3c1.1,0,2-0.9,2-2v-0.6C629.9,572.1,629,571.2,627.9,571.2
		L627.9,571.2z"/>
</g>
</svg>
