<?xml version="1.0" encoding="utf-8"?>
<!-- Generator: Adobe Illustrator 25.4.1, SVG Export Plug-In . SVG Version: 6.00 Build 0)  -->
<!DOCTYPE svg PUBLIC "-//W3C//DTD SVG 1.1//EN" "http://www.w3.org/Graphics/SVG/1.1/DTD/svg11.dtd" [
	<!ENTITY ns_extend "http://ns.adobe.com/Extensibility/1.0/">
	<!ENTITY ns_ai "http://ns.adobe.com/AdobeIllustrator/10.0/">
	<!ENTITY ns_graphs "http://ns.adobe.com/Graphs/1.0/">
	<!ENTITY ns_vars "http://ns.adobe.com/Variables/1.0/">
	<!ENTITY ns_imrep "http://ns.adobe.com/ImageReplacement/1.0/">
	<!ENTITY ns_sfw "http://ns.adobe.com/SaveForWeb/1.0/">
	<!ENTITY ns_custom "http://ns.adobe.com/GenericCustomNamespace/1.0/">
	<!ENTITY ns_adobe_xpath "http://ns.adobe.com/XPath/1.0/">
]>
<svg version="1.1" id="Layer_1" xmlns:x="&ns_extend;" xmlns:i="&ns_ai;" xmlns:graph="&ns_graphs;"
	 xmlns="http://www.w3.org/2000/svg" xmlns:xlink="http://www.w3.org/1999/xlink" x="0px" y="0px" viewBox="0 0 54.8 60"
	 style="enable-background:new 0 0 54.8 60;" xml:space="preserve">
<style type="text/css">
	.st0{fill:#3A4A9F;}
</style>
<metadata>
	<sfw  xmlns="&ns_sfw;">
		<slices></slices>
		<sliceSourceBounds  bottomLeftOrigin="true" height="60" width="54.8" x="0" y="0"></sliceSourceBounds>
	</sfw>
</metadata>
<g id="Group_20949" transform="translate(-595.291 -552.371)">
	<path id="Path_14340" class="st0" d="M631.3,571.3h-18v3h18V571.3z"/>
	<path id="Path_14341" class="st0" d="M607.3,574.3v-3c0-3.3,2.7-6,6-6h18c3.3,0,6,2.7,6,6v3h12.3c0.8-3.8,0.6-7.7-0.6-11.4
		c-1.4-4.5-4.8-8.1-9.2-9.6c-5.8-1.8-12-0.9-17.1,2.3c-5.1-3.2-11.3-4.1-17.1-2.3c-4.4,1.6-7.9,5.2-9.2,9.7
		c-1.2,3.7-1.4,7.6-0.6,11.4L607.3,574.3z"/>
	<path id="Path_14342" class="st0" d="M637.3,580.3v3c0,3.3-2.7,6-6,6h-18c-3.3,0-6-2.7-6-6v-3H598c0.4,0.7,0.8,1.4,1.2,2
		c2.6,3.8,4.3,8.2,5,12.8c0,0.3,0.1,0.5,0.1,0.8c0.4,3.8,1.3,7.6,2.6,11.2c1.4,3.3,3.2,5,5.3,5.3c2.3,0.2,4.1-1.7,5.6-5.6
		c1.1-3.4,1.9-6.8,2.2-10.4c0.1-1.8,0.7-3.6,1.6-5.2c0.4-0.5,1-0.6,1.5-0.3c0.1,0.1,0.2,0.2,0.3,0.3c1,1.6,1.5,3.3,1.6,5.2
		c0.3,3.5,1.1,7,2.2,10.4c1.4,3.7,3.1,5.6,5.2,5.6c0.1,0,0.2,0,0.4,0c2.1-0.2,3.9-2,5.3-5.3c1.4-3.6,2.2-7.4,2.6-11.2
		c0-0.3,0.1-0.5,0.1-0.8c0.7-4.6,2.4-9,5-12.8c0.4-0.6,0.9-1.3,1.2-2H637.3z"/>
	<rect id="Rectangle_678" x="613.3" y="580.3" class="st0" width="18" height="3"/>
</g>
</svg>
