<?xml version="1.0" encoding="utf-8"?>
<!-- Generator: Adobe Illustrator 25.4.1, SVG Export Plug-In . SVG Version: 6.00 Build 0)  -->
<!DOCTYPE svg PUBLIC "-//W3C//DTD SVG 1.1//EN" "http://www.w3.org/Graphics/SVG/1.1/DTD/svg11.dtd" [
	<!ENTITY ns_extend "http://ns.adobe.com/Extensibility/1.0/">
	<!ENTITY ns_ai "http://ns.adobe.com/AdobeIllustrator/10.0/">
	<!ENTITY ns_graphs "http://ns.adobe.com/Graphs/1.0/">
	<!ENTITY ns_vars "http://ns.adobe.com/Variables/1.0/">
	<!ENTITY ns_imrep "http://ns.adobe.com/ImageReplacement/1.0/">
	<!ENTITY ns_sfw "http://ns.adobe.com/SaveForWeb/1.0/">
	<!ENTITY ns_custom "http://ns.adobe.com/GenericCustomNamespace/1.0/">
	<!ENTITY ns_adobe_xpath "http://ns.adobe.com/XPath/1.0/">
]>
<svg version="1.1" id="Layer_1" xmlns:x="&ns_extend;" xmlns:i="&ns_ai;" xmlns:graph="&ns_graphs;"
	 xmlns="http://www.w3.org/2000/svg" xmlns:xlink="http://www.w3.org/1999/xlink" x="0px" y="0px" viewBox="0 0 112 107"
	 style="enable-background:new 0 0 112 107;" xml:space="preserve">
<style type="text/css">
	.st0{fill:#3A4A9F;}
</style>
<metadata>
	<sfw  xmlns="&ns_sfw;">
		<slices></slices>
		<sliceSourceBounds  bottomLeftOrigin="true" height="107" width="112" x="0" y="0"></sliceSourceBounds>
	</sfw>
</metadata>
<g id="Group_20691" transform="translate(-249 -9648)">
	<g id="Group_20688" transform="translate(273.014 9670)">
		<g id="Group_20687" transform="translate(0 0)">
			<path id="Path_14221" class="st0" d="M62.7,12.4c-1.9-5.6-5.8-9.7-10.8-11.3C45.2-1,37.9,0,32,3.8C26.1,0,18.8-1,12,1.1
				C7.1,2.7,3.2,6.8,1.3,12.4C-1.2,20,0.1,28.4,4.7,35c3.1,4.5,5.1,9.6,5.9,14.9c0,0.3,0.1,0.6,0.1,0.9c0.5,4.5,1.5,8.8,3.1,13
				c1.6,3.8,3.7,5.9,6.2,6.1c2.6,0.3,4.8-1.9,6.5-6.5c1.3-3.9,2.2-8,2.6-12.1c0.1-2.1,0.8-4.2,1.9-6c0.4-0.6,1.2-0.7,1.8-0.3
				c0.1,0.1,0.2,0.2,0.3,0.3c1.1,1.8,1.8,3.9,1.9,6c0.4,4.1,1.3,8.2,2.6,12.1c1.6,4.3,3.6,6.5,6.1,6.5c0.1,0,0.3,0,0.4,0
				c2.5-0.2,4.6-2.3,6.2-6.1c1.6-4.2,2.6-8.6,3.1-13c0-0.3,0.1-0.6,0.1-0.9c0.8-5.4,2.8-10.5,5.9-14.9C63.9,28.4,65.2,20,62.7,12.4z
				"/>
		</g>
	</g>
	<path id="Polygon_8" class="st0" d="M346,9648l3.8,11.2l11.2,3.8l-11.2,3.8L346,9678l-3.8-11.2L331,9663l11.2-3.8L346,9648z"/>
	<path id="Polygon_9" class="st0" d="M264,9725l3.8,11.2l11.2,3.8l-11.2,3.8L264,9755l-3.8-11.2L249,9740l11.2-3.8L264,9725z"/>
</g>
</svg>
