<?xml version="1.0" encoding="utf-8"?>
<!-- Generator: Adobe Illustrator 25.4.1, SVG Export Plug-In . SVG Version: 6.00 Build 0)  -->
<!DOCTYPE svg PUBLIC "-//W3C//DTD SVG 1.1//EN" "http://www.w3.org/Graphics/SVG/1.1/DTD/svg11.dtd" [
	<!ENTITY ns_extend "http://ns.adobe.com/Extensibility/1.0/">
	<!ENTITY ns_ai "http://ns.adobe.com/AdobeIllustrator/10.0/">
	<!ENTITY ns_graphs "http://ns.adobe.com/Graphs/1.0/">
	<!ENTITY ns_vars "http://ns.adobe.com/Variables/1.0/">
	<!ENTITY ns_imrep "http://ns.adobe.com/ImageReplacement/1.0/">
	<!ENTITY ns_sfw "http://ns.adobe.com/SaveForWeb/1.0/">
	<!ENTITY ns_custom "http://ns.adobe.com/GenericCustomNamespace/1.0/">
	<!ENTITY ns_adobe_xpath "http://ns.adobe.com/XPath/1.0/">
]>
<svg version="1.1" id="Layer_1" xmlns:x="&ns_extend;" xmlns:i="&ns_ai;" xmlns:graph="&ns_graphs;"
	 xmlns="http://www.w3.org/2000/svg" xmlns:xlink="http://www.w3.org/1999/xlink" x="0px" y="0px" viewBox="0 0 55.6 48.5"
	 style="enable-background:new 0 0 55.6 48.5;" xml:space="preserve">
<style type="text/css">
	.st0{fill:#000064;}
</style>
<metadata>
	<sfw  xmlns="&ns_sfw;">
		<slices></slices>
		<sliceSourceBounds  bottomLeftOrigin="true" height="48.9" width="55.6" x="44.2" y="50.9"></sliceSourceBounds>
	</sfw>
</metadata>
<g>
	<path class="st0" d="M55.2,44.2L30.4,1.3c-0.3-0.5-0.6-0.8-1.1-1.1c-1.4-0.8-3.3-0.3-4.1,1.1L0.4,44.2c-0.3,0.5-0.4,1-0.4,1.5
		c0,1.7,1.3,3,3,3h49.6c0.5,0,1-0.1,1.5-0.4C55.5,47.5,56,45.7,55.2,44.2z M28.3,43.8c-2.5,0-4.5-2-4.5-4.5s2-4.5,4.5-4.5
		s4.5,2,4.5,4.5S30.8,43.8,28.3,43.8z M32.8,28.8c0,1.1-0.9,2-2,2h-5c-1.1,0-2-0.9-2-2v-12c0-1.1,0.9-2,2-2h5c1.1,0,2,0.9,2,2V28.8z
		"/>
</g>
</svg>
