<?xml version="1.0" encoding="utf-8"?>
<!-- Generator: Adobe Illustrator 25.4.1, SVG Export Plug-In . SVG Version: 6.00 Build 0)  -->
<!DOCTYPE svg PUBLIC "-//W3C//DTD SVG 1.1//EN" "http://www.w3.org/Graphics/SVG/1.1/DTD/svg11.dtd" [
	<!ENTITY ns_extend "http://ns.adobe.com/Extensibility/1.0/">
	<!ENTITY ns_ai "http://ns.adobe.com/AdobeIllustrator/10.0/">
	<!ENTITY ns_graphs "http://ns.adobe.com/Graphs/1.0/">
	<!ENTITY ns_vars "http://ns.adobe.com/Variables/1.0/">
	<!ENTITY ns_imrep "http://ns.adobe.com/ImageReplacement/1.0/">
	<!ENTITY ns_sfw "http://ns.adobe.com/SaveForWeb/1.0/">
	<!ENTITY ns_custom "http://ns.adobe.com/GenericCustomNamespace/1.0/">
	<!ENTITY ns_adobe_xpath "http://ns.adobe.com/XPath/1.0/">
]>
<svg version="1.1" id="Layer_1" xmlns:x="&ns_extend;" xmlns:i="&ns_ai;" xmlns:graph="&ns_graphs;"
	 xmlns="http://www.w3.org/2000/svg" xmlns:xlink="http://www.w3.org/1999/xlink" x="0px" y="0px" viewBox="0 0 53 53.4"
	 style="enable-background:new 0 0 53 53.4;" xml:space="preserve">
<style type="text/css">
	.st0{fill:#FFFFFF;}
	.st1{fill:#000064;}
</style>
<metadata>
	<sfw  xmlns="&ns_sfw;">
		<slices></slices>
		<sliceSourceBounds  bottomLeftOrigin="true" height="53.4" width="53" x="0" y="0"></sliceSourceBounds>
	</sfw>
</metadata>
<g id="Group_20731">
	<g id="Group_20687">
		<path id="Path_14221" class="st0" d="M46.5,12.2c-1.2-3.7-4-6.7-7.7-8c-4.8-1.5-10-0.8-14.2,1.9c-4.2-2.7-9.4-3.4-14.3-1.9
			c-3.7,1.3-6.5,4.3-7.7,8c-1.8,5.5-0.9,11.5,2.4,16.2c2.2,3.2,3.6,6.8,4.2,10.6l0.1,0.7c0.3,3.2,1.1,6.3,2.2,9.3
			c1.1,2.7,2.6,4.2,4.4,4.4s3.4-1.4,4.6-4.7c1-2.8,1.6-5.7,1.9-8.6c0.1-1.5,0.6-3,1.4-4.3c0.3-0.4,0.9-0.5,1.3-0.2
			c0.1,0.1,0.2,0.1,0.2,0.2c0.8,1.3,1.3,2.8,1.4,4.3c0.3,2.9,0.9,5.8,1.9,8.6c1.1,3.1,2.6,4.7,4.3,4.7h0.3c1.8-0.2,3.3-1.7,4.4-4.4
			c1.1-3,1.9-6.1,2.2-9.3c0-0.2,0-0.4,0.1-0.6c0.6-3.8,2-7.5,4.2-10.7C47.4,23.7,48.3,17.7,46.5,12.2z"/>
	</g>
</g>
<g id="Group_20731-2">
	<g id="Group_20687-2">
		<path id="Path_14221-2" class="st1" d="M51.6,32.5c1.8-3.5,1.9-7.6,0.2-11.1c-2.4-4.4-6.5-7.6-11.4-8.7c-1.1-4.9-4.3-9.1-8.7-11.5
			C28.1-0.5,24-0.4,20.5,1.5c-5.1,2.6-8.7,7.5-9.7,13.1c-0.7,3.8-2.3,7.4-4.6,10.5l-0.4,0.5c-2,2.5-3.7,5.2-5,8.1
			c-1.1,2.7-1.1,4.8,0,6.2s3.4,1.5,6.6,0c2.7-1.3,5.1-2.9,7.4-4.8c1.1-1,2.5-1.7,4-2.1c0.5-0.1,1,0.2,1.1,0.7c0,0,0,0,0,0
			c0,0.1,0,0.2,0,0.3c-0.4,1.5-1.1,2.9-2.1,4c-1.9,2.3-3.5,4.8-4.8,7.4c-1.4,3-1.5,5.1-0.2,6.4l0.2,0.2c1.4,1.1,3.5,1.1,6.2,0
			c2.9-1.3,5.7-3,8.1-5l0.5-0.4c3.1-2.3,6.7-3.9,10.5-4.6C44.1,41.2,49,37.6,51.6,32.5z"/>
	</g>
</g>
</svg>
