<?xml version="1.0" encoding="utf-8"?>
<!-- Generator: Adobe Illustrator 25.4.1, SVG Export Plug-In . SVG Version: 6.00 Build 0)  -->
<!DOCTYPE svg PUBLIC "-//W3C//DTD SVG 1.1//EN" "http://www.w3.org/Graphics/SVG/1.1/DTD/svg11.dtd" [
	<!ENTITY ns_extend "http://ns.adobe.com/Extensibility/1.0/">
	<!ENTITY ns_ai "http://ns.adobe.com/AdobeIllustrator/10.0/">
	<!ENTITY ns_graphs "http://ns.adobe.com/Graphs/1.0/">
	<!ENTITY ns_vars "http://ns.adobe.com/Variables/1.0/">
	<!ENTITY ns_imrep "http://ns.adobe.com/ImageReplacement/1.0/">
	<!ENTITY ns_sfw "http://ns.adobe.com/SaveForWeb/1.0/">
	<!ENTITY ns_custom "http://ns.adobe.com/GenericCustomNamespace/1.0/">
	<!ENTITY ns_adobe_xpath "http://ns.adobe.com/XPath/1.0/">
]>
<svg version="1.1" id="Layer_1" xmlns:x="&ns_extend;" xmlns:i="&ns_ai;" xmlns:graph="&ns_graphs;"
	 xmlns="http://www.w3.org/2000/svg" xmlns:xlink="http://www.w3.org/1999/xlink" x="0px" y="0px" viewBox="0 0 59.9 65.4"
	 style="enable-background:new 0 0 59.9 65.4;" xml:space="preserve">
<style type="text/css">
	.st0{fill:none;}
	.st1{fill:#FFFFFF;}
	.st2{fill:#000064;}
</style>
<metadata>
	<sfw  xmlns="&ns_sfw;">
		<slices></slices>
		<sliceSourceBounds  bottomLeftOrigin="true" height="65.4" width="59.9" x="45" y="40.4"></sliceSourceBounds>
	</sfw>
</metadata>
<g id="Group_20744" transform="translate(-250 -6595)">
	<path class="st0" d="M268,6611.8h18c3.3,0,6,2.7,6,6v12c0,3.3-2.7,6-6,6h-18c-3.3,0-6-2.7-6-6v-12
		C262,6614.5,264.7,6611.8,268,6611.8z"/>
	<g>
		<path class="st1" d="M262,6620.8v-3c0-3.3,2.7-6,6-6h18c3.3,0,6,2.7,6,6v3h12.3c0.8-3.7,0.6-7.7-0.6-11.4c-1.6-4.8-5-8.3-9.2-9.6
			c-5.8-1.8-12-0.9-17.1,2.3c-5.1-3.2-11.3-4.1-17.1-2.3c-4.2,1.4-7.6,4.9-9.2,9.7c-1.2,3.7-1.4,7.7-0.6,11.4H262V6620.8z"/>
		<polygon class="st1" points="286,6617.8 268,6617.8 268,6617.8 268,6620.8 286,6620.8 		"/>
		<path class="st1" d="M292,6626.8v3c0,3.3-2.7,6-6,6h-18c-3.3,0-6-2.7-6-6v-3h-9.2c0.4,0.7,0.8,1.4,1.2,2c2.6,3.8,4.3,8.2,5,12.8
			c0,0.3,0.1,0.5,0.1,0.8c0.4,3.8,1.3,7.6,2.6,11.2c1.4,3.3,3.2,5,5.3,5.3c2.3,0.2,4.1-1.7,5.6-5.6c1.1-3.4,1.9-6.8,2.2-10.4
			c0.1-1.8,0.7-3.6,1.6-5.2c0.4-0.5,1-0.6,1.5-0.3c0.1,0.1,0.2,0.2,0.3,0.3c1,1.6,1.5,3.3,1.6,5.2c0.3,3.5,1.1,7,2.2,10.4
			c1.4,3.7,3.1,5.6,5.2,5.6c0.1,0,0.2,0,0.4,0c2.1-0.2,3.9-2,5.3-5.3c1.4-3.6,2.3-7.4,2.6-11.2c0-0.3,0.1-0.5,0.1-0.8
			c0.7-4.6,2.4-9,5-12.8c0.4-0.6,0.9-1.3,1.2-2H292z"/>
		<rect x="268" y="6626.8" class="st1" width="18" height="3"/>
	</g>
	<g>
		<path class="st2" d="M267.3,6614.7l1.4-2.7c1.5-3,5.1-4.1,8.1-2.6l16.1,8.1c3,1.5,4.1,5.1,2.6,8.1l-1.4,2.7l11,5.6
			c2.4-3,4-6.6,4.6-10.4c0.7-5-0.7-9.7-3.9-12.8c-4.3-4.2-10.3-6.3-16.3-5.7c-3.1-5.2-8.3-8.8-14.2-9.8c-4.4-0.7-9,0.9-12.6,4.4
			c-2.8,2.8-4.7,6.2-5.7,9.9L267.3,6614.7z"/>
		<polygon class="st2" points="290.1,6622.9 274,6614.7 274,6614.7 272.6,6617.4 288.7,6625.5 		"/>
		<path class="st2" d="M291.3,6633.6l-1.4,2.7c-1.5,3-5.1,4.1-8.1,2.6l-16.1-8.1c-3-1.5-4.1-5.1-2.6-8.1l1.4-2.7l-8.2-4.2
			c0,0.8,0.1,1.6,0.2,2.3c0.6,4.6,0.2,9.3-1.3,13.7c-0.1,0.2-0.2,0.5-0.3,0.7c-1.4,3.6-2.3,7.3-2.7,11.2c-0.2,3.5,0.5,5.9,2.3,7.1
			c1.9,1.2,4.4,0.4,7.5-2.5c2.5-2.5,4.8-5.2,6.7-8.2c0.9-1.6,2.2-2.9,3.8-3.9c0.5-0.3,1.2-0.1,1.5,0.5c0.1,0.1,0.1,0.2,0.1,0.4
			c0.2,1.8-0.1,3.7-0.9,5.3c-1.3,3.3-2.2,6.7-2.7,10.3c-0.5,3.9,0.2,6.4,2.1,7.3c0.1,0.1,0.2,0.1,0.3,0.1c2,0.8,4.4,0,7.1-2.3
			c2.8-2.6,5.3-5.5,7.4-8.8c0.1-0.2,0.3-0.4,0.4-0.6c2.7-3.8,6.2-6.9,10.3-9.2c0.7-0.4,1.4-0.8,2-1.2L291.3,6633.6z"/>
		
			<rect x="276.1" y="6618.9" transform="matrix(0.4517 -0.8922 0.8922 0.4517 -5761.0322 3881.8191)" class="st2" width="3" height="18"/>
	</g>
</g>
</svg>
