<?xml version="1.0" encoding="utf-8"?>
<!-- Generator: Adobe Illustrator 25.4.1, SVG Export Plug-In . SVG Version: 6.00 Build 0)  -->
<!DOCTYPE svg PUBLIC "-//W3C//DTD SVG 1.1//EN" "http://www.w3.org/Graphics/SVG/1.1/DTD/svg11.dtd" [
	<!ENTITY ns_extend "http://ns.adobe.com/Extensibility/1.0/">
	<!ENTITY ns_ai "http://ns.adobe.com/AdobeIllustrator/10.0/">
	<!ENTITY ns_graphs "http://ns.adobe.com/Graphs/1.0/">
	<!ENTITY ns_vars "http://ns.adobe.com/Variables/1.0/">
	<!ENTITY ns_imrep "http://ns.adobe.com/ImageReplacement/1.0/">
	<!ENTITY ns_sfw "http://ns.adobe.com/SaveForWeb/1.0/">
	<!ENTITY ns_custom "http://ns.adobe.com/GenericCustomNamespace/1.0/">
	<!ENTITY ns_adobe_xpath "http://ns.adobe.com/XPath/1.0/">
]>
<svg version="1.1" id="Layer_1" xmlns:x="&ns_extend;" xmlns:i="&ns_ai;" xmlns:graph="&ns_graphs;"
	 xmlns="http://www.w3.org/2000/svg" xmlns:xlink="http://www.w3.org/1999/xlink" x="0px" y="0px" viewBox="0 0 90.2 60.1"
	 style="enable-background:new 0 0 90.2 60.1;" xml:space="preserve">
<style type="text/css">
	.st0{fill:#000064;}
</style>
<metadata>
	<sfw  xmlns="&ns_sfw;">
		<slices></slices>
		<sliceSourceBounds  bottomLeftOrigin="true" height="58.7" width="88" x="1.1" y="0.7"></sliceSourceBounds>
	</sfw>
</metadata>
<g>
	<g id="Group_20789" transform="translate(-8001.86 -9687.572)">
		<g>
			<path class="st0" d="M8050,9706.6h-3.2v-3.2c0-1.1-0.9-2-2-2h-0.6c-1.1,0-2,0.9-2,2v3.2h-3.2c-1.1,0-2,0.9-2,2v0.6
				c0,1.1,0.9,2,2,2h3.2v3.2c0,1.1,0.9,2,2,2h0.6c1.1,0,2-0.9,2-2v-3.2h3.2c1.1,0,2-0.9,2-2v-0.6
				C8052,9707.5,8051.1,9706.6,8050,9706.6z"/>
			<path class="st0" d="M8070.2,9698.6c-1.6-4.7-4.9-8.1-9-9.4c-5.7-1.8-11.7-0.9-16.7,2.2c-5-3.1-11-4-16.7-2.2
				c-4.1,1.4-7.4,4.8-9,9.5c-2,6.4-1,13.4,2.8,18.9c2.5,3.7,4.2,8,4.9,12.5c0,0.3,0.1,0.5,0.1,0.8c0.4,3.7,1.3,7.4,2.5,10.9
				c1.4,3.2,3.1,4.9,5.2,5.2c2.2,0.2,4-1.7,5.5-5.5c1.1-3.3,1.9-6.6,2.1-10.1c0.1-1.8,0.7-3.5,1.6-5.1c0.4-0.5,1-0.6,1.5-0.3
				c0.1,0.1,0.2,0.2,0.3,0.3c1,1.6,1.5,3.2,1.6,5.1c0.3,3.4,1.1,6.8,2.1,10.1c1.4,3.6,3,5.5,5.1,5.5c0.1,0,0.2,0,0.4,0
				c2-0.2,3.8-2,5.2-5.2c1.4-3.5,2.2-7.2,2.5-10.9c0-0.3,0.1-0.5,0.1-0.8c0.7-4.5,2.3-8.8,4.9-12.5
				C8071.2,9711.9,8072.3,9704.9,8070.2,9698.6z M8044.6,9720.5c-6.4,0-11.7-5.3-11.7-11.7s5.3-11.7,11.7-11.7s11.7,5.3,11.7,11.7
				S8051,9720.5,8044.6,9720.5z"/>
		</g>
		<path class="st0" d="M8089,9706.6h-3.2v-3.2c0-1.1-0.9-2-2-2h-0.6c-1.1,0-2,0.9-2,2v3.2h-3.2c-1.1,0-2,0.9-2,2v0.6
			c0,1.1,0.9,2,2,2h3.2v3.2c0,1.1,0.9,2,2,2h0.6c1.1,0,2-0.9,2-2v-3.2h3.2c1.1,0,2-0.9,2-2v-0.6
			C8091,9707.5,8090.1,9706.6,8089,9706.6z"/>
	</g>
	<path class="st0" d="M14,44.4h-3.2v-3.2c0-1.1-0.9-2-2-2H8.2c-1.1,0-2,0.9-2,2v3.2H3.1c-1.1,0-2,0.9-2,2V47c0,1.1,0.9,2,2,2h3.2
		v3.2c0,1.1,0.9,2,2,2h0.6c1.1,0,2-0.9,2-2v-3.2H14c1.1,0,2-0.9,2-2v-0.6C15.9,45.3,15.1,44.4,14,44.4z"/>
</g>
</svg>
