<?xml version="1.0" encoding="utf-8"?>
<!-- Generator: Adobe Illustrator 25.4.1, SVG Export Plug-In . SVG Version: 6.00 Build 0)  -->
<!DOCTYPE svg PUBLIC "-//W3C//DTD SVG 1.1//EN" "http://www.w3.org/Graphics/SVG/1.1/DTD/svg11.dtd" [
	<!ENTITY ns_extend "http://ns.adobe.com/Extensibility/1.0/">
	<!ENTITY ns_ai "http://ns.adobe.com/AdobeIllustrator/10.0/">
	<!ENTITY ns_graphs "http://ns.adobe.com/Graphs/1.0/">
	<!ENTITY ns_vars "http://ns.adobe.com/Variables/1.0/">
	<!ENTITY ns_imrep "http://ns.adobe.com/ImageReplacement/1.0/">
	<!ENTITY ns_sfw "http://ns.adobe.com/SaveForWeb/1.0/">
	<!ENTITY ns_custom "http://ns.adobe.com/GenericCustomNamespace/1.0/">
	<!ENTITY ns_adobe_xpath "http://ns.adobe.com/XPath/1.0/">
]>
<svg version="1.1" id="Layer_1" xmlns:x="&ns_extend;" xmlns:i="&ns_ai;" xmlns:graph="&ns_graphs;"
	 xmlns="http://www.w3.org/2000/svg" xmlns:xlink="http://www.w3.org/1999/xlink" x="0px" y="0px" viewBox="0 0 48 62"
	 style="enable-background:new 0 0 48 62;" xml:space="preserve">
<style type="text/css">
	.st0{fill:#000064;}
</style>
<metadata>
	<sfw  xmlns="&ns_sfw;">
		<slices></slices>
		<sliceSourceBounds  bottomLeftOrigin="true" height="62" width="48" x="0" y="0"></sliceSourceBounds>
	</sfw>
</metadata>
<path class="st0" d="M27,56h-9V3c0-1.7-1.3-3-3-3s-3,1.3-3,3v53H3c-1.7,0-3,1.3-3,3s1.3,3,3,3h24c1.7,0,3-1.3,3-3S28.7,56,27,56z"/>
<path class="st0" d="M48,10.1H15c-1.7,0-3,1.3-3,3v27h36l-10-15L48,10.1z M32.9,26.1c-0.6,0.9-1,1.9-1.2,3c0,0.1,0,0.1,0,0.2
	c-0.1,0.9-0.3,1.8-0.6,2.6c-0.3,0.8-0.7,1.2-1.2,1.2h-0.1c-0.5,0-0.9-0.4-1.2-1.3c-0.3-0.8-0.4-1.6-0.5-2.4c0-0.4-0.2-0.8-0.4-1.2
	c0,0,0,0-0.1-0.1c-0.1-0.1-0.3-0.1-0.4,0.1c-0.2,0.4-0.3,0.8-0.4,1.2c-0.1,0.8-0.3,1.6-0.5,2.4c-0.3,0.9-0.8,1.4-1.3,1.3
	s-0.9-0.5-1.2-1.2c-0.3-0.8-0.5-1.7-0.6-2.6v-0.2C23,28,22.6,27,22,26.1c-0.9-1.3-1.2-3-0.7-4.5c0.3-1,1.1-1.9,2.2-2.2
	c1.3-0.4,2.8-0.2,4,0.5c1.2-0.8,2.7-1,4-0.5c1,0.4,1.8,1.2,2.1,2.3C34,23.2,33.8,24.8,32.9,26.1L32.9,26.1z"/>
</svg>
